GeezHandwritingDotsArrows.ufo
<glyph name="exclam" format="2">
  <advance width="819"/>
  <unicode hex="0021"/>
  <outline>
    <contour>
      <point x="261.939" y="1280" type="curve" smooth="yes"/>
      <point x="261.939" y="1245"/>
      <point x="245.944" y="1229"/>
      <point x="210.944" y="1229" type="curve" smooth="yes"/>
      <point x="175.944" y="1229"/>
      <point x="157.901" y="1245"/>
      <point x="157.901" y="1280" type="curve" smooth="yes"/>
      <point x="157.901" y="1315"/>
      <point x="175.944" y="1333.04"/>
      <point x="210.944" y="1333.04" type="curve" smooth="yes"/>
      <point x="245.944" y="1333.04"/>
      <point x="261.939" y="1315"/>
    </contour>
    <contour>
      <point x="261.939" y="1075" type="curve" smooth="yes"/>
      <point x="261.939" y="1040"/>
      <point x="245.944" y="1024"/>
      <point x="210.944" y="1024" type="curve" smooth="yes"/>
      <point x="175.944" y="1024"/>
      <point x="157.901" y="1040"/>
      <point x="157.901" y="1075" type="curve" smooth="yes"/>
      <point x="157.901" y="1110"/>
      <point x="175.944" y="1128.04"/>
      <point x="210.944" y="1128.04" type="curve" smooth="yes"/>
      <point x="245.944" y="1128.04"/>
      <point x="261.939" y="1110"/>
    </contour>
    <contour>
      <point x="261.939" y="869.99" type="curve" smooth="yes"/>
      <point x="261.939" y="835.99"/>
      <point x="245.944" y="818.995"/>
      <point x="210.944" y="818.995" type="curve" smooth="yes"/>
      <point x="175.944" y="818.995"/>
      <point x="157.901" y="835.99"/>
      <point x="157.901" y="869.99" type="curve" smooth="yes"/>
      <point x="157.901" y="904.99"/>
      <point x="175.944" y="924.057"/>
      <point x="210.944" y="924.057" type="curve" smooth="yes"/>
      <point x="245.944" y="924.057"/>
      <point x="261.939" y="904.99"/>
    </contour>
    <contour>
      <point x="261.939" y="666.01" type="curve" smooth="yes"/>
      <point x="261.939" y="631.01"/>
      <point x="245.944" y="613.991"/>
      <point x="210.944" y="613.991" type="curve" smooth="yes"/>
      <point x="175.944" y="613.991"/>
      <point x="157.901" y="631.01"/>
      <point x="157.901" y="666.01" type="curve" smooth="yes"/>
      <point x="157.901" y="700.01"/>
      <point x="175.944" y="719.053"/>
      <point x="210.944" y="719.053" type="curve" smooth="yes"/>
      <point x="245.944" y="719.053"/>
      <point x="261.939" y="700.01"/>
    </contour>
    <contour>
      <point x="261.939" y="461.005" type="curve" smooth="yes"/>
      <point x="261.939" y="426.005"/>
      <point x="245.944" y="410.01"/>
      <point x="210.944" y="410.01" type="curve" smooth="yes"/>
      <point x="175.944" y="410.01"/>
      <point x="157.901" y="426.005"/>
      <point x="157.901" y="461.005" type="curve" smooth="yes"/>
      <point x="157.901" y="496.005"/>
      <point x="175.944" y="514.048"/>
      <point x="210.944" y="514.048" type="curve" smooth="yes"/>
      <point x="245.944" y="514.048"/>
      <point x="261.939" y="496.005"/>
    </contour>
    <contour>
      <point x="269.927" y="58.9825" type="curve" smooth="yes"/>
      <point x="269.927" y="19.9825"/>
      <point x="249.944" y="0"/>
      <point x="210.944" y="0" type="curve" smooth="yes"/>
      <point x="171.944" y="0"/>
      <point x="151.962" y="19.9825"/>
      <point x="151.962" y="58.9825" type="curve" smooth="yes"/>
      <point x="151.962" y="97.9825"/>
      <point x="171.944" y="118.989"/>
      <point x="210.944" y="118.989" type="curve" smooth="yes"/>
      <point x="249.944" y="118.989" name=".hr01"/>
      <point x="269.927" y="97.9825"/>
    </contour>
  </outline>
</glyph>
<glyph name="quotedbl" format="2">
  <advance width="512"/>
  <unicode hex="0022"/>
  <outline>
    <contour>
      <point x="403.047" y="1275.9" type="curve" smooth="yes"/>
      <point x="403.047" y="1240.9"/>
      <point x="385.003" y="1223.07"/>
      <point x="350.003" y="1223.07" type="curve" smooth="yes"/>
      <point x="315.003" y="1223.07"/>
      <point x="299.008" y="1240.9"/>
      <point x="299.008" y="1275.9" type="curve" smooth="yes"/>
      <point x="299.008" y="1310.9"/>
      <point x="315.003" y="1326.9"/>
      <point x="350.003" y="1326.9" type="curve" smooth="yes"/>
      <point x="385.003" y="1326.9"/>
      <point x="403.047" y="1310.9"/>
    </contour>
    <contour>
      <point x="199.066" y="1275.9" type="curve" smooth="yes"/>
      <point x="199.066" y="1240.9"/>
      <point x="179.999" y="1223.07"/>
      <point x="144.999" y="1223.07" type="curve" smooth="yes"/>
      <point x="110.999" y="1223.07"/>
      <point x="94.0033" y="1240.9"/>
      <point x="94.0033" y="1275.9" type="curve" smooth="yes"/>
      <point x="94.0033" y="1310.9"/>
      <point x="110.999" y="1326.9"/>
      <point x="144.999" y="1326.9" type="curve" smooth="yes"/>
      <point x="179.999" y="1326.9"/>
      <point x="199.066" y="1310.9"/>
    </contour>
    <contour>
      <point x="403.047" y="1070.9" type="curve" smooth="yes"/>
      <point x="403.047" y="1035.9"/>
      <point x="385.003" y="1018.06"/>
      <point x="350.003" y="1018.06" type="curve" smooth="yes"/>
      <point x="315.003" y="1018.06"/>
      <point x="299.008" y="1035.9"/>
      <point x="299.008" y="1070.9" type="curve" smooth="yes"/>
      <point x="299.008" y="1105.9"/>
      <point x="315.003" y="1122.1"/>
      <point x="350.003" y="1122.1" type="curve" smooth="yes"/>
      <point x="385.003" y="1122.1"/>
      <point x="403.047" y="1105.9"/>
    </contour>
    <contour>
      <point x="199.066" y="1070.9" type="curve" smooth="yes"/>
      <point x="199.066" y="1035.9"/>
      <point x="179.999" y="1018.06"/>
      <point x="144.999" y="1018.06" type="curve" smooth="yes"/>
      <point x="110.999" y="1018.06"/>
      <point x="94.0033" y="1035.9"/>
      <point x="94.0033" y="1070.9" type="curve" smooth="yes"/>
      <point x="94.0033" y="1105.9"/>
      <point x="110.999" y="1122.1"/>
      <point x="144.999" y="1122.1" type="curve" smooth="yes"/>
      <point x="179.999" y="1122.1"/>
      <point x="199.066" y="1105.9"/>
    </contour>
  </outline>
</glyph>
<glyph name="dollar" format="2">
  <advance width="1434"/>
  <unicode hex="0024"/>
  <outline>
    <contour>
      <point x="917.914" y="1169" type="curve" smooth="yes"/>
      <point x="917.914" y="1135"/>
      <point x="901.099" y="1115.96"/>
      <point x="866.099" y="1115.96" type="curve" smooth="yes"/>
      <point x="831.099" y="1115.96"/>
      <point x="813.056" y="1135"/>
      <point x="813.056" y="1169" type="curve" smooth="yes"/>
      <point x="813.056" y="1204"/>
      <point x="831.099" y="1221.02"/>
      <point x="866.099" y="1221.02" type="curve" smooth="yes"/>
      <point x="901.099" y="1221.02"/>
      <point x="917.914" y="1204"/>
    </contour>
    <contour>
      <point x="1056.97" y="1016.01" type="curve" smooth="yes"/>
      <point x="1056.97" y="981.013"/>
      <point x="1037.93" y="962.97"/>
      <point x="1003.93" y="962.97" type="curve" smooth="yes"/>
      <point x="968.93" y="962.97" name=".hr01"/>
      <point x="951.911" y="981.013"/>
      <point x="951.911" y="1016.01" type="curve" smooth="yes" name=".hr02"/>
      <point x="951.911" y="1051.01"/>
      <point x="968.93" y="1067.01"/>
      <point x="1003.93" y="1067.01" type="curve" smooth="yes"/>
      <point x="1037.93" y="1067.01" name=".hr03"/>
      <point x="1056.97" y="1051.01"/>
    </contour>
    <contour>
      <point x="762.061" y="1275.9" type="curve" smooth="yes" name=".hr04"/>
      <point x="762.061" y="1240.9"/>
      <point x="745.065" y="1224.91"/>
      <point x="711.065" y="1224.91" type="curve" smooth="yes"/>
      <point x="676.065" y="1224.91"/>
      <point x="656.998" y="1240.9"/>
      <point x="656.998" y="1275.9" type="curve" smooth="yes"/>
      <point x="656.998" y="1310.9"/>
      <point x="676.065" y="1328.95"/>
      <point x="711.065" y="1328.95" type="curve" smooth="yes"/>
      <point x="745.065" y="1328.95"/>
      <point x="762.061" y="1310.9"/>
    </contour>
    <contour>
      <point x="762.061" y="1070.9" type="curve" smooth="yes"/>
      <point x="762.061" y="1035.9"/>
      <point x="745.065" y="1019.9"/>
      <point x="711.065" y="1019.9" type="curve" smooth="yes"/>
      <point x="676.065" y="1019.9"/>
      <point x="656.998" y="1035.9"/>
      <point x="656.998" y="1070.9" type="curve" smooth="yes"/>
      <point x="656.998" y="1105.9"/>
      <point x="676.065" y="1123.94"/>
      <point x="711.065" y="1123.94" type="curve" smooth="yes"/>
      <point x="745.065" y="1123.94"/>
      <point x="762.061" y="1105.9"/>
    </contour>
    <contour>
      <point x="627.097" y="1171.05" type="curve" smooth="yes"/>
      <point x="627.097" y="1137.05"/>
      <point x="608.03" y="1118"/>
      <point x="573.03" y="1118" type="curve" smooth="yes"/>
      <point x="539.03" y="1118"/>
      <point x="522.035" y="1137.05"/>
      <point x="522.035" y="1171.05" type="curve" smooth="yes" name=".hr05"/>
      <point x="522.035" y="1206.05"/>
      <point x="539.03" y="1223.07"/>
      <point x="573.03" y="1223.07" type="curve" smooth="yes"/>
      <point x="608.03" y="1223.07"/>
      <point x="627.097" y="1206.05"/>
    </contour>
    <contour>
      <point x="762.061" y="866.099" type="curve" smooth="yes"/>
      <point x="762.061" y="831.099"/>
      <point x="745.065" y="814.899"/>
      <point x="711.065" y="814.899" type="curve" smooth="yes"/>
      <point x="676.065" y="814.899"/>
      <point x="656.998" y="831.099"/>
      <point x="656.998" y="866.099" type="curve" smooth="yes"/>
      <point x="656.998" y="901.099"/>
      <point x="676.065" y="919.961"/>
      <point x="711.065" y="919.961" type="curve" smooth="yes"/>
      <point x="745.065" y="919.961"/>
      <point x="762.061" y="901.099"/>
    </contour>
    <contour>
      <point x="1003.93" y="570.982" type="curve" smooth="yes"/>
      <point x="1003.93" y="536.982"/>
      <point x="986.911" y="519.987"/>
      <point x="951.911" y="519.987" type="curve" smooth="yes"/>
      <point x="917.911" y="519.987"/>
      <point x="899.072" y="536.982"/>
      <point x="899.072" y="570.982" type="curve" smooth="yes"/>
      <point x="899.072" y="605.982"/>
      <point x="917.911" y="625.049"/>
      <point x="951.911" y="625.049" type="curve" smooth="yes" name=".hr06"/>
      <point x="986.911" y="625.049"/>
      <point x="1003.93" y="605.982" name=".hr07"/>
    </contour>
    <contour>
      <point x="496.026" y="1011.92" type="curve" smooth="yes"/>
      <point x="496.026" y="976.917"/>
      <point x="476.959" y="958.054"/>
      <point x="441.959" y="958.054" type="curve" smooth="yes" name=".hr08"/>
      <point x="407.959" y="958.054"/>
      <point x="390.963" y="976.917" name=".hr09"/>
      <point x="390.963" y="1011.92" type="curve" smooth="yes"/>
      <point x="390.963" y="1046.92"/>
      <point x="407.959" y="1062.91"/>
      <point x="441.959" y="1062.91" type="curve" smooth="yes"/>
      <point x="476.959" y="1062.91"/>
      <point x="496.026" y="1046.92"/>
    </contour>
    <contour>
      <point x="762.061" y="661.914" type="curve" smooth="yes"/>
      <point x="762.061" y="626.914"/>
      <point x="745.065" y="610.099"/>
      <point x="711.065" y="610.099" type="curve" smooth="yes"/>
      <point x="676.065" y="610.099"/>
      <point x="656.998" y="626.914"/>
      <point x="656.998" y="661.914" type="curve" smooth="yes"/>
      <point x="656.998" y="695.914"/>
      <point x="676.065" y="714.957"/>
      <point x="711.065" y="714.957" type="curve" smooth="yes"/>
      <point x="745.065" y="714.957"/>
      <point x="762.061" y="695.914"/>
    </contour>
    <contour>
      <point x="592.077" y="800.973" type="curve" smooth="yes"/>
      <point x="592.077" y="765.973"/>
      <point x="573.033" y="747.93"/>
      <point x="539.033" y="747.93" type="curve" smooth="yes"/>
      <point x="504.033" y="747.93"/>
      <point x="487.014" y="765.973"/>
      <point x="487.014" y="800.973" type="curve" smooth="yes"/>
      <point x="487.014" y="835.973"/>
      <point x="504.033" y="851.968"/>
      <point x="539.033" y="851.968" type="curve" smooth="yes"/>
      <point x="573.033" y="851.968"/>
      <point x="592.077" y="835.973"/>
    </contour>
    <contour>
      <point x="1039.97" y="302.899" type="curve" smooth="yes"/>
      <point x="1039.97" y="267.899"/>
      <point x="1023.98" y="251.904" name=".hr10"/>
      <point x="988.979" y="251.904" type="curve" smooth="yes"/>
      <point x="953.979" y="251.904"/>
      <point x="935.936" y="267.899"/>
      <point x="935.936" y="302.899" type="curve" smooth="yes"/>
      <point x="935.936" y="337.899"/>
      <point x="953.979" y="355.943"/>
      <point x="988.979" y="355.943" type="curve" smooth="yes"/>
      <point x="1023.98" y="355.943"/>
      <point x="1039.97" y="337.899"/>
    </contour>
    <contour>
      <point x="762.061" y="456.909" type="curve" smooth="yes"/>
      <point x="762.061" y="421.909"/>
      <point x="745.065" y="405.914"/>
      <point x="711.065" y="405.914" type="curve" smooth="yes"/>
      <point x="676.065" y="405.914"/>
      <point x="656.998" y="421.909"/>
      <point x="656.998" y="456.909" type="curve" smooth="yes"/>
      <point x="656.998" y="491.909"/>
      <point x="676.065" y="509.952"/>
      <point x="711.065" y="509.952" type="curve" smooth="yes"/>
      <point x="745.065" y="509.952"/>
      <point x="762.061" y="491.909"/>
    </contour>
    <contour>
      <point x="912.998" y="175.923" type="curve" smooth="yes"/>
      <point x="912.998" y="140.923"/>
      <point x="894.955" y="123.085"/>
      <point x="859.955" y="123.085" type="curve" smooth="yes"/>
      <point x="824.955" y="123.085"/>
      <point x="808.96" y="140.923"/>
      <point x="808.96" y="175.923" type="curve" smooth="yes"/>
      <point x="808.96" y="210.923"/>
      <point x="824.955" y="226.918"/>
      <point x="859.955" y="226.918" type="curve" smooth="yes"/>
      <point x="894.955" y="226.918"/>
      <point x="912.998" y="210.923"/>
    </contour>
    <contour>
      <point x="762.061" y="251.904" type="curve" smooth="yes"/>
      <point x="762.061" y="216.904"/>
      <point x="745.065" y="200.909"/>
      <point x="711.065" y="200.909" type="curve" smooth="yes"/>
      <point x="676.065" y="200.909"/>
      <point x="656.998" y="216.904"/>
      <point x="656.998" y="251.904" type="curve" smooth="yes"/>
      <point x="656.998" y="286.904"/>
      <point x="676.065" y="304.947"/>
      <point x="711.065" y="304.947" type="curve" smooth="yes"/>
      <point x="745.065" y="304.947"/>
      <point x="762.061" y="286.904"/>
    </contour>
    <contour>
      <point x="762.061" y="46.8993" type="curve" smooth="yes"/>
      <point x="762.061" y="11.8993"/>
      <point x="745.065" y="-5.93925"/>
      <point x="711.065" y="-5.93925" type="curve" smooth="yes" name=".hr11"/>
      <point x="676.065" y="-5.93925"/>
      <point x="656.998" y="11.8993"/>
      <point x="656.998" y="46.8993" type="curve" smooth="yes"/>
      <point x="656.998" y="81.8993" name=".hr12"/>
      <point x="676.065" y="99.9425"/>
      <point x="711.065" y="99.9425" type="curve" smooth="yes" name=".hr13"/>
      <point x="745.065" y="99.9425"/>
      <point x="762.061" y="81.8993"/>
    </contour>
    <contour>
      <point x="463.053" y="334.029" type="curve" smooth="yes"/>
      <point x="463.053" y="299.029" name=".hr14"/>
      <point x="446.058" y="283.033"/>
      <point x="412.058" y="283.033" type="curve" smooth="yes"/>
      <point x="377.058" y="283.033"/>
      <point x="357.991" y="299.029"/>
      <point x="357.991" y="334.029" type="curve" smooth="yes"/>
      <point x="357.991" y="369.029"/>
      <point x="377.058" y="387.072"/>
      <point x="412.058" y="387.072" type="curve" smooth="yes"/>
      <point x="446.058" y="387.072"/>
      <point x="463.053" y="369.029"/>
    </contour>
    <contour>
      <point x="600.064" y="188.007" type="curve" smooth="yes"/>
      <point x="600.064" y="154.007"/>
      <point x="582.021" y="134.963"/>
      <point x="547.021" y="134.963" type="curve" smooth="yes"/>
      <point x="512.021" y="134.963"/>
      <point x="496.026" y="154.007" name=".hr15"/>
      <point x="496.026" y="188.007" type="curve" smooth="yes"/>
      <point x="496.026" y="223.007"/>
      <point x="512.021" y="240.025"/>
      <point x="547.021" y="240.025" type="curve" smooth="yes"/>
      <point x="582.021" y="240.025"/>
      <point x="600.064" y="223.007"/>
    </contour>
  </outline>
</glyph>
<glyph name="ampersand" format="2">
  <advance width="1331"/>
  <unicode hex="0026"/>
  <outline>
    <contour>
      <point x="884.941" y="1171.05" type="curve" smooth="yes"/>
      <point x="884.941" y="1137.05"/>
      <point x="867.945" y="1120.05"/>
      <point x="833.945" y="1120.05" type="curve" smooth="yes"/>
      <point x="798.945" y="1120.05"/>
      <point x="780.083" y="1137.05"/>
      <point x="780.083" y="1171.05" type="curve" smooth="yes"/>
      <point x="780.083" y="1206.05"/>
      <point x="798.945" y="1224.91"/>
      <point x="833.945" y="1224.91" type="curve" smooth="yes"/>
      <point x="867.945" y="1224.91"/>
      <point x="884.941" y="1206.05"/>
    </contour>
    <contour>
      <point x="700.006" y="1282.05" type="curve" smooth="yes"/>
      <point x="700.006" y="1247.05"/>
      <point x="681.963" y="1229"/>
      <point x="646.963" y="1229" type="curve" smooth="yes"/>
      <point x="611.963" y="1229"/>
      <point x="595.968" y="1247.05"/>
      <point x="595.968" y="1282.05" type="curve" smooth="yes"/>
      <point x="595.968" y="1317.05"/>
      <point x="611.963" y="1333.04"/>
      <point x="646.963" y="1333.04" type="curve" smooth="yes"/>
      <point x="681.963" y="1333.04"/>
      <point x="700.006" y="1317.05"/>
    </contour>
    <contour>
      <point x="905.011" y="978.944" type="curve" smooth="yes"/>
      <point x="905.011" y="943.944"/>
      <point x="889.016" y="927.949" name=".hr01"/>
      <point x="854.016" y="927.949" type="curve" smooth="yes"/>
      <point x="819.016" y="927.949"/>
      <point x="800.973" y="943.944"/>
      <point x="800.973" y="978.944" type="curve" smooth="yes"/>
      <point x="800.973" y="1013.94"/>
      <point x="819.016" y="1031.99"/>
      <point x="854.016" y="1031.99" type="curve" smooth="yes"/>
      <point x="889.016" y="1031.99"/>
      <point x="905.011" y="1013.94"/>
    </contour>
    <contour>
      <point x="1123.94" y="573.031" type="curve" smooth="yes"/>
      <point x="1123.94" y="539.031"/>
      <point x="1105.9" y="519.987"/>
      <point x="1070.9" y="519.987" type="curve" smooth="yes"/>
      <point x="1035.9" y="519.987"/>
      <point x="1019.9" y="539.031" name=".hr02"/>
      <point x="1019.9" y="573.031" type="curve" smooth="yes"/>
      <point x="1019.9" y="608.031"/>
      <point x="1035.9" y="625.05" name=".hr03"/>
      <point x="1070.9" y="625.05" type="curve" smooth="yes"/>
      <point x="1105.9" y="625.05"/>
      <point x="1123.94" y="608.031"/>
    </contour>
    <contour>
      <point x="499.917" y="1175.96" type="curve" smooth="yes" name=".hr04"/>
      <point x="499.917" y="1140.96"/>
      <point x="482.921" y="1123.94" name=".hr05"/>
      <point x="448.921" y="1123.94" type="curve" smooth="yes"/>
      <point x="413.921" y="1123.94"/>
      <point x="395.059" y="1140.96"/>
      <point x="395.059" y="1175.96" type="curve" smooth="yes"/>
      <point x="395.059" y="1209.96"/>
      <point x="413.921" y="1229"/>
      <point x="448.921" y="1229" type="curve" smooth="yes"/>
      <point x="482.921" y="1229"/>
      <point x="499.917" y="1209.96"/>
    </contour>
    <contour>
      <point x="762.061" y="824.935" type="curve" smooth="yes"/>
      <point x="762.061" y="790.935"/>
      <point x="745.065" y="773.939"/>
      <point x="711.065" y="773.939" type="curve" smooth="yes"/>
      <point x="676.065" y="773.939"/>
      <point x="656.998" y="790.935"/>
      <point x="656.998" y="824.935" type="curve" smooth="yes"/>
      <point x="656.998" y="859.935"/>
      <point x="676.065" y="879.002"/>
      <point x="711.065" y="879.002" type="curve" smooth="yes"/>
      <point x="745.065" y="879.002"/>
      <point x="762.061" y="859.935"/>
    </contour>
    <contour>
      <point x="1070.9" y="425.984" type="curve" smooth="yes"/>
      <point x="1070.9" y="390.984"/>
      <point x="1053.06" y="372.941"/>
      <point x="1018.06" y="372.941" type="curve" smooth="yes"/>
      <point x="983.061" y="372.941"/>
      <point x="967.066" y="390.984"/>
      <point x="967.066" y="425.984" type="curve" smooth="yes" name=".hr06"/>
      <point x="967.066" y="460.984"/>
      <point x="983.061" y="476.979"/>
      <point x="1018.06" y="476.979" type="curve" smooth="yes"/>
      <point x="1053.06" y="476.979"/>
      <point x="1070.9" y="460.984"/>
    </contour>
    <contour>
      <point x="465.101" y="1008.03" type="curve" smooth="yes"/>
      <point x="465.101" y="973.026"/>
      <point x="446.057" y="953.959"/>
      <point x="412.057" y="953.959" type="curve" smooth="yes"/>
      <point x="377.057" y="953.959"/>
      <point x="360.038" y="973.026"/>
      <point x="360.038" y="1008.03" type="curve" smooth="yes"/>
      <point x="360.038" y="1042.03"/>
      <point x="377.057" y="1059.02"/>
      <point x="412.057" y="1059.02" type="curve" smooth="yes"/>
      <point x="446.057" y="1059.02"/>
      <point x="465.101" y="1042.03"/>
    </contour>
    <contour>
      <point x="542.925" y="854.016" type="curve" smooth="yes"/>
      <point x="542.925" y="819.016"/>
      <point x="524.062" y="800.973"/>
      <point x="489.062" y="800.973" type="curve" smooth="yes"/>
      <point x="455.062" y="800.973"/>
      <point x="438.067" y="819.016"/>
      <point x="438.067" y="854.016" type="curve" smooth="yes"/>
      <point x="438.067" y="889.016"/>
      <point x="455.062" y="905.011" name=".hr07"/>
      <point x="489.062" y="905.011" type="curve" smooth="yes"/>
      <point x="524.062" y="905.011"/>
      <point x="542.925" y="889.016" name=".hr08"/>
    </contour>
    <contour>
      <point x="623.002" y="724.992" type="curve" smooth="yes"/>
      <point x="623.002" y="689.992" name=".hr09"/>
      <point x="603.935" y="671.949"/>
      <point x="568.935" y="671.949" type="curve" smooth="yes"/>
      <point x="534.935" y="671.949"/>
      <point x="517.939" y="689.992" name=".hr10"/>
      <point x="517.939" y="724.992" type="curve" smooth="yes"/>
      <point x="517.939" y="759.992" name=".hr11"/>
      <point x="534.935" y="775.987"/>
      <point x="568.935" y="775.987" type="curve" smooth="yes"/>
      <point x="603.935" y="775.987"/>
      <point x="623.002" y="759.992"/>
    </contour>
    <contour>
      <point x="762.061" y="558.899" type="curve" smooth="yes"/>
      <point x="762.061" y="523.899"/>
      <point x="745.065" y="507.904" name=".hr12"/>
      <point x="711.065" y="507.904" type="curve" smooth="yes"/>
      <point x="676.065" y="507.904"/>
      <point x="656.998" y="523.899"/>
      <point x="656.998" y="558.899" type="curve" smooth="yes"/>
      <point x="656.998" y="593.899"/>
      <point x="676.065" y="611.942"/>
      <point x="711.065" y="611.942" type="curve" smooth="yes"/>
      <point x="745.065" y="611.942"/>
      <point x="762.061" y="593.899"/>
    </contour>
    <contour>
      <point x="884.941" y="415.949" type="curve" smooth="yes"/>
      <point x="884.941" y="380.949"/>
      <point x="867.945" y="364.954"/>
      <point x="833.945" y="364.954" type="curve" smooth="yes"/>
      <point x="798.945" y="364.954"/>
      <point x="780.083" y="380.949"/>
      <point x="780.083" y="415.949" type="curve" smooth="yes"/>
      <point x="780.083" y="450.949"/>
      <point x="798.945" y="468.992"/>
      <point x="833.945" y="468.992" type="curve" smooth="yes"/>
      <point x="867.945" y="468.992"/>
      <point x="884.941" y="450.949"/>
    </contour>
    <contour>
      <point x="996.966" y="293.069" type="curve" smooth="yes"/>
      <point x="996.966" y="258.069"/>
      <point x="978.923" y="240.026"/>
      <point x="943.923" y="240.026" type="curve" smooth="yes"/>
      <point x="908.923" y="240.026"/>
      <point x="892.928" y="258.069"/>
      <point x="892.928" y="293.069" type="curve" smooth="yes"/>
      <point x="892.928" y="328.069"/>
      <point x="908.923" y="344.064"/>
      <point x="943.923" y="344.064" type="curve" smooth="yes"/>
      <point x="978.923" y="344.064"/>
      <point x="996.966" y="328.069"/>
    </contour>
    <contour>
      <point x="1091.99" y="188.007" type="curve" smooth="yes"/>
      <point x="1091.99" y="154.007"/>
      <point x="1072.93" y="134.963"/>
      <point x="1037.93" y="134.963" type="curve" smooth="yes"/>
      <point x="1003.93" y="134.963"/>
      <point x="986.931" y="154.007"/>
      <point x="986.931" y="188.007" type="curve" smooth="yes"/>
      <point x="986.931" y="223.007"/>
      <point x="1003.93" y="240.025"/>
      <point x="1037.93" y="240.025" type="curve" smooth="yes"/>
      <point x="1072.93" y="240.025"/>
      <point x="1091.99" y="223.007"/>
    </contour>
    <contour>
      <point x="1204.02" y="53.0433" type="curve" smooth="yes"/>
      <point x="1204.02" y="18.0433" name=".hr13"/>
      <point x="1185.98" y="0"/>
      <point x="1150.98" y="0" type="curve" smooth="yes"/>
      <point x="1115.98" y="0"/>
      <point x="1099.98" y="18.0432"/>
      <point x="1099.98" y="53.0432" type="curve" smooth="yes"/>
      <point x="1099.98" y="88.0432"/>
      <point x="1115.98" y="104.038"/>
      <point x="1150.98" y="104.038" type="curve" smooth="yes"/>
      <point x="1185.98" y="104.038"/>
      <point x="1204.02" y="88.0432"/>
    </contour>
    <contour>
      <point x="489.062" y="627.097" type="curve" smooth="yes"/>
      <point x="489.062" y="592.097"/>
      <point x="471.019" y="573.03"/>
      <point x="436.019" y="573.03" type="curve" smooth="yes"/>
      <point x="401.019" y="573.03"/>
      <point x="385.024" y="592.097"/>
      <point x="385.024" y="627.097" type="curve" smooth="yes"/>
      <point x="385.024" y="662.097"/>
      <point x="401.019" y="678.093"/>
      <point x="436.019" y="678.093" type="curve" smooth="yes"/>
      <point x="471.019" y="678.093"/>
      <point x="489.062" y="662.097"/>
    </contour>
    <contour>
      <point x="879.002" y="154.01" type="curve" smooth="yes"/>
      <point x="879.002" y="119.01"/>
      <point x="859.935" y="99.9425"/>
      <point x="824.935" y="99.9425" type="curve" smooth="yes"/>
      <point x="790.935" y="99.9425"/>
      <point x="773.939" y="119.01"/>
      <point x="773.939" y="154.01" type="curve" smooth="yes"/>
      <point x="773.939" y="188.01"/>
      <point x="790.935" y="205.005"/>
      <point x="824.935" y="205.005" type="curve" smooth="yes"/>
      <point x="859.935" y="205.005"/>
      <point x="879.002" y="188.01"/>
    </contour>
    <contour>
      <point x="352.051" y="512" type="curve" smooth="yes"/>
      <point x="352.051" y="477"/>
      <point x="334.008" y="458.957"/>
      <point x="299.008" y="458.957" type="curve" smooth="yes"/>
      <point x="264.008" y="458.957"/>
      <point x="248.013" y="477"/>
      <point x="248.013" y="512" type="curve" smooth="yes" name=".hr14"/>
      <point x="248.013" y="547"/>
      <point x="264.008" y="562.995"/>
      <point x="299.008" y="562.995" type="curve" smooth="yes"/>
      <point x="334.008" y="562.995"/>
      <point x="352.051" y="547"/>
    </contour>
    <contour>
      <point x="730.931" y="75.9808" type="curve" smooth="yes"/>
      <point x="730.931" y="40.9808"/>
      <point x="713.093" y="22.9375"/>
      <point x="678.093" y="22.9375" type="curve" smooth="yes"/>
      <point x="643.093" y="22.9375"/>
      <point x="627.098" y="40.9808"/>
      <point x="627.098" y="75.9808" type="curve" smooth="yes"/>
      <point x="627.098" y="110.981" name=".hr15"/>
      <point x="643.093" y="126.976"/>
      <point x="678.093" y="126.976" type="curve" smooth="yes"/>
      <point x="713.093" y="126.976" name=".hr16"/>
      <point x="730.931" y="110.981"/>
    </contour>
    <contour>
      <point x="306.995" y="321.945" type="curve" smooth="yes"/>
      <point x="306.995" y="286.945" name=".hr17"/>
      <point x="291" y="269.926"/>
      <point x="256" y="269.926" type="curve" smooth="yes"/>
      <point x="221" y="269.926"/>
      <point x="202.957" y="286.945"/>
      <point x="202.957" y="321.945" type="curve" smooth="yes"/>
      <point x="202.957" y="355.945"/>
      <point x="221" y="374.989"/>
      <point x="256" y="374.989" type="curve" smooth="yes"/>
      <point x="291" y="374.989"/>
      <point x="306.995" y="355.945"/>
    </contour>
    <contour>
      <point x="544.973" y="53.0433" type="curve" smooth="yes"/>
      <point x="544.973" y="18.0433"/>
      <point x="525.93" y="0"/>
      <point x="491.93" y="0" type="curve" smooth="yes"/>
      <point x="456.93" y="0"/>
      <point x="439.911" y="18.0432"/>
      <point x="439.911" y="53.0432" type="curve" smooth="yes"/>
      <point x="439.911" y="88.0432" name=".hr18"/>
      <point x="456.93" y="104.038"/>
      <point x="491.93" y="104.038" type="curve" smooth="yes"/>
      <point x="525.93" y="104.038"/>
      <point x="544.973" y="88.0432"/>
    </contour>
    <contour>
      <point x="372.941" y="144.999" type="curve" smooth="yes"/>
      <point x="372.941" y="110.999"/>
      <point x="355.945" y="94.0033"/>
      <point x="321.945" y="94.0033" type="curve" smooth="yes"/>
      <point x="286.945" y="94.0033"/>
      <point x="268.083" y="110.999"/>
      <point x="268.083" y="144.999" type="curve" smooth="yes"/>
      <point x="268.083" y="179.999"/>
      <point x="286.945" y="199.066"/>
      <point x="321.945" y="199.066" type="curve" smooth="yes"/>
      <point x="355.945" y="199.066"/>
      <point x="372.941" y="179.999"/>
    </contour>
  </outline>
</glyph>
<glyph name="parenleft" format="2">
  <advance width="717"/>
  <unicode hex="0028"/>
  <outline>
    <contour>
      <point x="550.912" y="1300.07" type="curve" smooth="yes"/>
      <point x="550.912" y="1266.07"/>
      <point x="532.073" y="1249.08"/>
      <point x="498.073" y="1249.08" type="curve" smooth="yes"/>
      <point x="463.073" y="1249.08"/>
      <point x="446.054" y="1266.07"/>
      <point x="446.054" y="1300.07" type="curve" smooth="yes"/>
      <point x="446.054" y="1335.07"/>
      <point x="463.073" y="1353.93"/>
      <point x="498.073" y="1353.93" type="curve" smooth="yes"/>
      <point x="532.073" y="1353.93"/>
      <point x="550.912" y="1335.07"/>
    </contour>
    <contour>
      <point x="446.055" y="1175.96" type="curve" smooth="yes"/>
      <point x="446.055" y="1140.96"/>
      <point x="428.011" y="1123.94"/>
      <point x="393.011" y="1123.94" type="curve" smooth="yes"/>
      <point x="358.011" y="1123.94"/>
      <point x="342.016" y="1140.96"/>
      <point x="342.016" y="1175.96" type="curve" smooth="yes" name=".hr01"/>
      <point x="342.016" y="1209.96"/>
      <point x="358.011" y="1229"/>
      <point x="393.011" y="1229" type="curve" smooth="yes"/>
      <point x="428.011" y="1229"/>
      <point x="446.055" y="1209.96"/>
    </contour>
    <contour>
      <point x="354.099" y="1029.94" type="curve" smooth="yes"/>
      <point x="354.099" y="994.939"/>
      <point x="337.899" y="978.944" name=".hr02"/>
      <point x="302.899" y="978.944" type="curve" smooth="yes"/>
      <point x="267.899" y="978.944"/>
      <point x="250.061" y="994.939"/>
      <point x="250.061" y="1029.94" type="curve" smooth="yes"/>
      <point x="250.061" y="1064.94"/>
      <point x="267.899" y="1082.98"/>
      <point x="302.899" y="1082.98" type="curve" smooth="yes"/>
      <point x="337.899" y="1082.98"/>
      <point x="354.099" y="1064.94"/>
    </contour>
    <contour>
      <point x="296.96" y="869.99" type="curve" smooth="yes"/>
      <point x="296.96" y="835.99"/>
      <point x="280.965" y="816.947"/>
      <point x="245.965" y="816.947" type="curve" smooth="yes" name=".hr03"/>
      <point x="210.965" y="816.947"/>
      <point x="192.921" y="835.99"/>
      <point x="192.921" y="869.99" type="curve" smooth="yes"/>
      <point x="192.921" y="904.99"/>
      <point x="210.965" y="922.009"/>
      <point x="245.965" y="922.009" type="curve" smooth="yes"/>
      <point x="280.965" y="922.009"/>
      <point x="296.96" y="904.99"/>
    </contour>
    <contour>
      <point x="271.974" y="684.032" type="curve" smooth="yes"/>
      <point x="271.974" y="649.032"/>
      <point x="255.979" y="633.037"/>
      <point x="220.979" y="633.037" type="curve" smooth="yes"/>
      <point x="185.979" y="633.037" name=".hr04"/>
      <point x="167.936" y="649.032"/>
      <point x="167.936" y="684.032" type="curve" smooth="yes"/>
      <point x="167.936" y="719.032"/>
      <point x="185.979" y="737.075"/>
      <point x="220.979" y="737.075" type="curve" smooth="yes"/>
      <point x="255.979" y="737.075"/>
      <point x="271.974" y="719.032"/>
    </contour>
    <contour>
      <point x="296.96" y="482.918" type="curve" smooth="yes"/>
      <point x="296.96" y="448.918"/>
      <point x="280.965" y="431.923"/>
      <point x="245.965" y="431.923" type="curve" smooth="yes"/>
      <point x="210.965" y="431.923"/>
      <point x="192.921" y="448.918" name=".hr05"/>
      <point x="192.921" y="482.918" type="curve" smooth="yes"/>
      <point x="192.921" y="517.918"/>
      <point x="210.965" y="536.985"/>
      <point x="245.965" y="536.985" type="curve" smooth="yes"/>
      <point x="280.965" y="536.985"/>
      <point x="296.96" y="517.918"/>
    </contour>
    <contour>
      <point x="354.099" y="323.993" type="curve" smooth="yes"/>
      <point x="354.099" y="288.993"/>
      <point x="337.899" y="269.927"/>
      <point x="302.899" y="269.927" type="curve" smooth="yes"/>
      <point x="267.899" y="269.927"/>
      <point x="250.061" y="288.993"/>
      <point x="250.061" y="323.993" type="curve" smooth="yes" name=".hr06"/>
      <point x="250.061" y="357.993"/>
      <point x="267.899" y="374.989"/>
      <point x="302.899" y="374.989" type="curve" smooth="yes"/>
      <point x="337.899" y="374.989"/>
      <point x="354.099" y="357.993"/>
    </contour>
    <contour>
      <point x="446.055" y="177.971" type="curve" smooth="yes"/>
      <point x="446.055" y="142.971"/>
      <point x="428.011" y="124.928"/>
      <point x="393.011" y="124.928" type="curve" smooth="yes"/>
      <point x="358.011" y="124.928"/>
      <point x="342.016" y="142.971"/>
      <point x="342.016" y="177.971" type="curve" smooth="yes"/>
      <point x="342.016" y="212.971" name=".hr07"/>
      <point x="358.011" y="228.967"/>
      <point x="393.011" y="228.967" type="curve" smooth="yes"/>
      <point x="428.011" y="228.967"/>
      <point x="446.055" y="212.971"/>
    </contour>
    <contour>
      <point x="550.912" y="53.0433" type="curve" smooth="yes"/>
      <point x="550.912" y="18.0433"/>
      <point x="532.073" y="0"/>
      <point x="498.073" y="0" type="curve" smooth="yes"/>
      <point x="463.073" y="0"/>
      <point x="446.054" y="18.0432"/>
      <point x="446.054" y="53.0432" type="curve" smooth="yes"/>
      <point x="446.054" y="88.0432"/>
      <point x="463.073" y="104.038" name=".hr08"/>
      <point x="498.073" y="104.038" type="curve" smooth="yes"/>
      <point x="532.073" y="104.038"/>
      <point x="550.912" y="88.0432"/>
    </contour>
  </outline>
</glyph>
<glyph name="parenright" format="2">
  <advance width="717"/>
  <unicode hex="0029"/>
  <outline>
    <contour>
      <point x="271.974" y="1300.07" type="curve" smooth="yes"/>
      <point x="271.974" y="1266.07"/>
      <point x="253.931" y="1249.08"/>
      <point x="218.931" y="1249.08" type="curve" smooth="yes"/>
      <point x="183.931" y="1249.08"/>
      <point x="167.936" y="1266.07"/>
      <point x="167.936" y="1300.07" type="curve" smooth="yes"/>
      <point x="167.936" y="1335.07"/>
      <point x="183.931" y="1353.93"/>
      <point x="218.931" y="1353.93" type="curve" smooth="yes"/>
      <point x="253.931" y="1353.93"/>
      <point x="271.974" y="1335.07"/>
    </contour>
    <contour>
      <point x="377.037" y="1175.96" type="curve" smooth="yes"/>
      <point x="377.037" y="1140.96"/>
      <point x="357.993" y="1123.94"/>
      <point x="323.993" y="1123.94" type="curve" smooth="yes"/>
      <point x="288.993" y="1123.94"/>
      <point x="271.974" y="1140.96"/>
      <point x="271.974" y="1175.96" type="curve" smooth="yes"/>
      <point x="271.974" y="1209.96"/>
      <point x="288.993" y="1229"/>
      <point x="323.993" y="1229" type="curve" smooth="yes"/>
      <point x="357.993" y="1229"/>
      <point x="377.037" y="1209.96"/>
    </contour>
    <contour>
      <point x="466.944" y="1029.94" type="curve" smooth="yes"/>
      <point x="466.944" y="994.939"/>
      <point x="450.949" y="978.944"/>
      <point x="415.949" y="978.944" type="curve" smooth="yes"/>
      <point x="380.949" y="978.944"/>
      <point x="362.087" y="994.939"/>
      <point x="362.087" y="1029.94" type="curve" smooth="yes"/>
      <point x="362.087" y="1064.94"/>
      <point x="380.949" y="1082.98"/>
      <point x="415.949" y="1082.98" type="curve" smooth="yes"/>
      <point x="450.949" y="1082.98"/>
      <point x="466.944" y="1064.94"/>
    </contour>
    <contour>
      <point x="524.083" y="869.99" type="curve" smooth="yes"/>
      <point x="524.083" y="835.99"/>
      <point x="508.088" y="816.947"/>
      <point x="473.088" y="816.947" type="curve" smooth="yes" name=".hr01"/>
      <point x="438.088" y="816.947"/>
      <point x="420.045" y="835.99"/>
      <point x="420.045" y="869.99" type="curve" smooth="yes"/>
      <point x="420.045" y="904.99"/>
      <point x="438.088" y="922.009"/>
      <point x="473.088" y="922.009" type="curve" smooth="yes"/>
      <point x="508.088" y="922.009"/>
      <point x="524.083" y="904.99"/>
    </contour>
    <contour>
      <point x="550.912" y="684.032" type="curve" smooth="yes"/>
      <point x="550.912" y="649.032"/>
      <point x="532.073" y="633.037"/>
      <point x="498.073" y="633.037" type="curve" smooth="yes"/>
      <point x="463.073" y="633.037" name=".hr02"/>
      <point x="446.054" y="649.032"/>
      <point x="446.054" y="684.032" type="curve" smooth="yes"/>
      <point x="446.054" y="719.032"/>
      <point x="463.073" y="737.075"/>
      <point x="498.073" y="737.075" type="curve" smooth="yes"/>
      <point x="532.073" y="737.075"/>
      <point x="550.912" y="719.032"/>
    </contour>
    <contour>
      <point x="524.083" y="482.918" type="curve" smooth="yes"/>
      <point x="524.083" y="448.918"/>
      <point x="508.088" y="431.923"/>
      <point x="473.088" y="431.923" type="curve" smooth="yes"/>
      <point x="438.088" y="431.923"/>
      <point x="420.045" y="448.918" name=".hr03"/>
      <point x="420.045" y="482.918" type="curve" smooth="yes"/>
      <point x="420.045" y="517.918"/>
      <point x="438.088" y="536.985"/>
      <point x="473.088" y="536.985" type="curve" smooth="yes"/>
      <point x="508.088" y="536.985"/>
      <point x="524.083" y="517.918"/>
    </contour>
    <contour>
      <point x="466.944" y="323.993" type="curve" smooth="yes"/>
      <point x="466.944" y="288.993"/>
      <point x="450.949" y="269.927"/>
      <point x="415.949" y="269.927" type="curve" smooth="yes"/>
      <point x="380.949" y="269.927"/>
      <point x="362.087" y="288.993"/>
      <point x="362.087" y="323.993" type="curve" smooth="yes" name=".hr04"/>
      <point x="362.087" y="357.993"/>
      <point x="380.949" y="374.989"/>
      <point x="415.949" y="374.989" type="curve" smooth="yes"/>
      <point x="450.949" y="374.989"/>
      <point x="466.944" y="357.993"/>
    </contour>
    <contour>
      <point x="377.037" y="177.971" type="curve" smooth="yes"/>
      <point x="377.037" y="142.971"/>
      <point x="357.993" y="124.928"/>
      <point x="323.993" y="124.928" type="curve" smooth="yes"/>
      <point x="288.993" y="124.928"/>
      <point x="271.974" y="142.971"/>
      <point x="271.974" y="177.971" type="curve" smooth="yes"/>
      <point x="271.974" y="212.971"/>
      <point x="288.993" y="228.967"/>
      <point x="323.993" y="228.967" type="curve" smooth="yes"/>
      <point x="357.993" y="228.967"/>
      <point x="377.037" y="212.971"/>
    </contour>
    <contour>
      <point x="271.974" y="53.0433" type="curve" smooth="yes"/>
      <point x="271.974" y="18.0433"/>
      <point x="253.931" y="0"/>
      <point x="218.931" y="0" type="curve" smooth="yes"/>
      <point x="183.931" y="0"/>
      <point x="167.936" y="18.0432"/>
      <point x="167.936" y="53.0432" type="curve" smooth="yes"/>
      <point x="167.936" y="88.0432"/>
      <point x="183.931" y="104.038"/>
      <point x="218.931" y="104.038" type="curve" smooth="yes"/>
      <point x="253.931" y="104.038"/>
      <point x="271.974" y="88.0432"/>
    </contour>
  </outline>
</glyph>
<glyph name="plus" format="2">
  <advance width="1024"/>
  <unicode hex="002B"/>
  <outline>
    <contour>
      <point x="862.003" y="689.971" type="curve" smooth="yes"/>
      <point x="862.003" y="654.971"/>
      <point x="843.96" y="636.928"/>
      <point x="808.96" y="636.928" type="curve" smooth="yes"/>
      <point x="773.96" y="636.928"/>
      <point x="757.965" y="654.971"/>
      <point x="757.965" y="689.971" type="curve" smooth="yes"/>
      <point x="757.965" y="724.971"/>
      <point x="773.96" y="740.967"/>
      <point x="808.96" y="740.967" type="curve" smooth="yes"/>
      <point x="843.96" y="740.967"/>
      <point x="862.003" y="724.971"/>
    </contour>
    <contour>
      <point x="562.995" y="986.931" type="curve" smooth="yes"/>
      <point x="562.995" y="951.931"/>
      <point x="544.952" y="934.093"/>
      <point x="509.952" y="934.093" type="curve" smooth="yes"/>
      <point x="474.952" y="934.093"/>
      <point x="458.957" y="951.931"/>
      <point x="458.957" y="986.931" type="curve" smooth="yes"/>
      <point x="458.957" y="1021.93"/>
      <point x="474.952" y="1037.93"/>
      <point x="509.952" y="1037.93" type="curve" smooth="yes"/>
      <point x="544.952" y="1037.93"/>
      <point x="562.995" y="1021.93"/>
    </contour>
    <contour>
      <point x="656.998" y="689.971" type="curve" smooth="yes"/>
      <point x="656.998" y="654.971"/>
      <point x="638.955" y="636.928" name=".hr01"/>
      <point x="603.955" y="636.928" type="curve" smooth="yes"/>
      <point x="568.955" y="636.928"/>
      <point x="552.96" y="654.971"/>
      <point x="552.96" y="689.971" type="curve" smooth="yes"/>
      <point x="552.96" y="724.971"/>
      <point x="568.955" y="740.967"/>
      <point x="603.955" y="740.967" type="curve" smooth="yes"/>
      <point x="638.955" y="740.967"/>
      <point x="656.998" y="724.971"/>
    </contour>
    <contour>
      <point x="562.995" y="781.927" type="curve" smooth="yes"/>
      <point x="562.995" y="747.927"/>
      <point x="544.952" y="729.088"/>
      <point x="509.952" y="729.088" type="curve" smooth="yes" name=".hr02"/>
      <point x="474.952" y="729.088"/>
      <point x="458.957" y="747.927"/>
      <point x="458.957" y="781.927" type="curve" smooth="yes"/>
      <point x="458.957" y="816.927"/>
      <point x="474.952" y="833.946"/>
      <point x="509.952" y="833.946" type="curve" smooth="yes"/>
      <point x="544.952" y="833.946"/>
      <point x="562.995" y="816.927"/>
    </contour>
    <contour>
      <point x="453.017" y="689.971" type="curve" smooth="yes"/>
      <point x="453.017" y="654.971"/>
      <point x="433.95" y="636.928"/>
      <point x="398.95" y="636.928" type="curve" smooth="yes"/>
      <point x="364.95" y="636.928"/>
      <point x="347.955" y="654.971"/>
      <point x="347.955" y="689.971" type="curve" smooth="yes" name=".hr03"/>
      <point x="347.955" y="724.971"/>
      <point x="364.95" y="740.967"/>
      <point x="398.95" y="740.967" type="curve" smooth="yes"/>
      <point x="433.95" y="740.967"/>
      <point x="453.017" y="724.971"/>
    </contour>
    <contour>
      <point x="562.995" y="577.945" type="curve" smooth="yes"/>
      <point x="562.995" y="542.945"/>
      <point x="544.952" y="524.083"/>
      <point x="509.952" y="524.083" type="curve" smooth="yes"/>
      <point x="474.952" y="524.083"/>
      <point x="458.957" y="542.945"/>
      <point x="458.957" y="577.945" type="curve" smooth="yes"/>
      <point x="458.957" y="611.945"/>
      <point x="474.952" y="628.941"/>
      <point x="509.952" y="628.941" type="curve" smooth="yes"/>
      <point x="544.952" y="628.941"/>
      <point x="562.995" y="611.945"/>
    </contour>
    <contour>
      <point x="248.013" y="689.971" type="curve" smooth="yes"/>
      <point x="248.013" y="654.971"/>
      <point x="228.97" y="636.928"/>
      <point x="194.97" y="636.928" type="curve" smooth="yes"/>
      <point x="159.97" y="636.928"/>
      <point x="142.951" y="654.971"/>
      <point x="142.951" y="689.971" type="curve" smooth="yes"/>
      <point x="142.951" y="724.971"/>
      <point x="159.97" y="740.967"/>
      <point x="194.97" y="740.967" type="curve" smooth="yes"/>
      <point x="228.97" y="740.967"/>
      <point x="248.013" y="724.971"/>
    </contour>
    <contour>
      <point x="562.995" y="372.941" type="curve" smooth="yes"/>
      <point x="562.995" y="337.941"/>
      <point x="544.952" y="319.078"/>
      <point x="509.952" y="319.078" type="curve" smooth="yes"/>
      <point x="474.952" y="319.078"/>
      <point x="458.957" y="337.941"/>
      <point x="458.957" y="372.941" type="curve" smooth="yes"/>
      <point x="458.957" y="407.941"/>
      <point x="474.952" y="423.936"/>
      <point x="509.952" y="423.936" type="curve" smooth="yes"/>
      <point x="544.952" y="423.936"/>
      <point x="562.995" y="407.941"/>
    </contour>
  </outline>
</glyph>
<glyph name="period" format="2">
  <advance width="307"/>
  <unicode hex="002E"/>
  <outline>
    <contour>
      <point x="180.019" y="58.9825" type="curve" smooth="yes"/>
      <point x="180.019" y="19.9825"/>
      <point x="160.037" y="0"/>
      <point x="121.037" y="0" type="curve" smooth="yes"/>
      <point x="82.0368" y="0"/>
      <point x="61.0305" y="19.9825"/>
      <point x="61.0305" y="58.9825" type="curve" smooth="yes"/>
      <point x="61.0305" y="97.9825"/>
      <point x="82.0368" y="118.989"/>
      <point x="121.037" y="118.989" type="curve" smooth="yes"/>
      <point x="160.037" y="118.989"/>
      <point x="180.019" y="97.9825"/>
    </contour>
  </outline>
</glyph>
<glyph name="slash" format="2">
  <advance width="1024"/>
  <unicode hex="002F"/>
  <outline>
    <contour>
      <point x="840.089" y="1236.99" type="curve" smooth="yes"/>
      <point x="840.089" y="1201.99"/>
      <point x="823.07" y="1186"/>
      <point x="788.07" y="1186" type="curve" smooth="yes"/>
      <point x="754.07" y="1186"/>
      <point x="735.027" y="1201.99"/>
      <point x="735.027" y="1236.99" type="curve" smooth="yes"/>
      <point x="735.027" y="1271.99"/>
      <point x="754.07" y="1290.04"/>
      <point x="788.07" y="1290.04" type="curve" smooth="yes"/>
      <point x="823.07" y="1290.04"/>
      <point x="840.089" y="1271.99"/>
    </contour>
    <contour>
      <point x="760.013" y="1069.06" type="curve" smooth="yes"/>
      <point x="760.013" y="1034.06"/>
      <point x="743.018" y="1018.06"/>
      <point x="709.018" y="1018.06" type="curve" smooth="yes"/>
      <point x="674.018" y="1018.06"/>
      <point x="654.951" y="1034.06"/>
      <point x="654.951" y="1069.06" type="curve" smooth="yes" name=".hr01"/>
      <point x="654.951" y="1104.06"/>
      <point x="674.018" y="1122.1"/>
      <point x="709.018" y="1122.1" type="curve" smooth="yes"/>
      <point x="743.018" y="1122.1"/>
      <point x="760.013" y="1104.06"/>
    </contour>
    <contour>
      <point x="673.997" y="879.002" type="curve" smooth="yes"/>
      <point x="673.997" y="844.002"/>
      <point x="657.002" y="826.983" name=".hr02"/>
      <point x="623.002" y="826.983" type="curve" smooth="yes"/>
      <point x="588.002" y="826.983"/>
      <point x="568.935" y="844.002"/>
      <point x="568.935" y="879.002" type="curve" smooth="yes"/>
      <point x="568.935" y="913.002"/>
      <point x="588.002" y="932.045"/>
      <point x="623.002" y="932.045" type="curve" smooth="yes"/>
      <point x="657.002" y="932.045"/>
      <point x="673.997" y="913.002"/>
    </contour>
    <contour>
      <point x="585.933" y="676.045" type="curve" smooth="yes"/>
      <point x="585.933" y="641.045"/>
      <point x="568.937" y="625.049"/>
      <point x="534.937" y="625.049" type="curve" smooth="yes"/>
      <point x="499.937" y="625.049"/>
      <point x="481.075" y="641.045"/>
      <point x="481.075" y="676.045" type="curve" smooth="yes"/>
      <point x="481.075" y="711.045"/>
      <point x="499.937" y="729.088"/>
      <point x="534.937" y="729.088" type="curve" smooth="yes"/>
      <point x="568.937" y="729.088"/>
      <point x="585.933" y="711.045"/>
    </contour>
    <contour>
      <point x="481.075" y="461.005" type="curve" smooth="yes"/>
      <point x="481.075" y="426.005"/>
      <point x="465.08" y="410.01"/>
      <point x="430.08" y="410.01" type="curve" smooth="yes"/>
      <point x="395.08" y="410.01"/>
      <point x="377.037" y="426.005"/>
      <point x="377.037" y="461.005" type="curve" smooth="yes"/>
      <point x="377.037" y="496.005"/>
      <point x="395.08" y="514.048"/>
      <point x="430.08" y="514.048" type="curve" smooth="yes"/>
      <point x="465.08" y="514.048"/>
      <point x="481.075" y="496.005"/>
    </contour>
    <contour>
      <point x="379.085" y="253.952" type="curve" smooth="yes"/>
      <point x="379.085" y="218.952"/>
      <point x="362.089" y="202.957"/>
      <point x="328.089" y="202.957" type="curve" smooth="yes"/>
      <point x="293.089" y="202.957"/>
      <point x="274.022" y="218.952"/>
      <point x="274.022" y="253.952" type="curve" smooth="yes"/>
      <point x="274.022" y="288.952"/>
      <point x="293.089" y="306.995"/>
      <point x="328.089" y="306.995" type="curve" smooth="yes"/>
      <point x="362.089" y="306.995" name=".hr03"/>
      <point x="379.085" y="288.952"/>
    </contour>
    <contour>
      <point x="288.973" y="53.0433" type="curve" smooth="yes"/>
      <point x="288.973" y="18.0433"/>
      <point x="269.929" y="0"/>
      <point x="235.929" y="0" type="curve" smooth="yes"/>
      <point x="200.929" y="0"/>
      <point x="183.91" y="18.0432"/>
      <point x="183.91" y="53.0432" type="curve" smooth="yes" name=".hr04"/>
      <point x="183.91" y="88.0432"/>
      <point x="200.929" y="104.038"/>
      <point x="235.929" y="104.038" type="curve" smooth="yes"/>
      <point x="269.929" y="104.038"/>
      <point x="288.973" y="88.0432"/>
    </contour>
  </outline>
</glyph>
<glyph name="zero" format="2">
  <advance width="1024"/>
  <unicode hex="0030"/>
  <outline>
    <contour>
      <point x="786.023" y="1218.97" type="curve" smooth="yes"/>
      <point x="786.023" y="1183.97"/>
      <point x="767.979" y="1164.9"/>
      <point x="732.979" y="1164.9" type="curve" smooth="yes"/>
      <point x="697.979" y="1164.9"/>
      <point x="681.984" y="1183.97"/>
      <point x="681.984" y="1218.97" type="curve" smooth="yes"/>
      <point x="681.984" y="1252.97"/>
      <point x="697.979" y="1269.96"/>
      <point x="732.979" y="1269.96" type="curve" smooth="yes"/>
      <point x="767.979" y="1269.96"/>
      <point x="786.023" y="1252.97"/>
    </contour>
    <contour>
      <point x="910.951" y="1046.94" type="curve" smooth="yes"/>
      <point x="910.951" y="1011.94"/>
      <point x="894.955" y="993.075"/>
      <point x="859.955" y="993.075" type="curve" smooth="yes"/>
      <point x="824.955" y="993.075"/>
      <point x="806.912" y="1011.94"/>
      <point x="806.912" y="1046.94" type="curve" smooth="yes"/>
      <point x="806.912" y="1080.94"/>
      <point x="824.955" y="1097.93"/>
      <point x="859.955" y="1097.93" type="curve" smooth="yes"/>
      <point x="894.955" y="1097.93"/>
      <point x="910.951" y="1080.94"/>
    </contour>
    <contour>
      <point x="628.941" y="1266.07" type="curve" smooth="yes"/>
      <point x="628.941" y="1214.07"/>
      <point x="587.985" y="1173.91"/>
      <point x="536.985" y="1173.91" type="curve" smooth="yes"/>
      <point x="484.985" y="1173.91" name=".hr01"/>
      <point x="444.006" y="1214.07"/>
      <point x="444.006" y="1266.07" type="curve" smooth="yes"/>
      <point x="444.006" y="1317.07"/>
      <point x="484.985" y="1358.03"/>
      <point x="536.985" y="1358.03" type="curve" smooth="yes"/>
      <point x="587.985" y="1358.03"/>
      <point x="628.941" y="1317.07"/>
    </contour>
    <contour>
      <point x="977.101" y="846.029" type="curve" smooth="yes"/>
      <point x="977.101" y="811.029"/>
      <point x="958.058" y="792.985"/>
      <point x="924.058" y="792.985" type="curve" smooth="yes"/>
      <point x="889.058" y="792.985"/>
      <point x="872.039" y="811.029"/>
      <point x="872.039" y="846.029" type="curve" smooth="yes"/>
      <point x="872.039" y="881.029"/>
      <point x="889.058" y="897.024"/>
      <point x="924.058" y="897.024" type="curve" smooth="yes"/>
      <point x="958.058" y="897.024"/>
      <point x="977.101" y="881.029"/>
    </contour>
    <contour>
      <point x="980.992" y="623.002" type="curve" smooth="yes"/>
      <point x="980.992" y="588.002"/>
      <point x="962.949" y="568.935"/>
      <point x="927.949" y="568.935" type="curve" smooth="yes"/>
      <point x="892.949" y="568.935"/>
      <point x="876.954" y="588.002"/>
      <point x="876.954" y="623.002" type="curve" smooth="yes"/>
      <point x="876.954" y="657.002"/>
      <point x="892.949" y="673.997"/>
      <point x="927.949" y="673.997" type="curve" smooth="yes"/>
      <point x="962.949" y="673.997"/>
      <point x="980.992" y="657.002"/>
    </contour>
    <contour>
      <point x="369.049" y="1234.94" type="curve" smooth="yes"/>
      <point x="369.049" y="1199.94"/>
      <point x="349.983" y="1181.9"/>
      <point x="314.983" y="1181.9" type="curve" smooth="yes"/>
      <point x="280.983" y="1181.9"/>
      <point x="263.987" y="1199.94"/>
      <point x="263.987" y="1234.94" type="curve" smooth="yes"/>
      <point x="263.987" y="1269.94" name=".hr02"/>
      <point x="280.983" y="1285.94"/>
      <point x="314.983" y="1285.94" type="curve" smooth="yes"/>
      <point x="349.983" y="1285.94"/>
      <point x="369.049" y="1269.94"/>
    </contour>
    <contour>
      <point x="937.984" y="382.976" type="curve" smooth="yes" name=".hr03"/>
      <point x="937.984" y="347.976" name=".hr04"/>
      <point x="919.941" y="329.933"/>
      <point x="884.941" y="329.933" type="curve" smooth="yes"/>
      <point x="849.941" y="329.933" name=".hr05"/>
      <point x="833.946" y="347.976"/>
      <point x="833.946" y="382.976" type="curve" smooth="yes"/>
      <point x="833.946" y="417.976"/>
      <point x="849.941" y="433.971"/>
      <point x="884.941" y="433.971" type="curve" smooth="yes"/>
      <point x="919.941" y="433.971"/>
      <point x="937.984" y="417.976"/>
    </contour>
    <contour>
      <point x="237.977" y="1075" type="curve" smooth="yes"/>
      <point x="237.977" y="1040"/>
      <point x="218.91" y="1021.95"/>
      <point x="183.91" y="1021.95" type="curve" smooth="yes"/>
      <point x="149.91" y="1021.95"/>
      <point x="132.915" y="1040"/>
      <point x="132.915" y="1075" type="curve" smooth="yes"/>
      <point x="132.915" y="1110"/>
      <point x="149.91" y="1125.99"/>
      <point x="183.91" y="1125.99" type="curve" smooth="yes"/>
      <point x="218.91" y="1125.99"/>
      <point x="237.977" y="1110" name=".hr06"/>
    </contour>
    <contour>
      <point x="161.997" y="854.016" type="curve" smooth="yes" name=".hr07"/>
      <point x="161.997" y="819.016"/>
      <point x="142.954" y="800.973"/>
      <point x="108.954" y="800.973" type="curve" smooth="yes" name=".hr08"/>
      <point x="73.9535" y="800.973"/>
      <point x="56.9345" y="819.016"/>
      <point x="56.9345" y="854.016" type="curve" smooth="yes" name=".hr09"/>
      <point x="56.9345" y="889.016"/>
      <point x="73.9535" y="905.011" name=".hr10"/>
      <point x="108.954" y="905.011" type="curve" smooth="yes"/>
      <point x="142.954" y="905.011"/>
      <point x="161.997" y="889.016"/>
    </contour>
    <contour>
      <point x="806.912" y="157.901" type="curve" smooth="yes"/>
      <point x="806.912" y="122.901"/>
      <point x="788.073" y="104.039"/>
      <point x="754.073" y="104.039" type="curve" smooth="yes"/>
      <point x="719.073" y="104.039"/>
      <point x="702.054" y="122.901"/>
      <point x="702.054" y="157.901" type="curve" smooth="yes"/>
      <point x="702.054" y="192.901"/>
      <point x="719.073" y="209.101"/>
      <point x="754.073" y="209.101" type="curve" smooth="yes"/>
      <point x="788.073" y="209.101"/>
      <point x="806.912" y="192.901"/>
    </contour>
    <contour>
      <point x="149.913" y="613.99" type="curve" smooth="yes"/>
      <point x="149.913" y="579.99"/>
      <point x="131.051" y="560.947"/>
      <point x="96.0512" y="560.947" type="curve" smooth="yes"/>
      <point x="61.0512" y="560.947"/>
      <point x="45.056" y="579.99"/>
      <point x="45.056" y="613.99" type="curve" smooth="yes"/>
      <point x="45.056" y="648.99"/>
      <point x="61.0512" y="666.009"/>
      <point x="96.0512" y="666.009" type="curve" smooth="yes"/>
      <point x="131.051" y="666.009" name=".hr11"/>
      <point x="149.913" y="648.99"/>
    </contour>
    <contour>
      <point x="567.091" y="53.0433" type="curve" smooth="yes"/>
      <point x="567.091" y="18.0433"/>
      <point x="549.048" y="0"/>
      <point x="514.048" y="0" type="curve" smooth="yes"/>
      <point x="479.048" y="0"/>
      <point x="463.053" y="18.0432"/>
      <point x="463.053" y="53.0432" type="curve" smooth="yes"/>
      <point x="463.053" y="88.0432"/>
      <point x="479.048" y="104.038"/>
      <point x="514.048" y="104.038" type="curve" smooth="yes"/>
      <point x="549.048" y="104.038"/>
      <point x="567.091" y="88.0432"/>
    </contour>
    <contour>
      <point x="190.055" y="390.963" type="curve" smooth="yes"/>
      <point x="190.055" y="355.963"/>
      <point x="172.011" y="337.92"/>
      <point x="137.011" y="337.92" type="curve" smooth="yes"/>
      <point x="102.011" y="337.92"/>
      <point x="86.016" y="355.963"/>
      <point x="86.016" y="390.963" type="curve" smooth="yes"/>
      <point x="86.016" y="425.963"/>
      <point x="102.011" y="441.959"/>
      <point x="137.011" y="441.959" type="curve" smooth="yes"/>
      <point x="172.011" y="441.959"/>
      <point x="190.055" y="425.963"/>
    </contour>
    <contour>
      <point x="311.091" y="164.045" type="curve" smooth="yes" name=".hr12"/>
      <point x="311.091" y="129.045"/>
      <point x="295.096" y="111.002"/>
      <point x="260.096" y="111.002" type="curve" smooth="yes"/>
      <point x="225.096" y="111.002"/>
      <point x="207.053" y="129.045"/>
      <point x="207.053" y="164.045" type="curve" smooth="yes"/>
      <point x="207.053" y="199.045"/>
      <point x="225.096" y="215.04"/>
      <point x="260.096" y="215.04" type="curve" smooth="yes"/>
      <point x="295.096" y="215.04"/>
      <point x="311.091" y="199.045"/>
    </contour>
    <contour>
      <point x="608.051" y="1266.07" type="curve" smooth="yes"/>
      <point x="608.051" y="1305.07"/>
      <point x="574.986" y="1336.93"/>
      <point x="536.986" y="1336.93" type="curve" smooth="yes"/>
      <point x="497.986" y="1336.93"/>
      <point x="465.101" y="1305.07"/>
      <point x="465.101" y="1266.07" type="curve" smooth="yes"/>
      <point x="465.101" y="1227.07"/>
      <point x="497.986" y="1193.98"/>
      <point x="536.986" y="1193.98" type="curve" smooth="yes"/>
      <point x="574.986" y="1193.98"/>
      <point x="608.051" y="1227.07"/>
    </contour>
  </outline>
</glyph>
<glyph name="one" format="2">
  <advance width="1024"/>
  <unicode hex="0031"/>
  <outline>
    <contour>
      <point x="606.003" y="1266.07" type="curve" smooth="yes"/>
      <point x="606.003" y="1214.07"/>
      <point x="565.048" y="1173.91"/>
      <point x="514.048" y="1173.91" type="curve" smooth="yes"/>
      <point x="463.048" y="1173.91"/>
      <point x="422.093" y="1214.07"/>
      <point x="422.093" y="1266.07" type="curve" smooth="yes"/>
      <point x="422.093" y="1317.07"/>
      <point x="463.048" y="1358.03"/>
      <point x="514.048" y="1358.03" type="curve" smooth="yes"/>
      <point x="565.048" y="1358.03"/>
      <point x="606.003" y="1317.07"/>
    </contour>
    <contour>
      <point x="567.091" y="1069.06" type="curve" smooth="yes"/>
      <point x="567.091" y="1034.06"/>
      <point x="549.048" y="1016.01"/>
      <point x="514.048" y="1016.01" type="curve" smooth="yes"/>
      <point x="479.048" y="1016.01"/>
      <point x="463.053" y="1034.06"/>
      <point x="463.053" y="1069.06" type="curve" smooth="yes"/>
      <point x="463.053" y="1104.06"/>
      <point x="479.048" y="1120.05"/>
      <point x="514.048" y="1120.05" type="curve" smooth="yes"/>
      <point x="549.048" y="1120.05"/>
      <point x="567.091" y="1104.06"/>
    </contour>
    <contour>
      <point x="567.091" y="864.051" type="curve" smooth="yes"/>
      <point x="567.091" y="829.051"/>
      <point x="549.048" y="811.008"/>
      <point x="514.048" y="811.008" type="curve" smooth="yes"/>
      <point x="479.048" y="811.008"/>
      <point x="463.053" y="829.051"/>
      <point x="463.053" y="864.051" type="curve" smooth="yes"/>
      <point x="463.053" y="899.051"/>
      <point x="479.048" y="915.047"/>
      <point x="514.048" y="915.047" type="curve" smooth="yes"/>
      <point x="549.048" y="915.047"/>
      <point x="567.091" y="899.051"/>
    </contour>
    <contour>
      <point x="567.091" y="659.047" type="curve" smooth="yes"/>
      <point x="567.091" y="625.047"/>
      <point x="549.048" y="606.003"/>
      <point x="514.048" y="606.003" type="curve" smooth="yes"/>
      <point x="479.048" y="606.003"/>
      <point x="463.053" y="625.047"/>
      <point x="463.053" y="659.047" type="curve" smooth="yes"/>
      <point x="463.053" y="694.047"/>
      <point x="479.048" y="711.066"/>
      <point x="514.048" y="711.066" type="curve" smooth="yes"/>
      <point x="549.048" y="711.066"/>
      <point x="567.091" y="694.047"/>
    </contour>
    <contour>
      <point x="567.091" y="455.065" type="curve" smooth="yes"/>
      <point x="567.091" y="420.065"/>
      <point x="549.048" y="400.998"/>
      <point x="514.048" y="400.998" type="curve" smooth="yes"/>
      <point x="479.048" y="400.998"/>
      <point x="463.053" y="420.065"/>
      <point x="463.053" y="455.065" type="curve" smooth="yes"/>
      <point x="463.053" y="489.065"/>
      <point x="479.048" y="506.061"/>
      <point x="514.048" y="506.061" type="curve" smooth="yes"/>
      <point x="549.048" y="506.061"/>
      <point x="567.091" y="489.065"/>
    </contour>
    <contour>
      <point x="567.091" y="250.061" type="curve" smooth="yes"/>
      <point x="567.091" y="215.061"/>
      <point x="549.048" y="197.017"/>
      <point x="514.048" y="197.017" type="curve" smooth="yes"/>
      <point x="479.048" y="197.017"/>
      <point x="463.053" y="215.061"/>
      <point x="463.053" y="250.061" type="curve" smooth="yes"/>
      <point x="463.053" y="285.061"/>
      <point x="479.048" y="301.056"/>
      <point x="514.048" y="301.056" type="curve" smooth="yes"/>
      <point x="549.048" y="301.056"/>
      <point x="567.091" y="285.061"/>
    </contour>
    <contour>
      <point x="567.091" y="45.056" type="curve" smooth="yes"/>
      <point x="567.091" y="10.056"/>
      <point x="549.048" y="-7.98725"/>
      <point x="514.048" y="-7.98725" type="curve" smooth="yes"/>
      <point x="479.048" y="-7.98725"/>
      <point x="463.053" y="10.056"/>
      <point x="463.053" y="45.056" type="curve" smooth="yes"/>
      <point x="463.053" y="80.056"/>
      <point x="479.048" y="96.0512"/>
      <point x="514.048" y="96.0512" type="curve" smooth="yes"/>
      <point x="549.048" y="96.0512"/>
      <point x="567.091" y="80.056"/>
    </contour>
    <contour>
      <point x="585.933" y="1266.07" type="curve" smooth="yes"/>
      <point x="585.933" y="1305.07"/>
      <point x="553.048" y="1336.93"/>
      <point x="514.048" y="1336.93" type="curve" smooth="yes"/>
      <point x="475.048" y="1336.93"/>
      <point x="441.958" y="1305.07"/>
      <point x="441.958" y="1266.07" type="curve" smooth="yes"/>
      <point x="441.958" y="1227.07"/>
      <point x="475.048" y="1193.98"/>
      <point x="514.048" y="1193.98" type="curve" smooth="yes"/>
      <point x="553.048" y="1193.98"/>
      <point x="585.933" y="1227.07"/>
    </contour>
  </outline>
</glyph>
<glyph name="two" format="2">
  <advance width="1024"/>
  <unicode hex="0032"/>
  <outline>
    <contour>
      <point x="783.974" y="1175.96" type="curve" smooth="yes"/>
      <point x="783.974" y="1140.96"/>
      <point x="765.931" y="1122.1"/>
      <point x="730.931" y="1122.1" type="curve" smooth="yes"/>
      <point x="695.931" y="1122.1"/>
      <point x="679.936" y="1140.96"/>
      <point x="679.936" y="1175.96" type="curve" smooth="yes"/>
      <point x="679.936" y="1209.96"/>
      <point x="695.931" y="1226.96"/>
      <point x="730.931" y="1226.96" type="curve" smooth="yes"/>
      <point x="765.931" y="1226.96"/>
      <point x="783.974" y="1209.96"/>
    </contour>
    <contour>
      <point x="575.078" y="1280" type="curve" smooth="yes"/>
      <point x="575.078" y="1245"/>
      <point x="557.035" y="1226.96"/>
      <point x="522.035" y="1226.96" type="curve" smooth="yes"/>
      <point x="487.035" y="1226.96"/>
      <point x="471.04" y="1245"/>
      <point x="471.04" y="1280" type="curve" smooth="yes"/>
      <point x="471.04" y="1315"/>
      <point x="487.035" y="1331"/>
      <point x="522.035" y="1331" type="curve" smooth="yes"/>
      <point x="557.035" y="1331"/>
      <point x="575.078" y="1315"/>
    </contour>
    <contour>
      <point x="813.056" y="945.971" type="curve" smooth="yes"/>
      <point x="813.056" y="910.971"/>
      <point x="795.013" y="892.928" name=".hr01"/>
      <point x="760.013" y="892.928" type="curve" smooth="yes"/>
      <point x="725.013" y="892.928"/>
      <point x="709.018" y="910.971"/>
      <point x="709.018" y="945.971" type="curve" smooth="yes"/>
      <point x="709.018" y="980.971"/>
      <point x="725.013" y="996.967"/>
      <point x="760.013" y="996.967" type="curve" smooth="yes"/>
      <point x="795.013" y="996.967"/>
      <point x="813.056" y="980.971"/>
    </contour>
    <contour>
      <point x="364.953" y="1218.97" type="curve" smooth="yes"/>
      <point x="364.953" y="1183.97"/>
      <point x="346.091" y="1164.9"/>
      <point x="311.091" y="1164.9" type="curve" smooth="yes"/>
      <point x="276.091" y="1164.9"/>
      <point x="260.096" y="1183.97" name=".hr02"/>
      <point x="260.096" y="1218.97" type="curve" smooth="yes"/>
      <point x="260.096" y="1252.97" name=".hr03"/>
      <point x="276.091" y="1269.96" name=".hr04"/>
      <point x="311.091" y="1269.96" type="curve" smooth="yes"/>
      <point x="346.091" y="1269.96"/>
      <point x="364.953" y="1252.97" name=".hr05"/>
    </contour>
    <contour>
      <point x="714.957" y="754.073" type="curve" smooth="yes"/>
      <point x="714.957" y="719.073" name=".hr06"/>
      <point x="695.913" y="700.006" name=".hr07"/>
      <point x="661.913" y="700.006" type="curve" smooth="yes"/>
      <point x="626.913" y="700.006"/>
      <point x="610.099" y="719.073"/>
      <point x="610.099" y="754.073" type="curve" smooth="yes"/>
      <point x="610.099" y="788.073"/>
      <point x="626.913" y="805.069"/>
      <point x="661.913" y="805.069" type="curve" smooth="yes"/>
      <point x="695.913" y="805.069"/>
      <point x="714.957" y="788.073"/>
    </contour>
    <contour>
      <point x="296.96" y="1077.04" type="curve" smooth="yes"/>
      <point x="296.96" y="1026.04"/>
      <point x="256.005" y="985.088"/>
      <point x="205.005" y="985.088" type="curve" smooth="yes"/>
      <point x="154.005" y="985.088"/>
      <point x="113.049" y="1026.04" name=".hr08"/>
      <point x="113.049" y="1077.04" type="curve" smooth="yes"/>
      <point x="113.049" y="1128.04"/>
      <point x="154.005" y="1169"/>
      <point x="205.005" y="1169" type="curve" smooth="yes"/>
      <point x="256.005" y="1169"/>
      <point x="296.96" y="1128.04"/>
    </contour>
    <contour>
      <point x="587.981" y="575.078" type="curve" smooth="yes"/>
      <point x="587.981" y="541.078"/>
      <point x="568.938" y="522.035"/>
      <point x="534.938" y="522.035" type="curve" smooth="yes"/>
      <point x="499.938" y="522.035"/>
      <point x="482.919" y="541.078"/>
      <point x="482.919" y="575.078" type="curve" smooth="yes"/>
      <point x="482.919" y="610.078"/>
      <point x="499.938" y="627.097"/>
      <point x="534.938" y="627.097" type="curve" smooth="yes"/>
      <point x="568.938" y="627.097"/>
      <point x="587.981" y="610.078"/>
    </contour>
    <contour>
      <point x="854.016" y="50.9953" type="curve" smooth="yes"/>
      <point x="854.016" y="15.9953"/>
      <point x="838.021" y="-2.048"/>
      <point x="803.021" y="-2.048" type="curve" smooth="yes"/>
      <point x="768.021" y="-2.048"/>
      <point x="749.977" y="15.9953"/>
      <point x="749.977" y="50.9953" type="curve" smooth="yes"/>
      <point x="749.977" y="85.9953"/>
      <point x="768.021" y="104.038"/>
      <point x="803.021" y="104.038" type="curve" smooth="yes"/>
      <point x="838.021" y="104.038"/>
      <point x="854.016" y="85.9953"/>
    </contour>
    <contour>
      <point x="465.101" y="395.059" type="curve" smooth="yes"/>
      <point x="465.101" y="360.059"/>
      <point x="446.057" y="342.016"/>
      <point x="412.057" y="342.016" type="curve" smooth="yes"/>
      <point x="377.057" y="342.016"/>
      <point x="360.038" y="360.059"/>
      <point x="360.038" y="395.059" type="curve" smooth="yes"/>
      <point x="360.038" y="430.059"/>
      <point x="377.057" y="446.055"/>
      <point x="412.057" y="446.055" type="curve" smooth="yes"/>
      <point x="446.057" y="446.055"/>
      <point x="465.101" y="430.059"/>
    </contour>
    <contour>
      <point x="649.011" y="50.9953" type="curve" smooth="yes"/>
      <point x="649.011" y="15.9953"/>
      <point x="633.016" y="-2.048"/>
      <point x="598.016" y="-2.048" type="curve" smooth="yes"/>
      <point x="563.016" y="-2.048"/>
      <point x="544.973" y="15.9953"/>
      <point x="544.973" y="50.9953" type="curve" smooth="yes"/>
      <point x="544.973" y="85.9953"/>
      <point x="563.016" y="104.038"/>
      <point x="598.016" y="104.038" type="curve" smooth="yes" name=".hr09"/>
      <point x="633.016" y="104.038"/>
      <point x="649.011" y="85.9953"/>
    </contour>
    <contour>
      <point x="345.907" y="225.075" type="curve" smooth="yes"/>
      <point x="345.907" y="190.075"/>
      <point x="328.069" y="172.032"/>
      <point x="293.069" y="172.032" type="curve" smooth="yes"/>
      <point x="258.069" y="172.032"/>
      <point x="242.074" y="190.075"/>
      <point x="242.074" y="225.075" type="curve" smooth="yes"/>
      <point x="242.074" y="260.075"/>
      <point x="258.069" y="276.071"/>
      <point x="293.069" y="276.071" type="curve" smooth="yes"/>
      <point x="328.069" y="276.071"/>
      <point x="345.907" y="260.075"/>
    </contour>
    <contour>
      <point x="444.007" y="50.9953" type="curve" smooth="yes"/>
      <point x="444.007" y="15.9953"/>
      <point x="428.011" y="-2.048"/>
      <point x="393.011" y="-2.048" type="curve" smooth="yes"/>
      <point x="358.011" y="-2.048"/>
      <point x="339.968" y="15.9953"/>
      <point x="339.968" y="50.9953" type="curve" smooth="yes"/>
      <point x="339.968" y="85.9953"/>
      <point x="358.011" y="104.038"/>
      <point x="393.011" y="104.038" type="curve" smooth="yes"/>
      <point x="428.011" y="104.038"/>
      <point x="444.007" y="85.9953" name=".hr10"/>
    </contour>
    <contour>
      <point x="240.025" y="50.9953" type="curve" smooth="yes"/>
      <point x="240.025" y="15.9953"/>
      <point x="223.006" y="-2.048"/>
      <point x="188.006" y="-2.048" type="curve" smooth="yes"/>
      <point x="154.006" y="-2.048"/>
      <point x="134.963" y="15.9953"/>
      <point x="134.963" y="50.9953" type="curve" smooth="yes"/>
      <point x="134.963" y="85.9953"/>
      <point x="154.006" y="104.038"/>
      <point x="188.006" y="104.038" type="curve" smooth="yes"/>
      <point x="223.006" y="104.038"/>
      <point x="240.025" y="85.9953"/>
    </contour>
    <contour>
      <point x="276.07" y="1077.04" type="curve" smooth="yes"/>
      <point x="276.07" y="1116.04"/>
      <point x="244.005" y="1148.93"/>
      <point x="205.005" y="1148.93" type="curve" smooth="yes"/>
      <point x="166.005" y="1148.93"/>
      <point x="132.915" y="1116.04"/>
      <point x="132.915" y="1077.04" type="curve" smooth="yes"/>
      <point x="132.915" y="1038.04"/>
      <point x="166.005" y="1005.98"/>
      <point x="205.005" y="1005.98" type="curve" smooth="yes"/>
      <point x="244.005" y="1005.98"/>
      <point x="276.07" y="1038.04"/>
    </contour>
  </outline>
</glyph>
<glyph name="three" format="2">
  <advance width="1024"/>
  <unicode hex="0033"/>
  <outline>
    <contour>
      <point x="757.965" y="1221.02" type="curve" smooth="yes"/>
      <point x="757.965" y="1186.02"/>
      <point x="738.921" y="1166.95"/>
      <point x="704.921" y="1166.95" type="curve" smooth="yes"/>
      <point x="669.921" y="1166.95"/>
      <point x="652.902" y="1186.02"/>
      <point x="652.902" y="1221.02" type="curve" smooth="yes"/>
      <point x="652.902" y="1255.02"/>
      <point x="669.921" y="1272.01"/>
      <point x="704.921" y="1272.01" type="curve" smooth="yes"/>
      <point x="738.921" y="1272.01"/>
      <point x="757.965" y="1255.02"/>
    </contour>
    <contour>
      <point x="859.955" y="1094.04" type="curve" smooth="yes"/>
      <point x="859.955" y="1059.04" name=".hr01"/>
      <point x="841.912" y="1039.97"/>
      <point x="806.912" y="1039.97" type="curve" smooth="yes"/>
      <point x="771.912" y="1039.97"/>
      <point x="755.917" y="1059.04"/>
      <point x="755.917" y="1094.04" type="curve" smooth="yes"/>
      <point x="755.917" y="1128.04"/>
      <point x="771.912" y="1145.04" name=".hr02"/>
      <point x="806.912" y="1145.04" type="curve" smooth="yes"/>
      <point x="841.912" y="1145.04"/>
      <point x="859.955" y="1128.04"/>
    </contour>
    <contour>
      <point x="550.912" y="1282.05" type="curve" smooth="yes"/>
      <point x="550.912" y="1247.05"/>
      <point x="532.073" y="1229"/>
      <point x="498.073" y="1229" type="curve" smooth="yes"/>
      <point x="463.073" y="1229"/>
      <point x="446.054" y="1247.05"/>
      <point x="446.054" y="1282.05" type="curve" smooth="yes"/>
      <point x="446.054" y="1317.05"/>
      <point x="463.073" y="1333.04"/>
      <point x="498.073" y="1333.04" type="curve" smooth="yes"/>
      <point x="532.073" y="1333.04"/>
      <point x="550.912" y="1317.05"/>
    </contour>
    <contour>
      <point x="867.943" y="919.961" type="curve" smooth="yes"/>
      <point x="867.943" y="884.961"/>
      <point x="849.899" y="866.099"/>
      <point x="814.899" y="866.099" type="curve" smooth="yes" name=".hr03"/>
      <point x="779.899" y="866.099"/>
      <point x="763.904" y="884.961"/>
      <point x="763.904" y="919.961" type="curve" smooth="yes"/>
      <point x="763.904" y="953.961" name=".hr04"/>
      <point x="779.899" y="970.957" name=".hr05"/>
      <point x="814.899" y="970.957" type="curve" smooth="yes"/>
      <point x="849.899" y="970.957"/>
      <point x="867.943" y="953.961" name=".hr06"/>
    </contour>
    <contour>
      <point x="355.943" y="1206.07" type="curve" smooth="yes"/>
      <point x="355.943" y="1171.07"/>
      <point x="337.899" y="1153.02" name=".hr07"/>
      <point x="302.899" y="1153.02" type="curve" smooth="yes"/>
      <point x="267.899" y="1153.02"/>
      <point x="251.904" y="1171.07"/>
      <point x="251.904" y="1206.07" type="curve" smooth="yes"/>
      <point x="251.904" y="1241.07" name=".hr08"/>
      <point x="267.899" y="1257.06"/>
      <point x="302.899" y="1257.06" type="curve" smooth="yes" name=".hr09"/>
      <point x="337.899" y="1257.06"/>
      <point x="355.943" y="1241.07"/>
    </contour>
    <contour>
      <point x="781.927" y="763.904" type="curve" smooth="yes"/>
      <point x="781.927" y="728.904" name=".hr10"/>
      <point x="764.088" y="711.065"/>
      <point x="729.088" y="711.065" type="curve" smooth="yes" name=".hr11"/>
      <point x="694.088" y="711.065"/>
      <point x="678.093" y="728.904"/>
      <point x="678.093" y="763.904" type="curve" smooth="yes"/>
      <point x="678.093" y="798.904"/>
      <point x="694.088" y="814.899"/>
      <point x="729.088" y="814.899" type="curve" smooth="yes"/>
      <point x="764.088" y="814.899"/>
      <point x="781.927" y="798.904"/>
    </contour>
    <contour>
      <point x="780.083" y="595.968" type="curve" smooth="yes"/>
      <point x="780.083" y="560.968"/>
      <point x="762.04" y="542.925"/>
      <point x="727.04" y="542.925" type="curve" smooth="yes"/>
      <point x="692.04" y="542.925"/>
      <point x="676.045" y="560.968"/>
      <point x="676.045" y="595.968" type="curve" smooth="yes" name=".hr12"/>
      <point x="676.045" y="630.968"/>
      <point x="692.04" y="646.963"/>
      <point x="727.04" y="646.963" type="curve" smooth="yes"/>
      <point x="762.04" y="646.963"/>
      <point x="780.083" y="630.968"/>
    </contour>
    <contour>
      <point x="661.914" y="663.961" type="curve" smooth="yes"/>
      <point x="661.914" y="628.961"/>
      <point x="643.051" y="610.099"/>
      <point x="608.051" y="610.099" type="curve" smooth="yes"/>
      <point x="573.051" y="610.099"/>
      <point x="557.056" y="628.961"/>
      <point x="557.056" y="663.961" type="curve" smooth="yes"/>
      <point x="557.056" y="697.961"/>
      <point x="573.051" y="714.957"/>
      <point x="608.051" y="714.957" type="curve" smooth="yes" name=".hr13"/>
      <point x="643.051" y="714.957"/>
      <point x="661.914" y="697.961"/>
    </contour>
    <contour>
      <point x="302.899" y="1056.97" type="curve" smooth="yes" name=".hr14"/>
      <point x="302.899" y="1005.97"/>
      <point x="261.944" y="965.018"/>
      <point x="210.944" y="965.018" type="curve" smooth="yes"/>
      <point x="159.944" y="965.018"/>
      <point x="118.989" y="1005.97" name=".hr15"/>
      <point x="118.989" y="1056.97" type="curve" smooth="yes" name=".hr16"/>
      <point x="118.989" y="1107.97"/>
      <point x="159.944" y="1148.93"/>
      <point x="210.944" y="1148.93" type="curve" smooth="yes"/>
      <point x="261.944" y="1148.93"/>
      <point x="302.899" y="1107.97"/>
    </contour>
    <contour>
      <point x="869.99" y="444.007" type="curve" smooth="yes"/>
      <point x="869.99" y="410.007"/>
      <point x="851.947" y="390.963"/>
      <point x="816.947" y="390.963" type="curve" smooth="yes"/>
      <point x="781.947" y="390.963"/>
      <point x="765.952" y="410.007"/>
      <point x="765.952" y="444.007" type="curve" smooth="yes"/>
      <point x="765.952" y="479.007"/>
      <point x="781.947" y="496.025"/>
      <point x="816.947" y="496.025" type="curve" smooth="yes"/>
      <point x="851.947" y="496.025"/>
      <point x="869.99" y="479.007"/>
    </contour>
    <contour>
      <point x="501.965" y="700.006" type="curve" smooth="yes"/>
      <point x="501.965" y="666.006"/>
      <point x="482.922" y="646.963"/>
      <point x="448.922" y="646.963" type="curve" smooth="yes"/>
      <point x="413.922" y="646.963"/>
      <point x="396.903" y="666.006"/>
      <point x="396.903" y="700.006" type="curve" smooth="yes"/>
      <point x="396.903" y="735.006"/>
      <point x="413.922" y="752.025"/>
      <point x="448.922" y="752.025" type="curve" smooth="yes"/>
      <point x="482.922" y="752.025"/>
      <point x="501.965" y="735.006"/>
    </contour>
    <contour>
      <point x="859.955" y="271.974" type="curve" smooth="yes"/>
      <point x="859.955" y="237.974"/>
      <point x="841.912" y="218.931"/>
      <point x="806.912" y="218.931" type="curve" smooth="yes"/>
      <point x="771.912" y="218.931"/>
      <point x="755.917" y="237.974"/>
      <point x="755.917" y="271.974" type="curve" smooth="yes"/>
      <point x="755.917" y="306.974"/>
      <point x="771.912" y="323.993"/>
      <point x="806.912" y="323.993" type="curve" smooth="yes"/>
      <point x="841.912" y="323.993"/>
      <point x="859.955" y="306.974"/>
    </contour>
    <contour>
      <point x="747.93" y="113.049" type="curve" smooth="yes"/>
      <point x="747.93" y="78.0495"/>
      <point x="729.067" y="58.9825"/>
      <point x="694.067" y="58.9825" type="curve" smooth="yes"/>
      <point x="659.067" y="58.9825"/>
      <point x="643.072" y="78.0495"/>
      <point x="643.072" y="113.049" type="curve" smooth="yes"/>
      <point x="643.072" y="147.049"/>
      <point x="659.067" y="164.045"/>
      <point x="694.067" y="164.045" type="curve" smooth="yes"/>
      <point x="729.067" y="164.045"/>
      <point x="747.93" y="147.049"/>
    </contour>
    <contour>
      <point x="550.912" y="53.0433" type="curve" smooth="yes" name=".hr17"/>
      <point x="550.912" y="18.0433"/>
      <point x="532.073" y="0"/>
      <point x="498.073" y="0" type="curve" smooth="yes"/>
      <point x="463.073" y="0"/>
      <point x="446.054" y="18.0432"/>
      <point x="446.054" y="53.0432" type="curve" smooth="yes"/>
      <point x="446.054" y="88.0432"/>
      <point x="463.073" y="104.038"/>
      <point x="498.073" y="104.038" type="curve" smooth="yes"/>
      <point x="532.073" y="104.038"/>
      <point x="550.912" y="88.0432"/>
    </contour>
    <contour>
      <point x="253.952" y="288.973" type="curve" smooth="yes"/>
      <point x="253.952" y="253.973"/>
      <point x="235.909" y="235.929"/>
      <point x="200.909" y="235.929" type="curve" smooth="yes" name=".hr18"/>
      <point x="165.909" y="235.929"/>
      <point x="149.913" y="253.973"/>
      <point x="149.913" y="288.973" type="curve" smooth="yes"/>
      <point x="149.913" y="323.973"/>
      <point x="165.909" y="339.968"/>
      <point x="200.909" y="339.968" type="curve" smooth="yes"/>
      <point x="235.909" y="339.968"/>
      <point x="253.952" y="323.973"/>
    </contour>
    <contour>
      <point x="360.039" y="123.085" type="curve" smooth="yes"/>
      <point x="360.039" y="88.0847"/>
      <point x="341.995" y="70.0415"/>
      <point x="306.995" y="70.0415" type="curve" smooth="yes"/>
      <point x="271.995" y="70.0415"/>
      <point x="256" y="88.0847"/>
      <point x="256" y="123.085" type="curve" smooth="yes"/>
      <point x="256" y="158.085"/>
      <point x="271.995" y="174.08"/>
      <point x="306.995" y="174.08" type="curve" smooth="yes" name=".hr19"/>
      <point x="341.995" y="174.08" name=".hr20"/>
      <point x="360.038" y="158.085"/>
    </contour>
    <contour>
      <point x="283.034" y="1056.97" type="curve" smooth="yes"/>
      <point x="283.034" y="1095.97" name=".hr21"/>
      <point x="249.944" y="1128.04"/>
      <point x="210.944" y="1128.04" type="curve" smooth="yes"/>
      <point x="171.944" y="1128.04"/>
      <point x="139.059" y="1095.97"/>
      <point x="139.059" y="1056.97" type="curve" smooth="yes"/>
      <point x="139.059" y="1017.97"/>
      <point x="171.944" y="985.088"/>
      <point x="210.944" y="985.088" type="curve" smooth="yes"/>
      <point x="249.944" y="985.088"/>
      <point x="283.034" y="1017.97"/>
    </contour>
  </outline>
</glyph>
<glyph name="six" format="2">
  <advance width="1024"/>
  <unicode hex="0036"/>
  <outline>
    <contour>
      <point x="686.08" y="1274.06" type="curve" smooth="yes"/>
      <point x="686.08" y="1223.06"/>
      <point x="644.92" y="1181.9"/>
      <point x="593.92" y="1181.9" type="curve" smooth="yes"/>
      <point x="542.92" y="1181.9"/>
      <point x="501.965" y="1223.06"/>
      <point x="501.965" y="1274.06" type="curve" smooth="yes"/>
      <point x="501.965" y="1325.06"/>
      <point x="542.92" y="1366.02"/>
      <point x="593.92" y="1366.02" type="curve" smooth="yes"/>
      <point x="644.92" y="1366.02"/>
      <point x="686.08" y="1325.06"/>
    </contour>
    <contour>
      <point x="527.974" y="1147.08" type="curve" smooth="yes"/>
      <point x="527.974" y="1112.08" name=".hr01"/>
      <point x="509.931" y="1094.04"/>
      <point x="474.931" y="1094.04" type="curve" smooth="yes"/>
      <point x="439.931" y="1094.04"/>
      <point x="423.936" y="1112.08"/>
      <point x="423.936" y="1147.08" type="curve" smooth="yes"/>
      <point x="423.936" y="1182.08"/>
      <point x="439.931" y="1198.08" name=".hr02"/>
      <point x="474.931" y="1198.08" type="curve" smooth="yes" name=".hr03"/>
      <point x="509.931" y="1198.08"/>
      <point x="527.974" y="1182.08"/>
    </contour>
    <contour>
      <point x="856.064" y="628.941" type="curve" smooth="yes" name=".hr04"/>
      <point x="856.064" y="593.941"/>
      <point x="838.021" y="575.078"/>
      <point x="803.021" y="575.078" type="curve" smooth="yes"/>
      <point x="768.021" y="575.078"/>
      <point x="752.026" y="593.941"/>
      <point x="752.026" y="628.941" type="curve" smooth="yes" name=".hr05"/>
      <point x="752.026" y="663.941" name=".hr06"/>
      <point x="768.021" y="679.936"/>
      <point x="803.021" y="679.936" type="curve" smooth="yes"/>
      <point x="838.021" y="679.936" name=".hr07"/>
      <point x="856.064" y="663.941"/>
    </contour>
    <contour>
      <point x="436.019" y="1019.9" type="curve" smooth="yes"/>
      <point x="436.019" y="984.904" name=".hr08"/>
      <point x="417.976" y="967.065"/>
      <point x="382.976" y="967.065" type="curve" smooth="yes"/>
      <point x="347.976" y="967.065"/>
      <point x="331.981" y="984.904"/>
      <point x="331.981" y="1019.9" type="curve" smooth="yes"/>
      <point x="331.981" y="1054.9"/>
      <point x="347.976" y="1070.9"/>
      <point x="382.976" y="1070.9" type="curve" smooth="yes"/>
      <point x="417.976" y="1070.9"/>
      <point x="436.019" y="1054.9"/>
    </contour>
    <contour>
      <point x="671.949" y="757.965" type="curve" smooth="yes"/>
      <point x="671.949" y="722.965"/>
      <point x="653.086" y="704.921"/>
      <point x="618.086" y="704.921" type="curve" smooth="yes"/>
      <point x="584.086" y="704.921"/>
      <point x="567.091" y="722.965"/>
      <point x="567.091" y="757.965" type="curve" smooth="yes"/>
      <point x="567.091" y="792.965"/>
      <point x="584.086" y="808.96"/>
      <point x="618.086" y="808.96" type="curve" smooth="yes"/>
      <point x="653.086" y="808.96"/>
      <point x="671.949" y="792.965"/>
    </contour>
    <contour>
      <point x="925.901" y="453.017" type="curve" smooth="yes"/>
      <point x="925.901" y="418.017"/>
      <point x="907.039" y="398.95"/>
      <point x="872.039" y="398.95" type="curve" smooth="yes"/>
      <point x="838.039" y="398.95"/>
      <point x="821.043" y="418.017" name=".hr09"/>
      <point x="821.043" y="453.017" type="curve" smooth="yes"/>
      <point x="821.043" y="487.017"/>
      <point x="838.039" y="504.013"/>
      <point x="872.039" y="504.013" type="curve" smooth="yes"/>
      <point x="907.039" y="504.013"/>
      <point x="925.901" y="487.017"/>
    </contour>
    <contour>
      <point x="339.968" y="854.016" type="curve" smooth="yes"/>
      <point x="339.968" y="819.016"/>
      <point x="321.925" y="800.973"/>
      <point x="286.925" y="800.973" type="curve" smooth="yes"/>
      <point x="251.925" y="800.973"/>
      <point x="235.929" y="819.016"/>
      <point x="235.929" y="854.016" type="curve" smooth="yes"/>
      <point x="235.929" y="889.016"/>
      <point x="251.925" y="905.011"/>
      <point x="286.925" y="905.011" type="curve" smooth="yes"/>
      <point x="321.925" y="905.011"/>
      <point x="339.968" y="889.016"/>
    </contour>
    <contour>
      <point x="897.024" y="260.096" type="curve" smooth="yes"/>
      <point x="897.024" y="225.096"/>
      <point x="878.981" y="207.053"/>
      <point x="843.981" y="207.053" type="curve" smooth="yes"/>
      <point x="808.981" y="207.053"/>
      <point x="792.985" y="225.096"/>
      <point x="792.985" y="260.096" type="curve" smooth="yes"/>
      <point x="792.985" y="295.096" name=".hr10"/>
      <point x="808.981" y="311.091"/>
      <point x="843.981" y="311.091" type="curve" smooth="yes"/>
      <point x="878.981" y="311.091"/>
      <point x="897.024" y="295.096"/>
    </contour>
    <contour>
      <point x="415.949" y="730.931" type="curve" smooth="yes"/>
      <point x="415.949" y="695.931"/>
      <point x="397.087" y="678.093"/>
      <point x="362.087" y="678.093" type="curve" smooth="yes"/>
      <point x="328.087" y="678.093"/>
      <point x="311.091" y="695.931"/>
      <point x="311.091" y="730.931" type="curve" smooth="yes"/>
      <point x="311.091" y="765.931"/>
      <point x="328.087" y="781.927"/>
      <point x="362.087" y="781.927" type="curve" smooth="yes"/>
      <point x="397.087" y="781.927"/>
      <point x="415.949" y="765.931"/>
    </contour>
    <contour>
      <point x="253.952" y="656.998" type="curve" smooth="yes"/>
      <point x="253.952" y="622.998"/>
      <point x="235.909" y="603.955"/>
      <point x="200.909" y="603.955" type="curve" smooth="yes"/>
      <point x="165.909" y="603.955" name=".hr11"/>
      <point x="149.913" y="622.998"/>
      <point x="149.913" y="656.998" type="curve" smooth="yes"/>
      <point x="149.913" y="691.998"/>
      <point x="165.909" y="709.017"/>
      <point x="200.909" y="709.017" type="curve" smooth="yes"/>
      <point x="235.909" y="709.017"/>
      <point x="253.952" y="691.998" name=".hr12"/>
    </contour>
    <contour>
      <point x="768" y="113.049" type="curve" smooth="yes"/>
      <point x="768" y="78.0495"/>
      <point x="749.957" y="58.9825" name=".hr13"/>
      <point x="714.957" y="58.9825" type="curve" smooth="yes"/>
      <point x="679.957" y="58.9825"/>
      <point x="663.962" y="78.0495"/>
      <point x="663.962" y="113.049" type="curve" smooth="yes"/>
      <point x="663.962" y="147.049" name=".hr14"/>
      <point x="679.957" y="164.045" name=".hr15"/>
      <point x="714.957" y="164.045" type="curve" smooth="yes"/>
      <point x="749.957" y="164.045"/>
      <point x="768" y="147.049"/>
    </contour>
    <contour>
      <point x="210.944" y="453.017" type="curve" smooth="yes"/>
      <point x="210.944" y="418.017"/>
      <point x="192.901" y="398.95"/>
      <point x="157.901" y="398.95" type="curve" smooth="yes"/>
      <point x="122.901" y="398.95"/>
      <point x="106.087" y="418.017"/>
      <point x="106.087" y="453.017" type="curve" smooth="yes"/>
      <point x="106.087" y="487.017"/>
      <point x="122.901" y="504.013"/>
      <point x="157.901" y="504.013" type="curve" smooth="yes"/>
      <point x="192.901" y="504.013"/>
      <point x="210.944" y="487.017" name=".hr16"/>
    </contour>
    <contour>
      <point x="565.043" y="53.0433" type="curve" smooth="yes"/>
      <point x="565.043" y="18.0433"/>
      <point x="547" y="0"/>
      <point x="512" y="0" type="curve" smooth="yes"/>
      <point x="477" y="0"/>
      <point x="461.005" y="18.0432"/>
      <point x="461.005" y="53.0432" type="curve" smooth="yes"/>
      <point x="461.005" y="88.0432"/>
      <point x="477" y="104.038"/>
      <point x="512" y="104.038" type="curve" smooth="yes"/>
      <point x="547" y="104.038"/>
      <point x="565.043" y="88.0432"/>
    </contour>
    <contour>
      <point x="242.074" y="260.096" type="curve" smooth="yes"/>
      <point x="242.074" y="225.096"/>
      <point x="223.007" y="207.053"/>
      <point x="188.007" y="207.053" type="curve" smooth="yes"/>
      <point x="154.007" y="207.053"/>
      <point x="137.011" y="225.096"/>
      <point x="137.011" y="260.096" type="curve" smooth="yes"/>
      <point x="137.011" y="295.096"/>
      <point x="154.007" y="311.091"/>
      <point x="188.007" y="311.091" type="curve" smooth="yes"/>
      <point x="223.007" y="311.091"/>
      <point x="242.074" y="295.096"/>
    </contour>
    <contour>
      <point x="371.098" y="108.953" type="curve" smooth="yes"/>
      <point x="371.098" y="73.9535"/>
      <point x="352.031" y="55.0912"/>
      <point x="317.031" y="55.0912" type="curve" smooth="yes"/>
      <point x="283.031" y="55.0912"/>
      <point x="266.035" y="73.9535"/>
      <point x="266.035" y="108.953" type="curve" smooth="yes" name=".hr17"/>
      <point x="266.035" y="142.953"/>
      <point x="283.031" y="159.949"/>
      <point x="317.031" y="159.949" type="curve" smooth="yes"/>
      <point x="352.031" y="159.949"/>
      <point x="371.098" y="142.953"/>
    </contour>
    <contour>
      <point x="666.01" y="1275.9" type="curve" smooth="yes"/>
      <point x="666.01" y="1314.9"/>
      <point x="632.92" y="1347.99"/>
      <point x="593.92" y="1347.99" type="curve" smooth="yes"/>
      <point x="554.92" y="1347.99"/>
      <point x="522.035" y="1314.9"/>
      <point x="522.035" y="1275.9" type="curve" smooth="yes"/>
      <point x="522.035" y="1236.9"/>
      <point x="554.92" y="1204.02"/>
      <point x="593.92" y="1204.02" type="curve" smooth="yes"/>
      <point x="632.92" y="1204.02"/>
      <point x="666.01" y="1236.9"/>
    </contour>
  </outline>
</glyph>
<glyph name="seven" format="2">
  <advance width="1024"/>
  <unicode hex="0037"/>
  <outline>
    <contour>
      <point x="857.907" y="1280" type="curve" smooth="yes"/>
      <point x="857.907" y="1245"/>
      <point x="841.912" y="1229"/>
      <point x="806.912" y="1229" type="curve" smooth="yes"/>
      <point x="771.912" y="1229"/>
      <point x="754.073" y="1245"/>
      <point x="754.073" y="1280" type="curve" smooth="yes"/>
      <point x="754.073" y="1315"/>
      <point x="771.912" y="1333.04"/>
      <point x="806.912" y="1333.04" type="curve" smooth="yes"/>
      <point x="841.912" y="1333.04"/>
      <point x="857.907" y="1315"/>
    </contour>
    <contour>
      <point x="652.903" y="1280" type="curve" smooth="yes"/>
      <point x="652.903" y="1245"/>
      <point x="636.907" y="1229"/>
      <point x="601.907" y="1229" type="curve" smooth="yes"/>
      <point x="566.907" y="1229"/>
      <point x="549.069" y="1245" name=".hr01"/>
      <point x="549.069" y="1280" type="curve" smooth="yes" name=".hr02"/>
      <point x="549.069" y="1315"/>
      <point x="566.907" y="1333.04"/>
      <point x="601.907" y="1333.04" type="curve" smooth="yes" name=".hr03"/>
      <point x="636.907" y="1333.04"/>
      <point x="652.903" y="1315"/>
    </contour>
    <contour>
      <point x="808.96" y="1107.97" type="curve" smooth="yes" name=".hr04"/>
      <point x="808.96" y="1072.97"/>
      <point x="790.917" y="1054.92"/>
      <point x="755.917" y="1054.92" type="curve" smooth="yes"/>
      <point x="720.917" y="1054.92"/>
      <point x="704.922" y="1072.97"/>
      <point x="704.922" y="1107.97" type="curve" smooth="yes"/>
      <point x="704.922" y="1142.97"/>
      <point x="720.917" y="1158.96"/>
      <point x="755.917" y="1158.96" type="curve" smooth="yes"/>
      <point x="790.917" y="1158.96"/>
      <point x="808.96" y="1142.97"/>
    </contour>
    <contour>
      <point x="448.922" y="1280" type="curve" smooth="yes"/>
      <point x="448.922" y="1245"/>
      <point x="431.903" y="1229"/>
      <point x="396.903" y="1229" type="curve" smooth="yes"/>
      <point x="361.903" y="1229"/>
      <point x="344.064" y="1245"/>
      <point x="344.064" y="1280" type="curve" smooth="yes"/>
      <point x="344.064" y="1315"/>
      <point x="361.903" y="1333.04"/>
      <point x="396.903" y="1333.04" type="curve" smooth="yes"/>
      <point x="431.903" y="1333.04"/>
      <point x="448.922" y="1315"/>
    </contour>
    <contour>
      <point x="729.088" y="948.019" type="curve" smooth="yes"/>
      <point x="729.088" y="913.019"/>
      <point x="711.045" y="894.976"/>
      <point x="676.045" y="894.976" type="curve" smooth="yes"/>
      <point x="641.045" y="894.976" name=".hr05"/>
      <point x="625.05" y="913.019"/>
      <point x="625.05" y="948.019" type="curve" smooth="yes"/>
      <point x="625.05" y="983.019"/>
      <point x="641.045" y="999.014"/>
      <point x="676.045" y="999.014" type="curve" smooth="yes"/>
      <point x="711.045" y="999.014"/>
      <point x="729.088" y="983.019"/>
    </contour>
    <contour>
      <point x="286.925" y="1274.06" type="curve" smooth="yes"/>
      <point x="286.925" y="1223.06"/>
      <point x="245.969" y="1181.9"/>
      <point x="194.969" y="1181.9" type="curve" smooth="yes"/>
      <point x="142.969" y="1181.9"/>
      <point x="101.99" y="1223.06"/>
      <point x="101.99" y="1274.06" type="curve" smooth="yes"/>
      <point x="101.99" y="1325.06"/>
      <point x="142.969" y="1366.02"/>
      <point x="194.969" y="1366.02" type="curve" smooth="yes"/>
      <point x="245.969" y="1366.02"/>
      <point x="286.925" y="1325.06"/>
    </contour>
    <contour>
      <point x="654.951" y="772.096" type="curve" smooth="yes"/>
      <point x="654.951" y="737.096"/>
      <point x="636.907" y="719.053"/>
      <point x="601.907" y="719.053" type="curve" smooth="yes"/>
      <point x="566.907" y="719.053"/>
      <point x="550.912" y="737.096"/>
      <point x="550.912" y="772.096" type="curve" smooth="yes"/>
      <point x="550.912" y="807.096"/>
      <point x="566.907" y="823.091"/>
      <point x="601.907" y="823.091" type="curve" smooth="yes"/>
      <point x="636.907" y="823.091"/>
      <point x="654.951" y="807.096"/>
    </contour>
    <contour>
      <point x="567.091" y="590.029" type="curve" smooth="yes"/>
      <point x="567.091" y="555.029"/>
      <point x="549.048" y="536.985"/>
      <point x="514.048" y="536.985" type="curve" smooth="yes"/>
      <point x="479.048" y="536.985"/>
      <point x="463.053" y="555.029"/>
      <point x="463.053" y="590.029" type="curve" smooth="yes"/>
      <point x="463.053" y="625.029"/>
      <point x="479.048" y="641.024"/>
      <point x="514.048" y="641.024" type="curve" smooth="yes" name=".hr06"/>
      <point x="549.048" y="641.024"/>
      <point x="567.091" y="625.029"/>
    </contour>
    <contour>
      <point x="487.014" y="422.093" type="curve" smooth="yes" name=".hr07"/>
      <point x="487.014" y="387.093"/>
      <point x="468.971" y="369.049"/>
      <point x="433.971" y="369.049" type="curve" smooth="yes"/>
      <point x="398.971" y="369.049"/>
      <point x="382.976" y="387.093" name=".hr08"/>
      <point x="382.976" y="422.093" type="curve" smooth="yes" name=".hr09"/>
      <point x="382.976" y="457.093"/>
      <point x="398.971" y="473.088" name=".hr10"/>
      <point x="433.971" y="473.088" type="curve" smooth="yes"/>
      <point x="468.971" y="473.088"/>
      <point x="487.014" y="457.093"/>
    </contour>
    <contour>
      <point x="398.951" y="235.93" type="curve" smooth="yes" name=".hr11"/>
      <point x="398.951" y="200.93" name=".hr12"/>
      <point x="380.907" y="182.067"/>
      <point x="345.907" y="182.067" type="curve" smooth="yes"/>
      <point x="310.907" y="182.067" name=".hr13"/>
      <point x="294.912" y="200.93"/>
      <point x="294.912" y="235.93" type="curve" smooth="yes"/>
      <point x="294.912" y="269.93" name=".hr14"/>
      <point x="310.907" y="286.925"/>
      <point x="345.907" y="286.925" type="curve" smooth="yes" name=".hr15"/>
      <point x="380.907" y="286.925"/>
      <point x="398.951" y="269.93"/>
    </contour>
    <contour>
      <point x="312.935" y="53.0433" type="curve" smooth="yes"/>
      <point x="312.935" y="18.0433"/>
      <point x="295.096" y="0"/>
      <point x="260.096" y="0" type="curve" smooth="yes"/>
      <point x="225.096" y="0"/>
      <point x="209.101" y="18.0432"/>
      <point x="209.101" y="53.0432" type="curve" smooth="yes"/>
      <point x="209.101" y="88.0432"/>
      <point x="225.096" y="104.038"/>
      <point x="260.096" y="104.038" type="curve" smooth="yes"/>
      <point x="295.096" y="104.038" name=".hr16"/>
      <point x="312.935" y="88.0432"/>
    </contour>
    <contour>
      <point x="266.035" y="1274.06" type="curve" smooth="yes" name=".hr17"/>
      <point x="266.035" y="1313.06"/>
      <point x="232.969" y="1345.95"/>
      <point x="194.969" y="1345.95" type="curve" smooth="yes" name=".hr18"/>
      <point x="155.969" y="1345.95"/>
      <point x="123.085" y="1313.06"/>
      <point x="123.085" y="1274.06" type="curve" smooth="yes"/>
      <point x="123.085" y="1235.06"/>
      <point x="155.969" y="1201.97" name=".hr19"/>
      <point x="194.969" y="1201.97" type="curve" smooth="yes" name=".hr20"/>
      <point x="232.969" y="1201.97"/>
      <point x="266.035" y="1235.06" name=".hr21"/>
    </contour>
  </outline>
</glyph>
<glyph name="nine" format="2">
  <advance width="1024"/>
  <unicode hex="0039"/>
  <outline>
    <contour>
      <point x="735.027" y="1212.01" type="curve" smooth="yes"/>
      <point x="735.027" y="1178.01"/>
      <point x="716.984" y="1158.96" name=".hr01"/>
      <point x="681.984" y="1158.96" type="curve" smooth="yes"/>
      <point x="646.984" y="1158.96"/>
      <point x="630.989" y="1178.01" name=".hr02"/>
      <point x="630.989" y="1212.01" type="curve" smooth="yes"/>
      <point x="630.989" y="1247.01"/>
      <point x="646.984" y="1264.03"/>
      <point x="681.984" y="1264.03" type="curve" smooth="yes"/>
      <point x="716.984" y="1264.03"/>
      <point x="735.027" y="1247.01"/>
    </contour>
    <contour>
      <point x="866.099" y="1062.91" type="curve" smooth="yes"/>
      <point x="866.099" y="1011.91"/>
      <point x="824.939" y="970.957"/>
      <point x="773.939" y="970.957" type="curve" smooth="yes"/>
      <point x="722.939" y="970.957"/>
      <point x="681.984" y="1011.91"/>
      <point x="681.984" y="1062.91" type="curve" smooth="yes"/>
      <point x="681.984" y="1113.91"/>
      <point x="722.939" y="1155.07"/>
      <point x="773.939" y="1155.07" type="curve" smooth="yes"/>
      <point x="824.939" y="1155.07"/>
      <point x="866.099" y="1113.91"/>
    </contour>
    <contour>
      <point x="527.974" y="1295.97" type="curve" smooth="yes"/>
      <point x="527.974" y="1261.97"/>
      <point x="509.931" y="1242.93"/>
      <point x="474.931" y="1242.93" type="curve" smooth="yes"/>
      <point x="439.931" y="1242.93" name=".hr03"/>
      <point x="423.936" y="1261.97"/>
      <point x="423.936" y="1295.97" type="curve" smooth="yes"/>
      <point x="423.936" y="1330.97"/>
      <point x="439.931" y="1347.99"/>
      <point x="474.931" y="1347.99" type="curve" smooth="yes"/>
      <point x="509.931" y="1347.99"/>
      <point x="527.974" y="1330.97"/>
    </contour>
    <contour>
      <point x="833.945" y="872.039" type="curve" smooth="yes"/>
      <point x="833.945" y="838.039"/>
      <point x="815.083" y="818.995"/>
      <point x="780.083" y="818.995" type="curve" smooth="yes"/>
      <point x="745.083" y="818.995"/>
      <point x="729.088" y="838.039"/>
      <point x="729.088" y="872.039" type="curve" smooth="yes"/>
      <point x="729.088" y="907.039"/>
      <point x="745.083" y="924.058"/>
      <point x="780.083" y="924.058" type="curve" smooth="yes"/>
      <point x="815.083" y="924.058"/>
      <point x="833.945" y="907.039"/>
    </contour>
    <contour>
      <point x="323.993" y="1231.05" type="curve" smooth="yes"/>
      <point x="323.993" y="1196.05"/>
      <point x="304.927" y="1178.01"/>
      <point x="269.927" y="1178.01" type="curve" smooth="yes"/>
      <point x="235.927" y="1178.01"/>
      <point x="218.931" y="1196.05"/>
      <point x="218.931" y="1231.05" type="curve" smooth="yes" name=".hr04"/>
      <point x="218.931" y="1266.05"/>
      <point x="235.927" y="1282.05"/>
      <point x="269.927" y="1282.05" type="curve" smooth="yes"/>
      <point x="304.927" y="1282.05"/>
      <point x="323.993" y="1266.05"/>
    </contour>
    <contour>
      <point x="833.945" y="668.057" type="curve" smooth="yes"/>
      <point x="833.945" y="633.057"/>
      <point x="815.083" y="613.99"/>
      <point x="780.083" y="613.99" type="curve" smooth="yes"/>
      <point x="745.083" y="613.99"/>
      <point x="729.088" y="633.057"/>
      <point x="729.088" y="668.057" type="curve" smooth="yes"/>
      <point x="729.088" y="702.057"/>
      <point x="745.083" y="719.053"/>
      <point x="780.083" y="719.053" type="curve" smooth="yes"/>
      <point x="815.083" y="719.053"/>
      <point x="833.945" y="702.057"/>
    </contour>
    <contour>
      <point x="732.979" y="749.977" type="curve" smooth="yes"/>
      <point x="732.979" y="714.977"/>
      <point x="714.936" y="695.91"/>
      <point x="679.936" y="695.91" type="curve" smooth="yes"/>
      <point x="644.936" y="695.91"/>
      <point x="628.941" y="714.977"/>
      <point x="628.941" y="749.977" type="curve" smooth="yes" name=".hr05"/>
      <point x="628.941" y="783.977"/>
      <point x="644.936" y="800.973" name=".hr06"/>
      <point x="679.936" y="800.973" type="curve" smooth="yes"/>
      <point x="714.936" y="800.973"/>
      <point x="732.979" y="783.977"/>
    </contour>
    <contour>
      <point x="833.945" y="463.053" type="curve" smooth="yes" name=".hr07"/>
      <point x="833.945" y="428.053"/>
      <point x="815.083" y="410.01" name=".hr08"/>
      <point x="780.083" y="410.01" type="curve" smooth="yes"/>
      <point x="745.083" y="410.01"/>
      <point x="729.088" y="428.053"/>
      <point x="729.088" y="463.053" type="curve" smooth="yes" name=".hr09"/>
      <point x="729.088" y="498.053" name=".hr10"/>
      <point x="745.083" y="514.048"/>
      <point x="780.083" y="514.048" type="curve" smooth="yes"/>
      <point x="815.083" y="514.048"/>
      <point x="833.945" y="498.053"/>
    </contour>
    <contour>
      <point x="205.005" y="1056.97" type="curve" smooth="yes"/>
      <point x="205.005" y="1021.97"/>
      <point x="185.961" y="1003.93"/>
      <point x="151.961" y="1003.93" type="curve" smooth="yes"/>
      <point x="116.961" y="1003.93"/>
      <point x="99.9425" y="1021.97"/>
      <point x="99.9425" y="1056.97" type="curve" smooth="yes"/>
      <point x="99.9425" y="1091.97"/>
      <point x="116.961" y="1107.97"/>
      <point x="151.961" y="1107.97" type="curve" smooth="yes"/>
      <point x="185.961" y="1107.97"/>
      <point x="205.005" y="1091.97"/>
    </contour>
    <contour>
      <point x="584.089" y="663.961" type="curve" smooth="yes"/>
      <point x="584.089" y="628.961"/>
      <point x="565.022" y="610.099"/>
      <point x="530.022" y="610.099" type="curve" smooth="yes"/>
      <point x="496.022" y="610.099"/>
      <point x="479.027" y="628.961"/>
      <point x="479.027" y="663.961" type="curve" smooth="yes"/>
      <point x="479.027" y="697.961"/>
      <point x="496.022" y="714.957"/>
      <point x="530.022" y="714.957" type="curve" smooth="yes"/>
      <point x="565.022" y="714.957"/>
      <point x="584.089" y="697.961"/>
    </contour>
    <contour>
      <point x="833.945" y="258.048" type="curve" smooth="yes"/>
      <point x="833.945" y="223.048"/>
      <point x="815.083" y="205.005"/>
      <point x="780.083" y="205.005" type="curve" smooth="yes"/>
      <point x="745.083" y="205.005"/>
      <point x="729.088" y="223.048"/>
      <point x="729.088" y="258.048" type="curve" smooth="yes"/>
      <point x="729.088" y="293.048"/>
      <point x="745.083" y="309.043"/>
      <point x="780.083" y="309.043" type="curve" smooth="yes"/>
      <point x="815.083" y="309.043"/>
      <point x="833.945" y="293.048"/>
    </contour>
    <contour>
      <point x="217.088" y="862.003" type="curve" smooth="yes"/>
      <point x="217.088" y="827.003"/>
      <point x="199.045" y="808.96"/>
      <point x="164.045" y="808.96" type="curve" smooth="yes"/>
      <point x="129.045" y="808.96"/>
      <point x="113.049" y="827.003"/>
      <point x="113.049" y="862.003" type="curve" smooth="yes"/>
      <point x="113.049" y="897.003"/>
      <point x="129.045" y="912.998"/>
      <point x="164.045" y="912.998" type="curve" smooth="yes"/>
      <point x="199.045" y="912.998"/>
      <point x="217.088" y="897.003" name=".hr11"/>
    </contour>
    <contour>
      <point x="367.001" y="697.958" type="curve" smooth="yes"/>
      <point x="367.001" y="663.958"/>
      <point x="347.934" y="644.915"/>
      <point x="312.934" y="644.915" type="curve" smooth="yes"/>
      <point x="278.934" y="644.915"/>
      <point x="261.939" y="663.958"/>
      <point x="261.939" y="697.958" type="curve" smooth="yes"/>
      <point x="261.939" y="732.958"/>
      <point x="278.934" y="749.977"/>
      <point x="312.934" y="749.977" type="curve" smooth="yes"/>
      <point x="347.934" y="749.977"/>
      <point x="367.001" y="732.958"/>
    </contour>
    <contour>
      <point x="833.945" y="53.0433" type="curve" smooth="yes"/>
      <point x="833.945" y="18.0433"/>
      <point x="815.083" y="0"/>
      <point x="780.083" y="0" type="curve" smooth="yes"/>
      <point x="745.083" y="0"/>
      <point x="729.088" y="18.0432"/>
      <point x="729.088" y="53.0432" type="curve" smooth="yes"/>
      <point x="729.088" y="88.0432"/>
      <point x="745.083" y="104.038"/>
      <point x="780.083" y="104.038" type="curve" smooth="yes"/>
      <point x="815.083" y="104.038"/>
      <point x="833.945" y="88.0432"/>
    </contour>
    <contour>
      <point x="846.029" y="1062.91" type="curve" smooth="yes"/>
      <point x="846.029" y="1101.91"/>
      <point x="812.939" y="1135"/>
      <point x="773.939" y="1135" type="curve" smooth="yes"/>
      <point x="734.939" y="1135"/>
      <point x="702.054" y="1101.91"/>
      <point x="702.054" y="1062.91" type="curve" smooth="yes"/>
      <point x="702.054" y="1023.91"/>
      <point x="734.939" y="991.027"/>
      <point x="773.939" y="991.027" type="curve" smooth="yes"/>
      <point x="812.939" y="991.027"/>
      <point x="846.029" y="1023.91"/>
    </contour>
  </outline>
</glyph>
<glyph name="semicolon" format="2">
  <advance width="307"/>
  <unicode hex="003B"/>
  <outline>
    <contour>
      <point x="161.997" y="611.943" type="curve" smooth="yes"/>
      <point x="161.997" y="577.943"/>
      <point x="145.001" y="558.899"/>
      <point x="111.001" y="558.899" type="curve" smooth="yes"/>
      <point x="76.0015" y="558.899"/>
      <point x="56.9345" y="577.943"/>
      <point x="56.9345" y="611.943" type="curve" smooth="yes"/>
      <point x="56.9345" y="646.943"/>
      <point x="76.0015" y="663.962"/>
      <point x="111.001" y="663.962" type="curve" smooth="yes"/>
      <point x="145.001" y="663.962"/>
      <point x="161.997" y="646.943"/>
    </contour>
    <contour>
      <point x="154.01" y="80.0768" type="curve" smooth="yes"/>
      <point x="154.01" y="45.0768"/>
      <point x="136.991" y="27.0335"/>
      <point x="101.991" y="27.0335" type="curve" smooth="yes"/>
      <point x="67.9905" y="27.0335" name=".hr01"/>
      <point x="48.9473" y="45.0768"/>
      <point x="48.9473" y="80.0768" type="curve" smooth="yes" name=".hr02"/>
      <point x="48.9473" y="115.077"/>
      <point x="67.9905" y="131.072"/>
      <point x="101.991" y="131.072" type="curve" smooth="yes"/>
      <point x="136.991" y="131.072" name=".hr03"/>
      <point x="154.01" y="115.077"/>
    </contour>
    <contour>
      <point x="101.991" y="-70.0415" type="curve" smooth="yes"/>
      <point x="101.991" y="-104.041"/>
      <point x="85.9953" y="-121.037"/>
      <point x="50.9953" y="-121.037" type="curve" smooth="yes"/>
      <point x="15.9953" y="-121.037"/>
      <point x="-2.048" y="-104.041"/>
      <point x="-2.048" y="-70.0415" type="curve" smooth="yes"/>
      <point x="-2.048" y="-35.0415"/>
      <point x="15.9953" y="-15.9745"/>
      <point x="50.9953" y="-15.9745" type="curve" smooth="yes"/>
      <point x="85.9953" y="-15.9745"/>
      <point x="101.991" y="-35.0415"/>
    </contour>
  </outline>
</glyph>
<glyph name="equal" format="2">
  <advance width="1024"/>
  <unicode hex="003D"/>
  <outline>
    <contour>
      <point x="897.024" y="821.043" type="curve" smooth="yes"/>
      <point x="897.024" y="786.043"/>
      <point x="881.029" y="768"/>
      <point x="846.029" y="768" type="curve" smooth="yes"/>
      <point x="811.029" y="768"/>
      <point x="792.985" y="786.043"/>
      <point x="792.985" y="821.043" type="curve" smooth="yes"/>
      <point x="792.985" y="856.043"/>
      <point x="811.029" y="872.038"/>
      <point x="846.029" y="872.038" type="curve" smooth="yes"/>
      <point x="881.029" y="872.038"/>
      <point x="897.024" y="856.043"/>
    </contour>
    <contour>
      <point x="692.019" y="821.043" type="curve" smooth="yes"/>
      <point x="692.019" y="786.043"/>
      <point x="676.024" y="768"/>
      <point x="641.024" y="768" type="curve" smooth="yes"/>
      <point x="606.024" y="768"/>
      <point x="587.981" y="786.043"/>
      <point x="587.981" y="821.043" type="curve" smooth="yes"/>
      <point x="587.981" y="856.043"/>
      <point x="606.024" y="872.038"/>
      <point x="641.024" y="872.038" type="curve" smooth="yes"/>
      <point x="676.024" y="872.038"/>
      <point x="692.019" y="856.043"/>
    </contour>
    <contour>
      <point x="899.072" y="575.078" type="curve" smooth="yes"/>
      <point x="899.072" y="541.078"/>
      <point x="883.077" y="522.035"/>
      <point x="848.077" y="522.035" type="curve" smooth="yes"/>
      <point x="813.077" y="522.035"/>
      <point x="795.034" y="541.078"/>
      <point x="795.034" y="575.078" type="curve" smooth="yes"/>
      <point x="795.034" y="610.078"/>
      <point x="813.077" y="627.097"/>
      <point x="848.077" y="627.097" type="curve" smooth="yes"/>
      <point x="883.077" y="627.097"/>
      <point x="899.072" y="610.078"/>
    </contour>
    <contour>
      <point x="487.014" y="821.043" type="curve" smooth="yes"/>
      <point x="487.014" y="786.043"/>
      <point x="471.019" y="768"/>
      <point x="436.019" y="768" type="curve" smooth="yes"/>
      <point x="401.019" y="768"/>
      <point x="382.976" y="786.043"/>
      <point x="382.976" y="821.043" type="curve" smooth="yes"/>
      <point x="382.976" y="856.043"/>
      <point x="401.019" y="872.038"/>
      <point x="436.019" y="872.038" type="curve" smooth="yes"/>
      <point x="471.019" y="872.038"/>
      <point x="487.014" y="856.043"/>
    </contour>
    <contour>
      <point x="694.067" y="575.078" type="curve" smooth="yes"/>
      <point x="694.067" y="541.078"/>
      <point x="678.072" y="522.035"/>
      <point x="643.072" y="522.035" type="curve" smooth="yes"/>
      <point x="608.072" y="522.035"/>
      <point x="590.029" y="541.078"/>
      <point x="590.029" y="575.078" type="curve" smooth="yes"/>
      <point x="590.029" y="610.078"/>
      <point x="608.072" y="627.097"/>
      <point x="643.072" y="627.097" type="curve" smooth="yes"/>
      <point x="678.072" y="627.097"/>
      <point x="694.067" y="610.078"/>
    </contour>
    <contour>
      <point x="283.034" y="821.043" type="curve" smooth="yes"/>
      <point x="283.034" y="786.043"/>
      <point x="266.015" y="768"/>
      <point x="231.015" y="768" type="curve" smooth="yes"/>
      <point x="197.015" y="768"/>
      <point x="177.971" y="786.043"/>
      <point x="177.971" y="821.043" type="curve" smooth="yes"/>
      <point x="177.971" y="856.043"/>
      <point x="197.015" y="872.038"/>
      <point x="231.015" y="872.038" type="curve" smooth="yes"/>
      <point x="266.015" y="872.038"/>
      <point x="283.034" y="856.043"/>
    </contour>
    <contour>
      <point x="489.062" y="575.078" type="curve" smooth="yes"/>
      <point x="489.062" y="541.078"/>
      <point x="473.067" y="522.035"/>
      <point x="438.067" y="522.035" type="curve" smooth="yes"/>
      <point x="403.067" y="522.035"/>
      <point x="385.024" y="541.078"/>
      <point x="385.024" y="575.078" type="curve" smooth="yes"/>
      <point x="385.024" y="610.078"/>
      <point x="403.067" y="627.097"/>
      <point x="438.067" y="627.097" type="curve" smooth="yes"/>
      <point x="473.067" y="627.097"/>
      <point x="489.062" y="610.078"/>
    </contour>
    <contour>
      <point x="285.082" y="575.078" type="curve" smooth="yes"/>
      <point x="285.082" y="541.078"/>
      <point x="268.063" y="522.035"/>
      <point x="233.063" y="522.035" type="curve" smooth="yes"/>
      <point x="199.063" y="522.035"/>
      <point x="180.019" y="541.078"/>
      <point x="180.019" y="575.078" type="curve" smooth="yes"/>
      <point x="180.019" y="610.078"/>
      <point x="199.063" y="627.097"/>
      <point x="233.063" y="627.097" type="curve" smooth="yes"/>
      <point x="268.063" y="627.097"/>
      <point x="285.082" y="610.078"/>
    </contour>
  </outline>
</glyph>
<glyph name="A" format="2">
  <advance width="1536"/>
  <unicode hex="0041"/>
  <outline>
    <contour>
      <point x="859.955" y="1236.99" type="curve" smooth="yes"/>
      <point x="859.955" y="1185.99"/>
      <point x="817" y="1145.04"/>
      <point x="768" y="1145.04" type="curve" smooth="yes"/>
      <point x="717" y="1145.04"/>
      <point x="676.045" y="1185.99"/>
      <point x="676.045" y="1236.99" type="curve" smooth="yes"/>
      <point x="676.045" y="1285.99"/>
      <point x="717" y="1328.95"/>
      <point x="768" y="1328.95" type="curve" smooth="yes"/>
      <point x="817" y="1328.95"/>
      <point x="859.955" y="1285.99"/>
    </contour>
    <contour>
      <point x="950.067" y="1024" type="curve" smooth="yes"/>
      <point x="950.067" y="989" name=".hr01"/>
      <point x="932.024" y="970.957"/>
      <point x="897.024" y="970.957" type="curve" smooth="yes"/>
      <point x="862.024" y="970.957"/>
      <point x="846.029" y="989"/>
      <point x="846.029" y="1024" type="curve" smooth="yes"/>
      <point x="846.029" y="1059"/>
      <point x="862.024" y="1075"/>
      <point x="897.024" y="1075" type="curve" smooth="yes"/>
      <point x="932.024" y="1075"/>
      <point x="950.067" y="1059"/>
    </contour>
    <contour>
      <point x="1046.94" y="833.945" type="curve" smooth="yes"/>
      <point x="1046.94" y="798.945"/>
      <point x="1028.08" y="780.083" name=".hr02"/>
      <point x="993.075" y="780.083" type="curve" smooth="yes"/>
      <point x="958.075" y="780.083"/>
      <point x="942.08" y="798.945"/>
      <point x="942.08" y="833.945" type="curve" smooth="yes"/>
      <point x="942.08" y="867.945"/>
      <point x="958.075" y="884.941"/>
      <point x="993.075" y="884.941" type="curve" smooth="yes"/>
      <point x="1028.08" y="884.941"/>
      <point x="1046.94" y="867.945"/>
    </contour>
    <contour>
      <point x="1123.94" y="638.976" type="curve" smooth="yes"/>
      <point x="1123.94" y="603.976"/>
      <point x="1105.9" y="585.933"/>
      <point x="1070.9" y="585.933" type="curve" smooth="yes" name=".hr03"/>
      <point x="1035.9" y="585.933"/>
      <point x="1019.9" y="603.976"/>
      <point x="1019.9" y="638.976" type="curve" smooth="yes"/>
      <point x="1019.9" y="673.976"/>
      <point x="1035.9" y="689.971"/>
      <point x="1070.9" y="689.971" type="curve" smooth="yes"/>
      <point x="1105.9" y="689.971"/>
      <point x="1123.94" y="673.976"/>
    </contour>
    <contour>
      <point x="687.923" y="1021.95" type="curve" smooth="yes"/>
      <point x="687.923" y="986.952"/>
      <point x="670.085" y="968.909"/>
      <point x="635.085" y="968.909" type="curve" smooth="yes"/>
      <point x="600.085" y="968.909"/>
      <point x="584.09" y="986.952"/>
      <point x="584.09" y="1021.95" type="curve" smooth="yes"/>
      <point x="584.09" y="1056.95"/>
      <point x="600.085" y="1072.95"/>
      <point x="635.085" y="1072.95" type="curve" smooth="yes"/>
      <point x="670.085" y="1072.95"/>
      <point x="687.923" y="1056.95"/>
    </contour>
    <contour>
      <point x="1236.99" y="455.065" type="curve" smooth="yes"/>
      <point x="1236.99" y="420.065"/>
      <point x="1218.95" y="400.998"/>
      <point x="1183.95" y="400.998" type="curve" smooth="yes"/>
      <point x="1148.95" y="400.998"/>
      <point x="1132.95" y="420.065"/>
      <point x="1132.95" y="455.065" type="curve" smooth="yes"/>
      <point x="1132.95" y="489.065"/>
      <point x="1148.95" y="506.061"/>
      <point x="1183.95" y="506.061" type="curve" smooth="yes"/>
      <point x="1218.95" y="506.061"/>
      <point x="1236.99" y="489.065"/>
    </contour>
    <contour>
      <point x="1338.98" y="256" type="curve" smooth="yes"/>
      <point x="1338.98" y="221"/>
      <point x="1320.94" y="202.957"/>
      <point x="1285.94" y="202.957" type="curve" smooth="yes"/>
      <point x="1250.94" y="202.957"/>
      <point x="1234.94" y="221"/>
      <point x="1234.94" y="256" type="curve" smooth="yes" name=".hr04"/>
      <point x="1234.94" y="291"/>
      <point x="1250.94" y="306.995"/>
      <point x="1285.94" y="306.995" type="curve" smooth="yes"/>
      <point x="1320.94" y="306.995"/>
      <point x="1338.98" y="291"/>
    </contour>
    <contour>
      <point x="919.961" y="638.976" type="curve" smooth="yes"/>
      <point x="919.961" y="603.976"/>
      <point x="901.099" y="585.933"/>
      <point x="866.099" y="585.933" type="curve" smooth="yes"/>
      <point x="831.099" y="585.933"/>
      <point x="814.899" y="603.976"/>
      <point x="814.899" y="638.976" type="curve" smooth="yes"/>
      <point x="814.899" y="673.976"/>
      <point x="831.099" y="689.971"/>
      <point x="866.099" y="689.971" type="curve" smooth="yes"/>
      <point x="901.099" y="689.971"/>
      <point x="919.961" y="673.976"/>
    </contour>
    <contour>
      <point x="1444.04" y="55.0913" type="curve" smooth="yes"/>
      <point x="1444.04" y="20.0913"/>
      <point x="1425" y="2.048"/>
      <point x="1391" y="2.048" type="curve" smooth="yes"/>
      <point x="1356" y="2.048"/>
      <point x="1338.98" y="20.0913"/>
      <point x="1338.98" y="55.0913" type="curve" smooth="yes"/>
      <point x="1338.98" y="90.0913"/>
      <point x="1356" y="106.087"/>
      <point x="1391" y="106.087" type="curve" smooth="yes"/>
      <point x="1425" y="106.087"/>
      <point x="1444.04" y="90.0913"/>
    </contour>
    <contour>
      <point x="593.92" y="835.994" type="curve" smooth="yes"/>
      <point x="593.92" y="800.994"/>
      <point x="575.081" y="781.927"/>
      <point x="541.081" y="781.927" type="curve" smooth="yes"/>
      <point x="506.081" y="781.927"/>
      <point x="489.062" y="800.994"/>
      <point x="489.062" y="835.994" type="curve" smooth="yes"/>
      <point x="489.062" y="869.994"/>
      <point x="506.081" y="886.989"/>
      <point x="541.081" y="886.989" type="curve" smooth="yes"/>
      <point x="575.081" y="886.989"/>
      <point x="593.92" y="869.994"/>
    </contour>
    <contour>
      <point x="714.957" y="638.976" type="curve" smooth="yes"/>
      <point x="714.957" y="603.976"/>
      <point x="695.913" y="585.933"/>
      <point x="661.913" y="585.933" type="curve" smooth="yes"/>
      <point x="626.913" y="585.933"/>
      <point x="610.099" y="603.976"/>
      <point x="610.099" y="638.976" type="curve" smooth="yes"/>
      <point x="610.099" y="673.976"/>
      <point x="626.913" y="689.971"/>
      <point x="661.913" y="689.971" type="curve" smooth="yes"/>
      <point x="695.913" y="689.971"/>
      <point x="714.957" y="673.976"/>
    </contour>
    <contour>
      <point x="496.026" y="638.976" type="curve" smooth="yes" name=".hr05"/>
      <point x="496.026" y="603.976"/>
      <point x="476.959" y="585.933"/>
      <point x="441.959" y="585.933" type="curve" smooth="yes" name=".hr06"/>
      <point x="407.959" y="585.933"/>
      <point x="390.963" y="603.976"/>
      <point x="390.963" y="638.976" type="curve" smooth="yes"/>
      <point x="390.963" y="673.976"/>
      <point x="407.959" y="689.971" name=".hr07"/>
      <point x="441.959" y="689.971" type="curve" smooth="yes" name=".hr08"/>
      <point x="476.959" y="689.971"/>
      <point x="496.026" y="673.976"/>
    </contour>
    <contour>
      <point x="410.009" y="468.992" type="curve" smooth="yes"/>
      <point x="410.009" y="433.992"/>
      <point x="390.942" y="415.949"/>
      <point x="355.942" y="415.949" type="curve" smooth="yes"/>
      <point x="321.942" y="415.949"/>
      <point x="304.947" y="433.992"/>
      <point x="304.947" y="468.992" type="curve" smooth="yes"/>
      <point x="304.947" y="503.992"/>
      <point x="321.942" y="519.987"/>
      <point x="355.942" y="519.987" type="curve" smooth="yes"/>
      <point x="390.942" y="519.987"/>
      <point x="410.009" y="503.992"/>
    </contour>
    <contour>
      <point x="312.935" y="280.986" type="curve" smooth="yes"/>
      <point x="312.935" y="245.986"/>
      <point x="295.096" y="226.919"/>
      <point x="260.096" y="226.919" type="curve" smooth="yes"/>
      <point x="225.096" y="226.919"/>
      <point x="209.101" y="245.986" name=".hr09"/>
      <point x="209.101" y="280.986" type="curve" smooth="yes"/>
      <point x="209.101" y="314.986"/>
      <point x="225.096" y="331.981"/>
      <point x="260.096" y="331.981" type="curve" smooth="yes"/>
      <point x="295.096" y="331.981" name=".hr10"/>
      <point x="312.935" y="314.986"/>
    </contour>
    <contour>
      <point x="205.005" y="55.0913" type="curve" smooth="yes"/>
      <point x="205.005" y="20.0913"/>
      <point x="185.961" y="2.048"/>
      <point x="151.961" y="2.048" type="curve" smooth="yes"/>
      <point x="116.961" y="2.048"/>
      <point x="99.9425" y="20.0913"/>
      <point x="99.9425" y="55.0913" type="curve" smooth="yes"/>
      <point x="99.9425" y="90.0913"/>
      <point x="116.961" y="106.087"/>
      <point x="151.961" y="106.087" type="curve" smooth="yes"/>
      <point x="185.961" y="106.087"/>
      <point x="205.005" y="90.0913"/>
    </contour>
    <contour>
      <point x="840.089" y="1236.99" type="curve" smooth="yes"/>
      <point x="840.089" y="1275.99"/>
      <point x="807" y="1309.08"/>
      <point x="768" y="1309.08" type="curve" smooth="yes"/>
      <point x="727" y="1309.08"/>
      <point x="695.91" y="1275.99"/>
      <point x="695.91" y="1236.99" type="curve" smooth="yes"/>
      <point x="695.91" y="1195.99"/>
      <point x="727" y="1164.9"/>
      <point x="768" y="1164.9" type="curve" smooth="yes"/>
      <point x="807" y="1164.9"/>
      <point x="840.09" y="1195.99"/>
    </contour>
  </outline>
</glyph>
<glyph name="D" format="2">
  <advance width="1229"/>
  <unicode hex="0044"/>
  <outline>
    <contour>
      <point x="1016.01" y="1112.06" type="curve" smooth="yes"/>
      <point x="1016.01" y="1077.06"/>
      <point x="996.97" y="1059.02"/>
      <point x="962.97" y="1059.02" type="curve" smooth="yes"/>
      <point x="927.97" y="1059.02"/>
      <point x="910.951" y="1077.06"/>
      <point x="910.951" y="1112.06" type="curve" smooth="yes"/>
      <point x="910.951" y="1147.06"/>
      <point x="927.97" y="1163.06"/>
      <point x="962.97" y="1163.06" type="curve" smooth="yes"/>
      <point x="996.97" y="1163.06"/>
      <point x="1016.01" y="1147.06"/>
    </contour>
    <contour>
      <point x="833.945" y="1241.09" type="curve" smooth="yes"/>
      <point x="833.945" y="1206.09"/>
      <point x="815.083" y="1188.04"/>
      <point x="780.083" y="1188.04" type="curve" smooth="yes" name=".hr01"/>
      <point x="745.083" y="1188.04"/>
      <point x="729.088" y="1206.09"/>
      <point x="729.088" y="1241.09" type="curve" smooth="yes" name=".hr02"/>
      <point x="729.088" y="1276.09"/>
      <point x="745.083" y="1292.08"/>
      <point x="780.083" y="1292.08" type="curve" smooth="yes"/>
      <point x="815.083" y="1292.08"/>
      <point x="833.945" y="1276.09" name=".hr03"/>
    </contour>
    <contour>
      <point x="1128.04" y="934.093" type="curve" smooth="yes" name=".hr04"/>
      <point x="1128.04" y="899.093"/>
      <point x="1110" y="881.05"/>
      <point x="1075" y="881.05" type="curve" smooth="yes"/>
      <point x="1040" y="881.05"/>
      <point x="1024" y="899.093"/>
      <point x="1024" y="934.093" type="curve" smooth="yes"/>
      <point x="1024" y="969.093"/>
      <point x="1040" y="985.088"/>
      <point x="1075" y="985.088" type="curve" smooth="yes"/>
      <point x="1110" y="985.088"/>
      <point x="1128.04" y="969.093"/>
    </contour>
    <contour>
      <point x="610.099" y="1280" type="curve" smooth="yes"/>
      <point x="610.099" y="1245"/>
      <point x="592.056" y="1226.96"/>
      <point x="557.056" y="1226.96" type="curve" smooth="yes"/>
      <point x="522.056" y="1226.96"/>
      <point x="506.061" y="1245" name=".hr05"/>
      <point x="506.061" y="1280" type="curve" smooth="yes"/>
      <point x="506.061" y="1315"/>
      <point x="522.056" y="1331" name=".hr06"/>
      <point x="557.056" y="1331" type="curve" smooth="yes"/>
      <point x="592.056" y="1331"/>
      <point x="610.099" y="1315"/>
    </contour>
    <contour>
      <point x="1181.9" y="686.08" type="curve" smooth="yes"/>
      <point x="1181.9" y="651.08" name=".hr07"/>
      <point x="1163.04" y="633.037" name=".hr08"/>
      <point x="1128.04" y="633.037" type="curve" smooth="yes"/>
      <point x="1094.04" y="633.037"/>
      <point x="1077.04" y="651.08"/>
      <point x="1077.04" y="686.08" type="curve" smooth="yes"/>
      <point x="1077.04" y="721.08" name=".hr09"/>
      <point x="1094.04" y="737.075" name=".hr10"/>
      <point x="1128.04" y="737.075" type="curve" smooth="yes" name=".hr11"/>
      <point x="1163.04" y="737.075"/>
      <point x="1181.9" y="721.08"/>
    </contour>
    <contour>
      <point x="405.914" y="1280" type="curve" smooth="yes" name=".hr12"/>
      <point x="405.914" y="1245" name=".hr13"/>
      <point x="387.051" y="1226.96"/>
      <point x="352.051" y="1226.96" type="curve" smooth="yes" name=".hr14"/>
      <point x="317.051" y="1226.96"/>
      <point x="301.056" y="1245"/>
      <point x="301.056" y="1280" type="curve" smooth="yes"/>
      <point x="301.056" y="1315"/>
      <point x="317.051" y="1331"/>
      <point x="352.051" y="1331" type="curve" smooth="yes"/>
      <point x="387.051" y="1331"/>
      <point x="405.914" y="1315"/>
    </contour>
    <contour>
      <point x="1161.01" y="496.026" type="curve" smooth="yes"/>
      <point x="1161.01" y="461.026"/>
      <point x="1142.97" y="441.959"/>
      <point x="1107.97" y="441.959" type="curve" smooth="yes"/>
      <point x="1072.97" y="441.959"/>
      <point x="1056.97" y="461.026"/>
      <point x="1056.97" y="496.026" type="curve" smooth="yes" name=".hr15"/>
      <point x="1056.97" y="530.026"/>
      <point x="1072.97" y="547.021"/>
      <point x="1107.97" y="547.021" type="curve" smooth="yes"/>
      <point x="1142.97" y="547.021"/>
      <point x="1161.01" y="530.026"/>
    </contour>
    <contour>
      <point x="261.939" y="1275.9" type="curve" smooth="yes"/>
      <point x="261.939" y="1224.9"/>
      <point x="220.984" y="1183.95"/>
      <point x="169.984" y="1183.95" type="curve" smooth="yes"/>
      <point x="118.984" y="1183.95"/>
      <point x="78.0287" y="1224.9"/>
      <point x="78.0287" y="1275.9" type="curve" smooth="yes"/>
      <point x="78.0287" y="1326.9"/>
      <point x="118.984" y="1368.06"/>
      <point x="169.984" y="1368.06" type="curve" smooth="yes"/>
      <point x="220.984" y="1368.06"/>
      <point x="261.939" y="1326.9"/>
    </contour>
    <contour>
      <point x="1096.09" y="331.981" type="curve" smooth="yes"/>
      <point x="1096.09" y="296.981"/>
      <point x="1077.02" y="278.937"/>
      <point x="1042.02" y="278.937" type="curve" smooth="yes"/>
      <point x="1008.02" y="278.937"/>
      <point x="991.027" y="296.981"/>
      <point x="991.027" y="331.981" type="curve" smooth="yes"/>
      <point x="991.027" y="366.981"/>
      <point x="1008.02" y="382.976"/>
      <point x="1042.02" y="382.976" type="curve" smooth="yes"/>
      <point x="1077.02" y="382.976" name=".hr16"/>
      <point x="1096.09" y="366.981"/>
    </contour>
    <contour>
      <point x="207.053" y="1077.04" type="curve" smooth="yes"/>
      <point x="207.053" y="1042.04" name=".hr17"/>
      <point x="188.01" y="1024"/>
      <point x="154.01" y="1024" type="curve" smooth="yes"/>
      <point x="119.01" y="1024"/>
      <point x="101.991" y="1042.04"/>
      <point x="101.991" y="1077.04" type="curve" smooth="yes" name=".hr18"/>
      <point x="101.991" y="1112.04"/>
      <point x="119.01" y="1128.04"/>
      <point x="154.01" y="1128.04" type="curve" smooth="yes"/>
      <point x="188.01" y="1128.04"/>
      <point x="207.053" y="1112.04"/>
    </contour>
    <contour>
      <point x="983.04" y="182.067" type="curve" smooth="yes"/>
      <point x="983.04" y="147.067"/>
      <point x="964.997" y="129.024"/>
      <point x="929.997" y="129.024" type="curve" smooth="yes"/>
      <point x="894.997" y="129.024"/>
      <point x="879.001" y="147.067"/>
      <point x="879.001" y="182.067" type="curve" smooth="yes"/>
      <point x="879.001" y="217.067"/>
      <point x="894.997" y="233.062"/>
      <point x="929.997" y="233.062" type="curve" smooth="yes"/>
      <point x="964.997" y="233.062"/>
      <point x="983.04" y="217.067"/>
    </contour>
    <contour>
      <point x="207.053" y="872.039" type="curve" smooth="yes"/>
      <point x="207.053" y="838.039"/>
      <point x="188.01" y="818.995"/>
      <point x="154.01" y="818.995" type="curve" smooth="yes"/>
      <point x="119.01" y="818.995"/>
      <point x="101.991" y="838.039"/>
      <point x="101.991" y="872.039" type="curve" smooth="yes"/>
      <point x="101.991" y="907.039"/>
      <point x="119.01" y="924.058"/>
      <point x="154.01" y="924.058" type="curve" smooth="yes"/>
      <point x="188.01" y="924.058"/>
      <point x="207.053" y="907.039"/>
    </contour>
    <contour>
      <point x="814.899" y="83.968" type="curve" smooth="yes"/>
      <point x="814.899" y="48.968"/>
      <point x="797.061" y="30.9248"/>
      <point x="762.061" y="30.9248" type="curve" smooth="yes"/>
      <point x="727.061" y="30.9248"/>
      <point x="711.065" y="48.968"/>
      <point x="711.065" y="83.968" type="curve" smooth="yes"/>
      <point x="711.065" y="118.968"/>
      <point x="727.061" y="134.963"/>
      <point x="762.061" y="134.963" type="curve" smooth="yes"/>
      <point x="797.061" y="134.963"/>
      <point x="814.899" y="118.968"/>
    </contour>
    <contour>
      <point x="207.053" y="668.057" type="curve" smooth="yes"/>
      <point x="207.053" y="633.057"/>
      <point x="188.01" y="613.99" name=".hr19"/>
      <point x="154.01" y="613.99" type="curve" smooth="yes"/>
      <point x="119.01" y="613.99"/>
      <point x="101.991" y="633.057"/>
      <point x="101.991" y="668.057" type="curve" smooth="yes"/>
      <point x="101.991" y="702.057"/>
      <point x="119.01" y="719.053"/>
      <point x="154.01" y="719.053" type="curve" smooth="yes"/>
      <point x="188.01" y="719.053"/>
      <point x="207.053" y="702.057"/>
    </contour>
    <contour>
      <point x="207.053" y="463.053" type="curve" smooth="yes"/>
      <point x="207.053" y="428.053"/>
      <point x="188.01" y="410.01"/>
      <point x="154.01" y="410.01" type="curve" smooth="yes" name=".hr20"/>
      <point x="119.01" y="410.01"/>
      <point x="101.991" y="428.053"/>
      <point x="101.991" y="463.053" type="curve" smooth="yes" name=".hr21"/>
      <point x="101.991" y="498.053"/>
      <point x="119.01" y="514.048"/>
      <point x="154.01" y="514.048" type="curve" smooth="yes"/>
      <point x="188.01" y="514.048"/>
      <point x="207.053" y="498.053"/>
    </contour>
    <contour>
      <point x="593.92" y="53.0433" type="curve" smooth="yes"/>
      <point x="593.92" y="18.0433"/>
      <point x="575.081" y="0"/>
      <point x="541.081" y="0" type="curve" smooth="yes"/>
      <point x="506.081" y="0"/>
      <point x="489.062" y="18.0432"/>
      <point x="489.062" y="53.0432" type="curve" smooth="yes"/>
      <point x="489.062" y="88.0432"/>
      <point x="506.081" y="104.038"/>
      <point x="541.081" y="104.038" type="curve" smooth="yes"/>
      <point x="575.081" y="104.038"/>
      <point x="593.92" y="88.0432"/>
    </contour>
    <contour>
      <point x="207.053" y="258.048" type="curve" smooth="yes"/>
      <point x="207.053" y="223.048"/>
      <point x="188.01" y="205.005"/>
      <point x="154.01" y="205.005" type="curve" smooth="yes"/>
      <point x="119.01" y="205.005"/>
      <point x="101.991" y="223.048"/>
      <point x="101.991" y="258.048" type="curve" smooth="yes"/>
      <point x="101.991" y="293.048" name=".hr22"/>
      <point x="119.01" y="309.043" name=".hr23"/>
      <point x="154.01" y="309.043" type="curve" smooth="yes"/>
      <point x="188.01" y="309.043"/>
      <point x="207.053" y="293.048" name=".hr24"/>
    </contour>
    <contour>
      <point x="388.915" y="53.0433" type="curve" smooth="yes"/>
      <point x="388.915" y="18.0433"/>
      <point x="371.077" y="0" name=".hr25"/>
      <point x="336.077" y="0" type="curve" smooth="yes"/>
      <point x="301.077" y="0"/>
      <point x="285.082" y="18.0432"/>
      <point x="285.082" y="53.0432" type="curve" smooth="yes"/>
      <point x="285.082" y="88.0432"/>
      <point x="301.077" y="104.038"/>
      <point x="336.077" y="104.038" type="curve" smooth="yes"/>
      <point x="371.077" y="104.038"/>
      <point x="388.915" y="88.0432"/>
    </contour>
    <contour>
      <point x="207.053" y="53.0433" type="curve" smooth="yes"/>
      <point x="207.053" y="18.0433"/>
      <point x="188.01" y="0"/>
      <point x="154.01" y="0" type="curve" smooth="yes"/>
      <point x="119.01" y="0"/>
      <point x="101.991" y="18.0432"/>
      <point x="101.991" y="53.0432" type="curve" smooth="yes"/>
      <point x="101.991" y="88.0432"/>
      <point x="119.01" y="104.038"/>
      <point x="154.01" y="104.038" type="curve" smooth="yes" name=".hr26"/>
      <point x="188.01" y="104.038" name=".hr27"/>
      <point x="207.053" y="88.0432"/>
    </contour>
    <contour>
      <point x="242.074" y="1275.9" type="curve" smooth="yes"/>
      <point x="242.074" y="1314.9" name=".hr28"/>
      <point x="208.984" y="1347.99"/>
      <point x="169.984" y="1347.99" type="curve" smooth="yes"/>
      <point x="130.984" y="1347.99" name=".hr29"/>
      <point x="98.0993" y="1314.9"/>
      <point x="98.0993" y="1275.9" type="curve" smooth="yes"/>
      <point x="98.0993" y="1236.9"/>
      <point x="130.984" y="1204.02"/>
      <point x="169.984" y="1204.02" type="curve" smooth="yes"/>
      <point x="208.984" y="1204.02"/>
      <point x="242.074" y="1236.9"/>
    </contour>
  </outline>
</glyph>
<glyph name="H" format="2">
  <advance width="1229"/>
  <unicode hex="0048"/>
  <outline>
    <contour>
      <point x="1158.96" y="1282.05" type="curve" smooth="yes"/>
      <point x="1158.96" y="1247.05"/>
      <point x="1140.92" y="1229"/>
      <point x="1105.92" y="1229" type="curve" smooth="yes"/>
      <point x="1070.92" y="1229"/>
      <point x="1054.92" y="1247.05"/>
      <point x="1054.92" y="1282.05" type="curve" smooth="yes"/>
      <point x="1054.92" y="1317.05"/>
      <point x="1070.92" y="1333.04"/>
      <point x="1105.92" y="1333.04" type="curve" smooth="yes"/>
      <point x="1140.92" y="1333.04"/>
      <point x="1158.96" y="1317.05"/>
    </contour>
    <contour>
      <point x="1158.96" y="1077.04" type="curve" smooth="yes"/>
      <point x="1158.96" y="1042.04"/>
      <point x="1140.92" y="1024"/>
      <point x="1105.92" y="1024" type="curve" smooth="yes"/>
      <point x="1070.92" y="1024"/>
      <point x="1054.92" y="1042.04"/>
      <point x="1054.92" y="1077.04" type="curve" smooth="yes"/>
      <point x="1054.92" y="1112.04"/>
      <point x="1070.92" y="1128.04"/>
      <point x="1105.92" y="1128.04" type="curve" smooth="yes"/>
      <point x="1140.92" y="1128.04"/>
      <point x="1158.96" y="1112.04"/>
    </contour>
    <contour>
      <point x="1158.96" y="872.039" type="curve" smooth="yes"/>
      <point x="1158.96" y="838.039"/>
      <point x="1140.92" y="818.995"/>
      <point x="1105.92" y="818.995" type="curve" smooth="yes"/>
      <point x="1070.92" y="818.995"/>
      <point x="1054.92" y="838.039"/>
      <point x="1054.92" y="872.039" type="curve" smooth="yes"/>
      <point x="1054.92" y="907.039"/>
      <point x="1070.92" y="924.058"/>
      <point x="1105.92" y="924.058" type="curve" smooth="yes"/>
      <point x="1140.92" y="924.058"/>
      <point x="1158.96" y="907.039"/>
    </contour>
    <contour>
      <point x="1158.96" y="668.057" type="curve" smooth="yes"/>
      <point x="1158.96" y="633.057"/>
      <point x="1140.92" y="613.99"/>
      <point x="1105.92" y="613.99" type="curve" smooth="yes"/>
      <point x="1070.92" y="613.99"/>
      <point x="1054.92" y="633.057"/>
      <point x="1054.92" y="668.057" type="curve" smooth="yes"/>
      <point x="1054.92" y="702.057"/>
      <point x="1070.92" y="719.053"/>
      <point x="1105.92" y="719.053" type="curve" smooth="yes"/>
      <point x="1140.92" y="719.053"/>
      <point x="1158.96" y="702.057"/>
    </contour>
    <contour>
      <point x="999.015" y="681.984" type="curve" smooth="yes"/>
      <point x="999.015" y="646.984"/>
      <point x="980.971" y="628.941"/>
      <point x="945.971" y="628.941" type="curve" smooth="yes"/>
      <point x="910.971" y="628.941"/>
      <point x="894.976" y="646.984"/>
      <point x="894.976" y="681.984" type="curve" smooth="yes" name=".hr01"/>
      <point x="894.976" y="716.984"/>
      <point x="910.971" y="732.979"/>
      <point x="945.971" y="732.979" type="curve" smooth="yes"/>
      <point x="980.971" y="732.979"/>
      <point x="999.015" y="716.984"/>
    </contour>
    <contour>
      <point x="1158.96" y="463.053" type="curve" smooth="yes"/>
      <point x="1158.96" y="428.053"/>
      <point x="1140.92" y="410.01"/>
      <point x="1105.92" y="410.01" type="curve" smooth="yes"/>
      <point x="1070.92" y="410.01"/>
      <point x="1054.92" y="428.053"/>
      <point x="1054.92" y="463.053" type="curve" smooth="yes"/>
      <point x="1054.92" y="498.053"/>
      <point x="1070.92" y="514.048"/>
      <point x="1105.92" y="514.048" type="curve" smooth="yes"/>
      <point x="1140.92" y="514.048"/>
      <point x="1158.96" y="498.053"/>
    </contour>
    <contour>
      <point x="795.034" y="681.984" type="curve" smooth="yes"/>
      <point x="795.034" y="646.984"/>
      <point x="775.967" y="628.941"/>
      <point x="740.967" y="628.941" type="curve" smooth="yes"/>
      <point x="706.967" y="628.941"/>
      <point x="689.971" y="646.984"/>
      <point x="689.971" y="681.984" type="curve" smooth="yes"/>
      <point x="689.971" y="716.984"/>
      <point x="706.967" y="732.979"/>
      <point x="740.967" y="732.979" type="curve" smooth="yes"/>
      <point x="775.967" y="732.979"/>
      <point x="795.034" y="716.984"/>
    </contour>
    <contour>
      <point x="231.014" y="1275.9" type="curve" smooth="yes"/>
      <point x="231.014" y="1224.9"/>
      <point x="190.059" y="1183.95"/>
      <point x="139.059" y="1183.95" type="curve" smooth="yes"/>
      <point x="88.0592" y="1183.95"/>
      <point x="46.8992" y="1224.9"/>
      <point x="46.8992" y="1275.9" type="curve" smooth="yes"/>
      <point x="46.8992" y="1326.9"/>
      <point x="88.0592" y="1368.06"/>
      <point x="139.059" y="1368.06" type="curve" smooth="yes"/>
      <point x="190.059" y="1368.06"/>
      <point x="231.014" y="1326.9"/>
    </contour>
    <contour>
      <point x="1158.96" y="258.048" type="curve" smooth="yes"/>
      <point x="1158.96" y="223.048"/>
      <point x="1140.92" y="205.005"/>
      <point x="1105.92" y="205.005" type="curve" smooth="yes"/>
      <point x="1070.92" y="205.005"/>
      <point x="1054.92" y="223.048"/>
      <point x="1054.92" y="258.048" type="curve" smooth="yes"/>
      <point x="1054.92" y="293.048"/>
      <point x="1070.92" y="309.043"/>
      <point x="1105.92" y="309.043" type="curve" smooth="yes"/>
      <point x="1140.92" y="309.043"/>
      <point x="1158.96" y="293.048"/>
    </contour>
    <contour>
      <point x="207.053" y="1077.04" type="curve" smooth="yes"/>
      <point x="207.053" y="1042.04"/>
      <point x="188.01" y="1024"/>
      <point x="154.01" y="1024" type="curve" smooth="yes"/>
      <point x="119.01" y="1024"/>
      <point x="101.991" y="1042.04"/>
      <point x="101.991" y="1077.04" type="curve" smooth="yes"/>
      <point x="101.991" y="1112.04"/>
      <point x="119.01" y="1128.04"/>
      <point x="154.01" y="1128.04" type="curve" smooth="yes"/>
      <point x="188.01" y="1128.04"/>
      <point x="207.053" y="1112.04"/>
    </contour>
    <contour>
      <point x="582.042" y="678.093" type="curve" smooth="yes"/>
      <point x="582.042" y="643.093"/>
      <point x="562.975" y="625.05"/>
      <point x="527.975" y="625.05" type="curve" smooth="yes"/>
      <point x="493.975" y="625.05"/>
      <point x="476.979" y="643.093"/>
      <point x="476.979" y="678.093" type="curve" smooth="yes"/>
      <point x="476.979" y="713.093"/>
      <point x="493.975" y="729.088"/>
      <point x="527.975" y="729.088" type="curve" smooth="yes"/>
      <point x="562.975" y="729.088"/>
      <point x="582.042" y="713.093"/>
    </contour>
    <contour>
      <point x="1158.96" y="53.0433" type="curve" smooth="yes" name=".hr02"/>
      <point x="1158.96" y="18.0433"/>
      <point x="1140.92" y="0"/>
      <point x="1105.92" y="0" type="curve" smooth="yes"/>
      <point x="1070.92" y="0"/>
      <point x="1054.92" y="18.0432"/>
      <point x="1054.92" y="53.0432" type="curve" smooth="yes"/>
      <point x="1054.92" y="88.0432"/>
      <point x="1070.92" y="104.038"/>
      <point x="1105.92" y="104.038" type="curve" smooth="yes"/>
      <point x="1140.92" y="104.038"/>
      <point x="1158.96" y="88.0432"/>
    </contour>
    <contour>
      <point x="207.053" y="872.039" type="curve" smooth="yes"/>
      <point x="207.053" y="838.039"/>
      <point x="188.01" y="818.995"/>
      <point x="154.01" y="818.995" type="curve" smooth="yes"/>
      <point x="119.01" y="818.995"/>
      <point x="101.991" y="838.039"/>
      <point x="101.991" y="872.039" type="curve" smooth="yes"/>
      <point x="101.991" y="907.039"/>
      <point x="119.01" y="924.058"/>
      <point x="154.01" y="924.058" type="curve" smooth="yes"/>
      <point x="188.01" y="924.058"/>
      <point x="207.053" y="907.039"/>
    </contour>
    <contour>
      <point x="377.037" y="678.093" type="curve" smooth="yes"/>
      <point x="377.037" y="643.093"/>
      <point x="357.993" y="625.05"/>
      <point x="323.993" y="625.05" type="curve" smooth="yes"/>
      <point x="288.993" y="625.05"/>
      <point x="271.974" y="643.093"/>
      <point x="271.974" y="678.093" type="curve" smooth="yes"/>
      <point x="271.974" y="713.093"/>
      <point x="288.993" y="729.088"/>
      <point x="323.993" y="729.088" type="curve" smooth="yes"/>
      <point x="357.993" y="729.088"/>
      <point x="377.037" y="713.093"/>
    </contour>
    <contour>
      <point x="207.053" y="668.057" type="curve" smooth="yes"/>
      <point x="207.053" y="633.057"/>
      <point x="188.01" y="613.99"/>
      <point x="154.01" y="613.99" type="curve" smooth="yes"/>
      <point x="119.01" y="613.99"/>
      <point x="101.991" y="633.057"/>
      <point x="101.991" y="668.057" type="curve" smooth="yes"/>
      <point x="101.991" y="702.057"/>
      <point x="119.01" y="719.053"/>
      <point x="154.01" y="719.053" type="curve" smooth="yes"/>
      <point x="188.01" y="719.053"/>
      <point x="207.053" y="702.057"/>
    </contour>
    <contour>
      <point x="207.053" y="463.053" type="curve" smooth="yes"/>
      <point x="207.053" y="428.053"/>
      <point x="188.01" y="410.01"/>
      <point x="154.01" y="410.01" type="curve" smooth="yes"/>
      <point x="119.01" y="410.01" name=".hr03"/>
      <point x="101.991" y="428.053"/>
      <point x="101.991" y="463.053" type="curve" smooth="yes"/>
      <point x="101.991" y="498.053"/>
      <point x="119.01" y="514.048"/>
      <point x="154.01" y="514.048" type="curve" smooth="yes"/>
      <point x="188.01" y="514.048"/>
      <point x="207.053" y="498.053"/>
    </contour>
    <contour>
      <point x="207.053" y="258.048" type="curve" smooth="yes"/>
      <point x="207.053" y="223.048"/>
      <point x="188.01" y="205.005"/>
      <point x="154.01" y="205.005" type="curve" smooth="yes"/>
      <point x="119.01" y="205.005"/>
      <point x="101.991" y="223.048"/>
      <point x="101.991" y="258.048" type="curve" smooth="yes"/>
      <point x="101.991" y="293.048"/>
      <point x="119.01" y="309.043"/>
      <point x="154.01" y="309.043" type="curve" smooth="yes"/>
      <point x="188.01" y="309.043"/>
      <point x="207.053" y="293.048"/>
    </contour>
    <contour>
      <point x="207.053" y="53.0433" type="curve" smooth="yes"/>
      <point x="207.053" y="18.0433"/>
      <point x="188.01" y="0"/>
      <point x="154.01" y="0" type="curve" smooth="yes"/>
      <point x="119.01" y="0"/>
      <point x="101.991" y="18.0432"/>
      <point x="101.991" y="53.0432" type="curve" smooth="yes"/>
      <point x="101.991" y="88.0432"/>
      <point x="119.01" y="104.038"/>
      <point x="154.01" y="104.038" type="curve" smooth="yes"/>
      <point x="188.01" y="104.038"/>
      <point x="207.053" y="88.0432"/>
    </contour>
    <contour>
      <point x="210.944" y="1275.9" type="curve" smooth="yes"/>
      <point x="210.944" y="1314.9"/>
      <point x="178.059" y="1347.99"/>
      <point x="139.059" y="1347.99" type="curve" smooth="yes"/>
      <point x="100.059" y="1347.99"/>
      <point x="67.9935" y="1314.9"/>
      <point x="67.9935" y="1275.9" type="curve" smooth="yes"/>
      <point x="67.9935" y="1236.9"/>
      <point x="100.059" y="1204.02"/>
      <point x="139.059" y="1204.02" type="curve" smooth="yes"/>
      <point x="178.059" y="1204.02"/>
      <point x="210.944" y="1236.9"/>
    </contour>
  </outline>
</glyph>
<glyph name="I" format="2">
  <advance width="614"/>
  <unicode hex="0049"/>
  <outline>
    <contour>
      <point x="552.96" y="1282.05" type="curve" smooth="yes"/>
      <point x="552.96" y="1247.05"/>
      <point x="534.917" y="1229"/>
      <point x="499.917" y="1229" type="curve" smooth="yes"/>
      <point x="464.917" y="1229"/>
      <point x="448.922" y="1247.05"/>
      <point x="448.922" y="1282.05" type="curve" smooth="yes"/>
      <point x="448.922" y="1317.05"/>
      <point x="464.917" y="1333.04"/>
      <point x="499.917" y="1333.04" type="curve" smooth="yes"/>
      <point x="534.917" y="1333.04"/>
      <point x="552.96" y="1317.05"/>
    </contour>
    <contour>
      <point x="387.072" y="1275.9" type="curve" smooth="yes"/>
      <point x="387.072" y="1224.9"/>
      <point x="345.912" y="1183.95"/>
      <point x="294.912" y="1183.95" type="curve" smooth="yes"/>
      <point x="243.912" y="1183.95"/>
      <point x="202.957" y="1224.9"/>
      <point x="202.957" y="1275.9" type="curve" smooth="yes"/>
      <point x="202.957" y="1326.9"/>
      <point x="243.912" y="1368.06"/>
      <point x="294.912" y="1368.06" type="curve" smooth="yes"/>
      <point x="345.912" y="1368.06"/>
      <point x="387.072" y="1326.9"/>
    </contour>
    <contour>
      <point x="350.003" y="1077.04" type="curve" smooth="yes"/>
      <point x="350.003" y="1042.04"/>
      <point x="331.96" y="1024"/>
      <point x="296.96" y="1024" type="curve" smooth="yes"/>
      <point x="261.96" y="1024"/>
      <point x="245.965" y="1042.04"/>
      <point x="245.965" y="1077.04" type="curve" smooth="yes"/>
      <point x="245.965" y="1112.04"/>
      <point x="261.96" y="1128.04"/>
      <point x="296.96" y="1128.04" type="curve" smooth="yes"/>
      <point x="331.96" y="1128.04"/>
      <point x="350.003" y="1112.04"/>
    </contour>
    <contour>
      <point x="142.951" y="1282.05" type="curve" smooth="yes"/>
      <point x="142.951" y="1247.05"/>
      <point x="124.907" y="1229"/>
      <point x="89.9073" y="1229" type="curve" smooth="yes"/>
      <point x="54.9073" y="1229"/>
      <point x="38.912" y="1247.05"/>
      <point x="38.912" y="1282.05" type="curve" smooth="yes"/>
      <point x="38.912" y="1317.05"/>
      <point x="54.9073" y="1333.04"/>
      <point x="89.9073" y="1333.04" type="curve" smooth="yes"/>
      <point x="124.907" y="1333.04"/>
      <point x="142.951" y="1317.05"/>
    </contour>
    <contour>
      <point x="350.003" y="872.039" type="curve" smooth="yes"/>
      <point x="350.003" y="838.039"/>
      <point x="331.96" y="818.995"/>
      <point x="296.96" y="818.995" type="curve" smooth="yes"/>
      <point x="261.96" y="818.995"/>
      <point x="245.965" y="838.039"/>
      <point x="245.965" y="872.039" type="curve" smooth="yes"/>
      <point x="245.965" y="907.039"/>
      <point x="261.96" y="924.058"/>
      <point x="296.96" y="924.058" type="curve" smooth="yes"/>
      <point x="331.96" y="924.058"/>
      <point x="350.003" y="907.039"/>
    </contour>
    <contour>
      <point x="350.003" y="668.057" type="curve" smooth="yes"/>
      <point x="350.003" y="633.057"/>
      <point x="331.96" y="613.99"/>
      <point x="296.96" y="613.99" type="curve" smooth="yes"/>
      <point x="261.96" y="613.99"/>
      <point x="245.965" y="633.057"/>
      <point x="245.965" y="668.057" type="curve" smooth="yes"/>
      <point x="245.965" y="702.057"/>
      <point x="261.96" y="719.053"/>
      <point x="296.96" y="719.053" type="curve" smooth="yes"/>
      <point x="331.96" y="719.053"/>
      <point x="350.003" y="702.057"/>
    </contour>
    <contour>
      <point x="350.003" y="463.053" type="curve" smooth="yes"/>
      <point x="350.003" y="428.053"/>
      <point x="331.96" y="410.01"/>
      <point x="296.96" y="410.01" type="curve" smooth="yes"/>
      <point x="261.96" y="410.01"/>
      <point x="245.965" y="428.053"/>
      <point x="245.965" y="463.053" type="curve" smooth="yes"/>
      <point x="245.965" y="498.053"/>
      <point x="261.96" y="514.048"/>
      <point x="296.96" y="514.048" type="curve" smooth="yes"/>
      <point x="331.96" y="514.048"/>
      <point x="350.003" y="498.053"/>
    </contour>
    <contour>
      <point x="350.003" y="258.048" type="curve" smooth="yes"/>
      <point x="350.003" y="223.048"/>
      <point x="331.96" y="205.005"/>
      <point x="296.96" y="205.005" type="curve" smooth="yes"/>
      <point x="261.96" y="205.005"/>
      <point x="245.965" y="223.048"/>
      <point x="245.965" y="258.048" type="curve" smooth="yes"/>
      <point x="245.965" y="293.048"/>
      <point x="261.96" y="309.043"/>
      <point x="296.96" y="309.043" type="curve" smooth="yes"/>
      <point x="331.96" y="309.043"/>
      <point x="350.003" y="293.048"/>
    </contour>
    <contour>
      <point x="509.952" y="53.0433" type="curve" smooth="yes"/>
      <point x="509.952" y="18.0433"/>
      <point x="491.909" y="0"/>
      <point x="456.909" y="0" type="curve" smooth="yes"/>
      <point x="421.909" y="0"/>
      <point x="405.913" y="18.0432"/>
      <point x="405.913" y="53.0432" type="curve" smooth="yes"/>
      <point x="405.913" y="88.0432"/>
      <point x="421.909" y="104.038" name=".hr01"/>
      <point x="456.909" y="104.038" type="curve" smooth="yes"/>
      <point x="491.909" y="104.038"/>
      <point x="509.952" y="88.0432"/>
    </contour>
    <contour>
      <point x="350.003" y="53.0433" type="curve" smooth="yes"/>
      <point x="350.003" y="18.0433"/>
      <point x="331.96" y="0"/>
      <point x="296.96" y="0" type="curve" smooth="yes"/>
      <point x="261.96" y="0"/>
      <point x="245.965" y="18.0432"/>
      <point x="245.965" y="53.0432" type="curve" smooth="yes"/>
      <point x="245.965" y="88.0432"/>
      <point x="261.96" y="104.038"/>
      <point x="296.96" y="104.038" type="curve" smooth="yes"/>
      <point x="331.96" y="104.038"/>
      <point x="350.003" y="88.0432"/>
    </contour>
    <contour>
      <point x="183.911" y="53.0433" type="curve" smooth="yes"/>
      <point x="183.911" y="18.0433"/>
      <point x="166.072" y="0"/>
      <point x="131.072" y="0" type="curve" smooth="yes"/>
      <point x="96.072" y="0"/>
      <point x="80.0768" y="18.0432"/>
      <point x="80.0768" y="53.0432" type="curve" smooth="yes"/>
      <point x="80.0768" y="88.0432"/>
      <point x="96.072" y="104.038"/>
      <point x="131.072" y="104.038" type="curve" smooth="yes"/>
      <point x="166.072" y="104.038"/>
      <point x="183.911" y="88.0432"/>
    </contour>
    <contour>
      <point x="367.001" y="1275.9" type="curve" smooth="yes"/>
      <point x="367.001" y="1314.9"/>
      <point x="333.912" y="1347.99"/>
      <point x="294.912" y="1347.99" type="curve" smooth="yes"/>
      <point x="255.912" y="1347.99"/>
      <point x="223.027" y="1314.9"/>
      <point x="223.027" y="1275.9" type="curve" smooth="yes"/>
      <point x="223.027" y="1236.9"/>
      <point x="255.912" y="1204.02"/>
      <point x="294.912" y="1204.02" type="curve" smooth="yes"/>
      <point x="333.912" y="1204.02"/>
      <point x="367.001" y="1236.9"/>
    </contour>
  </outline>
</glyph>
<glyph name="K" format="2">
  <advance width="1126"/>
  <unicode hex="004B"/>
  <outline>
    <contour>
      <point x="1008.03" y="1287.99" type="curve" smooth="yes"/>
      <point x="1008.03" y="1252.99"/>
      <point x="988.959" y="1234.94"/>
      <point x="953.959" y="1234.94" type="curve" smooth="yes"/>
      <point x="919.959" y="1234.94"/>
      <point x="902.963" y="1252.99"/>
      <point x="902.963" y="1287.99" type="curve" smooth="yes"/>
      <point x="902.963" y="1322.99"/>
      <point x="919.959" y="1338.98"/>
      <point x="953.959" y="1338.98" type="curve" smooth="yes"/>
      <point x="988.959" y="1338.98"/>
      <point x="1008.03" y="1322.99"/>
    </contour>
    <contour>
      <point x="833.945" y="1155.07" type="curve" smooth="yes"/>
      <point x="833.945" y="1120.07"/>
      <point x="815.083" y="1102.03"/>
      <point x="780.083" y="1102.03" type="curve" smooth="yes"/>
      <point x="745.083" y="1102.03"/>
      <point x="729.088" y="1120.07"/>
      <point x="729.088" y="1155.07" type="curve" smooth="yes"/>
      <point x="729.088" y="1190.07"/>
      <point x="745.083" y="1206.07"/>
      <point x="780.083" y="1206.07" type="curve" smooth="yes"/>
      <point x="815.083" y="1206.07"/>
      <point x="833.945" y="1190.07"/>
    </contour>
    <contour>
      <point x="678.093" y="1036.08" type="curve" smooth="yes"/>
      <point x="678.093" y="1001.08"/>
      <point x="659.05" y="983.04"/>
      <point x="625.05" y="983.04" type="curve" smooth="yes"/>
      <point x="590.05" y="983.04"/>
      <point x="573.031" y="1001.08"/>
      <point x="573.031" y="1036.08" type="curve" smooth="yes"/>
      <point x="573.031" y="1071.08"/>
      <point x="590.05" y="1087.08"/>
      <point x="625.05" y="1087.08" type="curve" smooth="yes"/>
      <point x="659.05" y="1087.08"/>
      <point x="678.093" y="1071.08"/>
    </contour>
    <contour>
      <point x="226.919" y="1275.9" type="curve" smooth="yes"/>
      <point x="226.919" y="1224.9"/>
      <point x="185.963" y="1183.95"/>
      <point x="134.963" y="1183.95" type="curve" smooth="yes"/>
      <point x="83.9633" y="1183.95"/>
      <point x="43.008" y="1224.9" name=".hr01"/>
      <point x="43.008" y="1275.9" type="curve" smooth="yes"/>
      <point x="43.008" y="1326.9"/>
      <point x="83.9633" y="1368.06"/>
      <point x="134.963" y="1368.06" type="curve" smooth="yes"/>
      <point x="185.963" y="1368.06"/>
      <point x="226.919" y="1326.9"/>
    </contour>
    <contour>
      <point x="522.035" y="907.059" type="curve" smooth="yes"/>
      <point x="522.035" y="872.059"/>
      <point x="503.992" y="854.016"/>
      <point x="468.992" y="854.016" type="curve" smooth="yes"/>
      <point x="433.992" y="854.016"/>
      <point x="417.997" y="872.059"/>
      <point x="417.997" y="907.059" type="curve" smooth="yes"/>
      <point x="417.997" y="942.059"/>
      <point x="433.992" y="958.055"/>
      <point x="468.992" y="958.055" type="curve" smooth="yes"/>
      <point x="503.992" y="958.055"/>
      <point x="522.035" y="942.059"/>
    </contour>
    <contour>
      <point x="207.053" y="1077.04" type="curve" smooth="yes"/>
      <point x="207.053" y="1042.04"/>
      <point x="188.01" y="1024"/>
      <point x="154.01" y="1024" type="curve" smooth="yes"/>
      <point x="119.01" y="1024"/>
      <point x="101.991" y="1042.04"/>
      <point x="101.991" y="1077.04" type="curve" smooth="yes"/>
      <point x="101.991" y="1112.04"/>
      <point x="119.01" y="1128.04"/>
      <point x="154.01" y="1128.04" type="curve" smooth="yes"/>
      <point x="188.01" y="1128.04"/>
      <point x="207.053" y="1112.04"/>
    </contour>
    <contour>
      <point x="360.039" y="783.974" type="curve" smooth="yes"/>
      <point x="360.039" y="749.974"/>
      <point x="341.995" y="730.931"/>
      <point x="306.995" y="730.931" type="curve" smooth="yes"/>
      <point x="271.995" y="730.931"/>
      <point x="256" y="749.974"/>
      <point x="256" y="783.974" type="curve" smooth="yes"/>
      <point x="256" y="818.974"/>
      <point x="271.995" y="835.993"/>
      <point x="306.995" y="835.993" type="curve" smooth="yes"/>
      <point x="341.995" y="835.993"/>
      <point x="360.038" y="818.974"/>
    </contour>
    <contour>
      <point x="1061.07" y="56.9345" type="curve" smooth="yes"/>
      <point x="1061.07" y="22.9345" name=".hr02"/>
      <point x="1042.03" y="4.096" name=".hr03"/>
      <point x="1008.03" y="4.096" type="curve" smooth="yes"/>
      <point x="973.025" y="4.096"/>
      <point x="956.006" y="22.9345" name=".hr04"/>
      <point x="956.006" y="56.9345" type="curve" smooth="yes"/>
      <point x="956.006" y="91.9345"/>
      <point x="973.025" y="108.954"/>
      <point x="1008.03" y="108.954" type="curve" smooth="yes"/>
      <point x="1042.03" y="108.954"/>
      <point x="1061.07" y="91.9345"/>
    </contour>
    <contour>
      <point x="207.053" y="872.039" type="curve" smooth="yes"/>
      <point x="207.053" y="838.039"/>
      <point x="188.01" y="818.995"/>
      <point x="154.01" y="818.995" type="curve" smooth="yes"/>
      <point x="119.01" y="818.995"/>
      <point x="101.991" y="838.039"/>
      <point x="101.991" y="872.039" type="curve" smooth="yes"/>
      <point x="101.991" y="907.039"/>
      <point x="119.01" y="924.058"/>
      <point x="154.01" y="924.058" type="curve" smooth="yes"/>
      <point x="188.01" y="924.058"/>
      <point x="207.053" y="907.039"/>
    </contour>
    <contour>
      <point x="857.907" y="212.992" type="curve" smooth="yes"/>
      <point x="857.907" y="177.992"/>
      <point x="840.069" y="159.949"/>
      <point x="805.069" y="159.949" type="curve" smooth="yes"/>
      <point x="770.069" y="159.949"/>
      <point x="754.073" y="177.992"/>
      <point x="754.073" y="212.992" type="curve" smooth="yes"/>
      <point x="754.073" y="247.992"/>
      <point x="770.069" y="263.987"/>
      <point x="805.069" y="263.987" type="curve" smooth="yes"/>
      <point x="840.069" y="263.987"/>
      <point x="857.907" y="247.992"/>
    </contour>
    <contour>
      <point x="676.045" y="347.955" type="curve" smooth="yes"/>
      <point x="676.045" y="312.955"/>
      <point x="657.001" y="294.912"/>
      <point x="623.001" y="294.912" type="curve" smooth="yes"/>
      <point x="588.001" y="294.912"/>
      <point x="570.982" y="312.955"/>
      <point x="570.982" y="347.955" type="curve" smooth="yes"/>
      <point x="570.982" y="382.955"/>
      <point x="588.001" y="398.951"/>
      <point x="623.001" y="398.951" type="curve" smooth="yes"/>
      <point x="657.001" y="398.951"/>
      <point x="676.045" y="382.955"/>
    </contour>
    <contour>
      <point x="512" y="474.931" type="curve" smooth="yes"/>
      <point x="512" y="439.931"/>
      <point x="493.957" y="422.093"/>
      <point x="458.957" y="422.093" type="curve" smooth="yes"/>
      <point x="423.957" y="422.093"/>
      <point x="407.962" y="439.931"/>
      <point x="407.962" y="474.931" type="curve" smooth="yes"/>
      <point x="407.962" y="509.931"/>
      <point x="423.957" y="525.926"/>
      <point x="458.957" y="525.926" type="curve" smooth="yes"/>
      <point x="493.957" y="525.926"/>
      <point x="512" y="509.931"/>
    </contour>
    <contour>
      <point x="352.051" y="587.981" type="curve" smooth="yes"/>
      <point x="352.051" y="552.981"/>
      <point x="334.008" y="534.938"/>
      <point x="299.008" y="534.938" type="curve" smooth="yes"/>
      <point x="264.008" y="534.938"/>
      <point x="248.013" y="552.981"/>
      <point x="248.013" y="587.981" type="curve" smooth="yes"/>
      <point x="248.013" y="622.981"/>
      <point x="264.008" y="638.976"/>
      <point x="299.008" y="638.976" type="curve" smooth="yes"/>
      <point x="334.008" y="638.976"/>
      <point x="352.051" y="622.981"/>
    </contour>
    <contour>
      <point x="207.053" y="668.057" type="curve" smooth="yes" name=".hr05"/>
      <point x="207.053" y="633.057"/>
      <point x="188.01" y="613.99"/>
      <point x="154.01" y="613.99" type="curve" smooth="yes"/>
      <point x="119.01" y="613.99"/>
      <point x="101.991" y="633.057"/>
      <point x="101.991" y="668.057" type="curve" smooth="yes"/>
      <point x="101.991" y="702.057"/>
      <point x="119.01" y="719.053"/>
      <point x="154.01" y="719.053" type="curve" smooth="yes"/>
      <point x="188.01" y="719.053"/>
      <point x="207.053" y="702.057"/>
    </contour>
    <contour>
      <point x="207.053" y="463.053" type="curve" smooth="yes"/>
      <point x="207.053" y="428.053"/>
      <point x="188.01" y="410.01"/>
      <point x="154.01" y="410.01" type="curve" smooth="yes" name=".hr06"/>
      <point x="119.01" y="410.01"/>
      <point x="101.991" y="428.053"/>
      <point x="101.991" y="463.053" type="curve" smooth="yes"/>
      <point x="101.991" y="498.053"/>
      <point x="119.01" y="514.048"/>
      <point x="154.01" y="514.048" type="curve" smooth="yes"/>
      <point x="188.01" y="514.048"/>
      <point x="207.053" y="498.053"/>
    </contour>
    <contour>
      <point x="207.053" y="258.048" type="curve" smooth="yes"/>
      <point x="207.053" y="223.048"/>
      <point x="188.01" y="205.005"/>
      <point x="154.01" y="205.005" type="curve" smooth="yes"/>
      <point x="119.01" y="205.005"/>
      <point x="101.991" y="223.048"/>
      <point x="101.991" y="258.048" type="curve" smooth="yes"/>
      <point x="101.991" y="293.048"/>
      <point x="119.01" y="309.043"/>
      <point x="154.01" y="309.043" type="curve" smooth="yes"/>
      <point x="188.01" y="309.043"/>
      <point x="207.053" y="293.048"/>
    </contour>
    <contour>
      <point x="207.053" y="53.0433" type="curve" smooth="yes"/>
      <point x="207.053" y="18.0433"/>
      <point x="188.01" y="0"/>
      <point x="154.01" y="0" type="curve" smooth="yes"/>
      <point x="119.01" y="0"/>
      <point x="101.991" y="18.0432"/>
      <point x="101.991" y="53.0432" type="curve" smooth="yes"/>
      <point x="101.991" y="88.0432"/>
      <point x="119.01" y="104.038"/>
      <point x="154.01" y="104.038" type="curve" smooth="yes"/>
      <point x="188.01" y="104.038"/>
      <point x="207.053" y="88.0432"/>
    </contour>
    <contour>
      <point x="207.053" y="1275.9" type="curve" smooth="yes"/>
      <point x="207.053" y="1314.9"/>
      <point x="173.963" y="1347.99"/>
      <point x="134.963" y="1347.99" type="curve" smooth="yes"/>
      <point x="95.9632" y="1347.99"/>
      <point x="63.0785" y="1314.9"/>
      <point x="63.0785" y="1275.9" type="curve" smooth="yes"/>
      <point x="63.0785" y="1236.9"/>
      <point x="95.9632" y="1204.02"/>
      <point x="134.963" y="1204.02" type="curve" smooth="yes"/>
      <point x="173.963" y="1204.02"/>
      <point x="207.053" y="1236.9"/>
    </contour>
  </outline>
</glyph>
<glyph name="L" format="2">
  <advance width="1126"/>
  <unicode hex="004C"/>
  <outline>
    <contour>
      <point x="226.919" y="1275.9" type="curve" smooth="yes"/>
      <point x="226.919" y="1224.9"/>
      <point x="185.963" y="1183.95"/>
      <point x="134.963" y="1183.95" type="curve" smooth="yes"/>
      <point x="83.9633" y="1183.95"/>
      <point x="43.008" y="1224.9"/>
      <point x="43.008" y="1275.9" type="curve" smooth="yes"/>
      <point x="43.008" y="1326.9"/>
      <point x="83.9633" y="1368.06"/>
      <point x="134.963" y="1368.06" type="curve" smooth="yes"/>
      <point x="185.963" y="1368.06"/>
      <point x="226.919" y="1326.9"/>
    </contour>
    <contour>
      <point x="207.053" y="1077.04" type="curve" smooth="yes"/>
      <point x="207.053" y="1042.04"/>
      <point x="188.01" y="1024"/>
      <point x="154.01" y="1024" type="curve" smooth="yes"/>
      <point x="119.01" y="1024"/>
      <point x="101.991" y="1042.04"/>
      <point x="101.991" y="1077.04" type="curve" smooth="yes"/>
      <point x="101.991" y="1112.04"/>
      <point x="119.01" y="1128.04"/>
      <point x="154.01" y="1128.04" type="curve" smooth="yes"/>
      <point x="188.01" y="1128.04"/>
      <point x="207.053" y="1112.04"/>
    </contour>
    <contour>
      <point x="207.053" y="872.039" type="curve" smooth="yes"/>
      <point x="207.053" y="838.039"/>
      <point x="188.01" y="818.995"/>
      <point x="154.01" y="818.995" type="curve" smooth="yes"/>
      <point x="119.01" y="818.995"/>
      <point x="101.991" y="838.039"/>
      <point x="101.991" y="872.039" type="curve" smooth="yes"/>
      <point x="101.991" y="907.039"/>
      <point x="119.01" y="924.058"/>
      <point x="154.01" y="924.058" type="curve" smooth="yes"/>
      <point x="188.01" y="924.058"/>
      <point x="207.053" y="907.039"/>
    </contour>
    <contour>
      <point x="996.966" y="53.0433" type="curve" smooth="yes"/>
      <point x="996.966" y="18.0433"/>
      <point x="978.923" y="0"/>
      <point x="943.923" y="0" type="curve" smooth="yes"/>
      <point x="908.923" y="0"/>
      <point x="892.928" y="18.0432"/>
      <point x="892.928" y="53.0432" type="curve" smooth="yes"/>
      <point x="892.928" y="88.0432"/>
      <point x="908.923" y="104.038"/>
      <point x="943.923" y="104.038" type="curve" smooth="yes"/>
      <point x="978.923" y="104.038"/>
      <point x="996.966" y="88.0432"/>
    </contour>
    <contour>
      <point x="207.053" y="668.057" type="curve" smooth="yes"/>
      <point x="207.053" y="633.057"/>
      <point x="188.01" y="613.99"/>
      <point x="154.01" y="613.99" type="curve" smooth="yes"/>
      <point x="119.01" y="613.99"/>
      <point x="101.991" y="633.057"/>
      <point x="101.991" y="668.057" type="curve" smooth="yes"/>
      <point x="101.991" y="702.057"/>
      <point x="119.01" y="719.053"/>
      <point x="154.01" y="719.053" type="curve" smooth="yes"/>
      <point x="188.01" y="719.053"/>
      <point x="207.053" y="702.057"/>
    </contour>
    <contour>
      <point x="792.985" y="53.0433" type="curve" smooth="yes"/>
      <point x="792.985" y="18.0433"/>
      <point x="773.918" y="0"/>
      <point x="738.918" y="0" type="curve" smooth="yes"/>
      <point x="704.918" y="0"/>
      <point x="687.923" y="18.0432"/>
      <point x="687.923" y="53.0432" type="curve" smooth="yes"/>
      <point x="687.923" y="88.0432"/>
      <point x="704.918" y="104.038"/>
      <point x="738.918" y="104.038" type="curve" smooth="yes"/>
      <point x="773.918" y="104.038"/>
      <point x="792.985" y="88.0432"/>
    </contour>
    <contour>
      <point x="207.053" y="463.053" type="curve" smooth="yes"/>
      <point x="207.053" y="428.053"/>
      <point x="188.01" y="410.01"/>
      <point x="154.01" y="410.01" type="curve" smooth="yes"/>
      <point x="119.01" y="410.01"/>
      <point x="101.991" y="428.053"/>
      <point x="101.991" y="463.053" type="curve" smooth="yes"/>
      <point x="101.991" y="498.053"/>
      <point x="119.01" y="514.048"/>
      <point x="154.01" y="514.048" type="curve" smooth="yes"/>
      <point x="188.01" y="514.048"/>
      <point x="207.053" y="498.053"/>
    </contour>
    <contour>
      <point x="587.981" y="53.0433" type="curve" smooth="yes"/>
      <point x="587.981" y="18.0433"/>
      <point x="568.938" y="0"/>
      <point x="534.938" y="0" type="curve" smooth="yes"/>
      <point x="499.938" y="0"/>
      <point x="482.919" y="18.0432"/>
      <point x="482.919" y="53.0432" type="curve" smooth="yes"/>
      <point x="482.919" y="88.0432"/>
      <point x="499.938" y="104.038"/>
      <point x="534.938" y="104.038" type="curve" smooth="yes"/>
      <point x="568.938" y="104.038"/>
      <point x="587.981" y="88.0432"/>
    </contour>
    <contour>
      <point x="207.053" y="258.048" type="curve" smooth="yes"/>
      <point x="207.053" y="223.048"/>
      <point x="188.01" y="205.005"/>
      <point x="154.01" y="205.005" type="curve" smooth="yes"/>
      <point x="119.01" y="205.005"/>
      <point x="101.991" y="223.048"/>
      <point x="101.991" y="258.048" type="curve" smooth="yes"/>
      <point x="101.991" y="293.048"/>
      <point x="119.01" y="309.043"/>
      <point x="154.01" y="309.043" type="curve" smooth="yes"/>
      <point x="188.01" y="309.043"/>
      <point x="207.053" y="293.048"/>
    </contour>
    <contour>
      <point x="396.902" y="53.0433" type="curve" smooth="yes"/>
      <point x="396.902" y="18.0433"/>
      <point x="379.064" y="0"/>
      <point x="344.064" y="0" type="curve" smooth="yes"/>
      <point x="309.064" y="0"/>
      <point x="293.069" y="18.0432"/>
      <point x="293.069" y="53.0432" type="curve" smooth="yes"/>
      <point x="293.069" y="88.0432"/>
      <point x="309.064" y="104.038"/>
      <point x="344.064" y="104.038" type="curve" smooth="yes"/>
      <point x="379.064" y="104.038"/>
      <point x="396.902" y="88.0432"/>
    </contour>
    <contour>
      <point x="207.053" y="53.0433" type="curve" smooth="yes"/>
      <point x="207.053" y="18.0433"/>
      <point x="188.01" y="0"/>
      <point x="154.01" y="0" type="curve" smooth="yes"/>
      <point x="119.01" y="0"/>
      <point x="101.991" y="18.0432"/>
      <point x="101.991" y="53.0432" type="curve" smooth="yes"/>
      <point x="101.991" y="88.0432"/>
      <point x="119.01" y="104.038"/>
      <point x="154.01" y="104.038" type="curve" smooth="yes"/>
      <point x="188.01" y="104.038"/>
      <point x="207.053" y="88.0432"/>
    </contour>
    <contour>
      <point x="207.053" y="1275.9" type="curve" smooth="yes"/>
      <point x="207.053" y="1314.9"/>
      <point x="173.963" y="1347.99"/>
      <point x="134.963" y="1347.99" type="curve" smooth="yes"/>
      <point x="95.9632" y="1347.99"/>
      <point x="63.0785" y="1314.9"/>
      <point x="63.0785" y="1275.9" type="curve" smooth="yes"/>
      <point x="63.0785" y="1236.9"/>
      <point x="95.9632" y="1204.02"/>
      <point x="134.963" y="1204.02" type="curve" smooth="yes"/>
      <point x="173.963" y="1204.02"/>
      <point x="207.053" y="1236.9"/>
    </contour>
  </outline>
</glyph>
<glyph name="N" format="2">
  <advance width="1229"/>
  <unicode hex="004E"/>
  <outline>
    <contour>
      <point x="1158.96" y="1282.05" type="curve" smooth="yes"/>
      <point x="1158.96" y="1247.05"/>
      <point x="1140.92" y="1229"/>
      <point x="1105.92" y="1229" type="curve" smooth="yes"/>
      <point x="1070.92" y="1229"/>
      <point x="1054.92" y="1247.05"/>
      <point x="1054.92" y="1282.05" type="curve" smooth="yes"/>
      <point x="1054.92" y="1317.05"/>
      <point x="1070.92" y="1333.04"/>
      <point x="1105.92" y="1333.04" type="curve" smooth="yes"/>
      <point x="1140.92" y="1333.04"/>
      <point x="1158.96" y="1317.05"/>
    </contour>
    <contour>
      <point x="1158.96" y="1077.04" type="curve" smooth="yes"/>
      <point x="1158.96" y="1042.04"/>
      <point x="1140.92" y="1024"/>
      <point x="1105.92" y="1024" type="curve" smooth="yes"/>
      <point x="1070.92" y="1024"/>
      <point x="1054.92" y="1042.04"/>
      <point x="1054.92" y="1077.04" type="curve" smooth="yes"/>
      <point x="1054.92" y="1112.04"/>
      <point x="1070.92" y="1128.04"/>
      <point x="1105.92" y="1128.04" type="curve" smooth="yes"/>
      <point x="1140.92" y="1128.04"/>
      <point x="1158.96" y="1112.04"/>
    </contour>
    <contour>
      <point x="1158.96" y="872.039" type="curve" smooth="yes"/>
      <point x="1158.96" y="838.039"/>
      <point x="1140.92" y="818.995"/>
      <point x="1105.92" y="818.995" type="curve" smooth="yes"/>
      <point x="1070.92" y="818.995"/>
      <point x="1054.92" y="838.039"/>
      <point x="1054.92" y="872.039" type="curve" smooth="yes"/>
      <point x="1054.92" y="907.039"/>
      <point x="1070.92" y="924.058"/>
      <point x="1105.92" y="924.058" type="curve" smooth="yes"/>
      <point x="1140.92" y="924.058"/>
      <point x="1158.96" y="907.039"/>
    </contour>
    <contour>
      <point x="1158.96" y="668.057" type="curve" smooth="yes"/>
      <point x="1158.96" y="633.057"/>
      <point x="1140.92" y="613.99"/>
      <point x="1105.92" y="613.99" type="curve" smooth="yes"/>
      <point x="1070.92" y="613.99"/>
      <point x="1054.92" y="633.057"/>
      <point x="1054.92" y="668.057" type="curve" smooth="yes"/>
      <point x="1054.92" y="702.057"/>
      <point x="1070.92" y="719.053"/>
      <point x="1105.92" y="719.053" type="curve" smooth="yes"/>
      <point x="1140.92" y="719.053"/>
      <point x="1158.96" y="702.057"/>
    </contour>
    <contour>
      <point x="1158.96" y="463.053" type="curve" smooth="yes"/>
      <point x="1158.96" y="428.053"/>
      <point x="1140.92" y="410.01"/>
      <point x="1105.92" y="410.01" type="curve" smooth="yes"/>
      <point x="1070.92" y="410.01"/>
      <point x="1054.92" y="428.053"/>
      <point x="1054.92" y="463.053" type="curve" smooth="yes"/>
      <point x="1054.92" y="498.053"/>
      <point x="1070.92" y="514.048"/>
      <point x="1105.92" y="514.048" type="curve" smooth="yes"/>
      <point x="1140.92" y="514.048"/>
      <point x="1158.96" y="498.053"/>
    </contour>
    <contour>
      <point x="263.987" y="1275.9" type="curve" smooth="yes"/>
      <point x="263.987" y="1224.9"/>
      <point x="223.032" y="1183.95"/>
      <point x="172.032" y="1183.95" type="curve" smooth="yes"/>
      <point x="121.032" y="1183.95"/>
      <point x="80.0767" y="1224.9"/>
      <point x="80.0767" y="1275.9" type="curve" smooth="yes"/>
      <point x="80.0767" y="1326.9"/>
      <point x="121.032" y="1368.06"/>
      <point x="172.032" y="1368.06" type="curve" smooth="yes"/>
      <point x="223.032" y="1368.06"/>
      <point x="263.987" y="1326.9"/>
    </contour>
    <contour>
      <point x="306.995" y="1150.98" type="curve" smooth="yes"/>
      <point x="306.995" y="1115.98"/>
      <point x="288.952" y="1097.93"/>
      <point x="253.952" y="1097.93" type="curve" smooth="yes"/>
      <point x="218.952" y="1097.93"/>
      <point x="202.957" y="1115.98"/>
      <point x="202.957" y="1150.98" type="curve" smooth="yes" name=".hr01"/>
      <point x="202.957" y="1185.98"/>
      <point x="218.952" y="1201.97"/>
      <point x="253.952" y="1201.97" type="curve" smooth="yes"/>
      <point x="288.952" y="1201.97"/>
      <point x="306.995" y="1185.98"/>
    </contour>
    <contour>
      <point x="410.009" y="1019.9" type="curve" smooth="yes"/>
      <point x="410.009" y="984.904"/>
      <point x="390.942" y="967.065"/>
      <point x="355.942" y="967.065" type="curve" smooth="yes"/>
      <point x="321.942" y="967.065"/>
      <point x="304.947" y="984.904"/>
      <point x="304.947" y="1019.9" type="curve" smooth="yes"/>
      <point x="304.947" y="1054.9"/>
      <point x="321.942" y="1070.9"/>
      <point x="355.942" y="1070.9" type="curve" smooth="yes"/>
      <point x="390.942" y="1070.9"/>
      <point x="410.009" y="1054.9"/>
    </contour>
    <contour>
      <point x="1158.96" y="258.048" type="curve" smooth="yes" name=".hr02"/>
      <point x="1158.96" y="223.048"/>
      <point x="1140.92" y="205.005"/>
      <point x="1105.92" y="205.005" type="curve" smooth="yes"/>
      <point x="1070.92" y="205.005"/>
      <point x="1054.92" y="223.048"/>
      <point x="1054.92" y="258.048" type="curve" smooth="yes"/>
      <point x="1054.92" y="293.048"/>
      <point x="1070.92" y="309.043"/>
      <point x="1105.92" y="309.043" type="curve" smooth="yes"/>
      <point x="1140.92" y="309.043"/>
      <point x="1158.96" y="293.048"/>
    </contour>
    <contour>
      <point x="536.985" y="854.016" type="curve" smooth="yes"/>
      <point x="536.985" y="819.016"/>
      <point x="517.918" y="800.973"/>
      <point x="482.918" y="800.973" type="curve" smooth="yes"/>
      <point x="448.918" y="800.973"/>
      <point x="431.923" y="819.016"/>
      <point x="431.923" y="854.016" type="curve" smooth="yes"/>
      <point x="431.923" y="889.016"/>
      <point x="448.918" y="905.011"/>
      <point x="482.918" y="905.011" type="curve" smooth="yes"/>
      <point x="517.918" y="905.011"/>
      <point x="536.985" y="889.016" name=".hr03"/>
    </contour>
    <contour>
      <point x="659.047" y="692.019" type="curve" smooth="yes"/>
      <point x="659.047" y="657.019"/>
      <point x="641.003" y="638.976" name=".hr04"/>
      <point x="606.003" y="638.976" type="curve" smooth="yes"/>
      <point x="571.003" y="638.976"/>
      <point x="555.008" y="657.019" name=".hr05"/>
      <point x="555.008" y="692.019" type="curve" smooth="yes"/>
      <point x="555.008" y="727.019"/>
      <point x="571.003" y="743.014"/>
      <point x="606.003" y="743.014" type="curve" smooth="yes"/>
      <point x="641.003" y="743.014"/>
      <point x="659.047" y="727.019"/>
    </contour>
    <contour>
      <point x="786.023" y="534.938" type="curve" smooth="yes"/>
      <point x="786.023" y="499.938"/>
      <point x="767.979" y="481.075"/>
      <point x="732.979" y="481.075" type="curve" smooth="yes"/>
      <point x="697.979" y="481.075"/>
      <point x="681.984" y="499.938"/>
      <point x="681.984" y="534.938" type="curve" smooth="yes"/>
      <point x="681.984" y="568.938"/>
      <point x="697.979" y="585.933"/>
      <point x="732.979" y="585.933" type="curve" smooth="yes"/>
      <point x="767.979" y="585.933"/>
      <point x="786.023" y="568.938"/>
    </contour>
    <contour>
      <point x="207.053" y="1077.04" type="curve" smooth="yes"/>
      <point x="207.053" y="1042.04"/>
      <point x="188.01" y="1024"/>
      <point x="154.01" y="1024" type="curve" smooth="yes"/>
      <point x="119.01" y="1024"/>
      <point x="101.991" y="1042.04"/>
      <point x="101.991" y="1077.04" type="curve" smooth="yes"/>
      <point x="101.991" y="1112.04"/>
      <point x="119.01" y="1128.04"/>
      <point x="154.01" y="1128.04" type="curve" smooth="yes"/>
      <point x="188.01" y="1128.04"/>
      <point x="207.053" y="1112.04"/>
    </contour>
    <contour>
      <point x="915.047" y="369.049" type="curve" smooth="yes"/>
      <point x="915.047" y="334.049"/>
      <point x="897.003" y="314.983"/>
      <point x="862.003" y="314.983" type="curve" smooth="yes"/>
      <point x="827.003" y="314.983"/>
      <point x="811.008" y="334.049"/>
      <point x="811.008" y="369.049" type="curve" smooth="yes"/>
      <point x="811.008" y="403.049"/>
      <point x="827.003" y="420.045"/>
      <point x="862.003" y="420.045" type="curve" smooth="yes"/>
      <point x="897.003" y="420.045"/>
      <point x="915.047" y="403.049"/>
    </contour>
    <contour>
      <point x="1034.04" y="212.992" type="curve" smooth="yes"/>
      <point x="1034.04" y="177.992"/>
      <point x="1015.99" y="159.949"/>
      <point x="980.992" y="159.949" type="curve" smooth="yes"/>
      <point x="945.992" y="159.949"/>
      <point x="929.997" y="177.992"/>
      <point x="929.997" y="212.992" type="curve" smooth="yes"/>
      <point x="929.997" y="247.992"/>
      <point x="945.992" y="263.987"/>
      <point x="980.992" y="263.987" type="curve" smooth="yes"/>
      <point x="1015.99" y="263.987"/>
      <point x="1034.04" y="247.992"/>
    </contour>
    <contour>
      <point x="1158.96" y="53.0433" type="curve" smooth="yes"/>
      <point x="1158.96" y="18.0433"/>
      <point x="1140.92" y="0"/>
      <point x="1105.92" y="0" type="curve" smooth="yes"/>
      <point x="1070.92" y="0"/>
      <point x="1054.92" y="18.0432"/>
      <point x="1054.92" y="53.0432" type="curve" smooth="yes"/>
      <point x="1054.92" y="88.0432"/>
      <point x="1070.92" y="104.038"/>
      <point x="1105.92" y="104.038" type="curve" smooth="yes"/>
      <point x="1140.92" y="104.038"/>
      <point x="1158.96" y="88.0432"/>
    </contour>
    <contour>
      <point x="207.053" y="872.039" type="curve" smooth="yes"/>
      <point x="207.053" y="838.039"/>
      <point x="188.01" y="818.995"/>
      <point x="154.01" y="818.995" type="curve" smooth="yes"/>
      <point x="119.01" y="818.995"/>
      <point x="101.991" y="838.039"/>
      <point x="101.991" y="872.039" type="curve" smooth="yes"/>
      <point x="101.991" y="907.039"/>
      <point x="119.01" y="924.058"/>
      <point x="154.01" y="924.058" type="curve" smooth="yes"/>
      <point x="188.01" y="924.058"/>
      <point x="207.053" y="907.039"/>
    </contour>
    <contour>
      <point x="207.053" y="668.057" type="curve" smooth="yes"/>
      <point x="207.053" y="633.057"/>
      <point x="188.01" y="613.99"/>
      <point x="154.01" y="613.99" type="curve" smooth="yes"/>
      <point x="119.01" y="613.99"/>
      <point x="101.991" y="633.057"/>
      <point x="101.991" y="668.057" type="curve" smooth="yes" name=".hr06"/>
      <point x="101.991" y="702.057"/>
      <point x="119.01" y="719.053"/>
      <point x="154.01" y="719.053" type="curve" smooth="yes"/>
      <point x="188.01" y="719.053"/>
      <point x="207.053" y="702.057"/>
    </contour>
    <contour>
      <point x="207.053" y="463.053" type="curve" smooth="yes"/>
      <point x="207.053" y="428.053"/>
      <point x="188.01" y="410.01"/>
      <point x="154.01" y="410.01" type="curve" smooth="yes"/>
      <point x="119.01" y="410.01"/>
      <point x="101.991" y="428.053"/>
      <point x="101.991" y="463.053" type="curve" smooth="yes"/>
      <point x="101.991" y="498.053"/>
      <point x="119.01" y="514.048"/>
      <point x="154.01" y="514.048" type="curve" smooth="yes"/>
      <point x="188.01" y="514.048"/>
      <point x="207.053" y="498.053"/>
    </contour>
    <contour>
      <point x="207.053" y="258.048" type="curve" smooth="yes"/>
      <point x="207.053" y="223.048"/>
      <point x="188.01" y="205.005"/>
      <point x="154.01" y="205.005" type="curve" smooth="yes"/>
      <point x="119.01" y="205.005"/>
      <point x="101.991" y="223.048"/>
      <point x="101.991" y="258.048" type="curve" smooth="yes"/>
      <point x="101.991" y="293.048"/>
      <point x="119.01" y="309.043"/>
      <point x="154.01" y="309.043" type="curve" smooth="yes"/>
      <point x="188.01" y="309.043"/>
      <point x="207.053" y="293.048"/>
    </contour>
    <contour>
      <point x="207.053" y="53.0433" type="curve" smooth="yes"/>
      <point x="207.053" y="18.0433"/>
      <point x="188.01" y="0"/>
      <point x="154.01" y="0" type="curve" smooth="yes"/>
      <point x="119.01" y="0"/>
      <point x="101.991" y="18.0432"/>
      <point x="101.991" y="53.0432" type="curve" smooth="yes"/>
      <point x="101.991" y="88.0432"/>
      <point x="119.01" y="104.038"/>
      <point x="154.01" y="104.038" type="curve" smooth="yes"/>
      <point x="188.01" y="104.038"/>
      <point x="207.053" y="88.0432"/>
    </contour>
    <contour>
      <point x="243.917" y="1275.9" type="curve" smooth="yes"/>
      <point x="243.917" y="1314.9"/>
      <point x="211.032" y="1347.99"/>
      <point x="172.032" y="1347.99" type="curve" smooth="yes"/>
      <point x="133.032" y="1347.99"/>
      <point x="99.9425" y="1314.9"/>
      <point x="99.9425" y="1275.9" type="curve" smooth="yes"/>
      <point x="99.9425" y="1236.9"/>
      <point x="133.032" y="1204.02"/>
      <point x="172.032" y="1204.02" type="curve" smooth="yes"/>
      <point x="211.032" y="1204.02"/>
      <point x="243.917" y="1236.9"/>
    </contour>
  </outline>
</glyph>
